{
.appVersion = "1075";
copyright = "Copyright © 2017 by Charles Forman. All rights reserved.";
customParameters = (
{
name = vendorID;
value = WOND;
},
{
name = note;
value = "Hi Friends!";
},
{
name = isFixedPitch;
value = 0;
}
);
date = "2017-11-05 02:57:02 +0000";
designer = "Charles Forman";
designerURL = "https://wonderunit.com";
disablesNiceNames = 1;
familyName = "Wonder Unit Sans";
featurePrefixes = (
{
automatic = 1;
code = "languagesystem DFLT dflt;\012";
name = Languagesystems;
}
);
features = (
{
automatic = 1;
code = "feature case;\012";
name = aalt;
},
{
automatic = 1;
code = "sub emdash by emdash.case;\012sub endash by endash.case;\012sub hyphen by hyphen.case;\012sub guillemotleft by guillemotleft.case;\012sub guillemotright by guillemotright.case;\012sub guilsinglleft by guilsinglleft.case;\012sub guilsinglright by guilsinglright.case;\012sub cent by cent.case;\012";
name = case;
}
);
fontMaster = (
{
alignmentZones = (
"{790, 16}",
"{667, 8}",
"{483, 13}",
"{0, -7}",
"{-210, -16}"
);
ascender = 790;
capHeight = 667;
customParameters = (
{
name = typoAscender;
value = 790;
},
{
name = typoDescender;
value = -210;
},
{
name = typoLineGap;
value = 0;
},
{
name = winAscent;
value = 920;
},
{
name = winDescent;
value = 298;
},
{
name = hheaAscender;
value = 920;
},
{
name = hheaDescender;
value = -298;
},
{
name = underlinePosition;
value = -133;
},
{
name = underlineThickness;
value = 20;
}
);
descender = -210;
guideLines = (
{
angle = 270;
position = "{471, 328}";
},
{
position = "{412, 638}";
},
{
position = "{100, 566}";
}
);
id = "C74BD54B-DC3B-4084-AB10-E48D432FD11D";
visible = 1;
weight = Light;
widthValue = 5;
xHeight = 483;
},
{
alignmentZones = (
"{790, 16}",
"{667, 12}",
"{483, 13}",
"{0, -13}",
"{-210, -16}"
);
ascender = 790;
capHeight = 667;
customParameters = (
{
name = typoAscender;
value = 790;
},
{
name = typoDescender;
value = -210;
},
{
name = typoLineGap;
value = 0;
},
{
name = winAscent;
value = 790;
},
{
name = winDescent;

glyphs = (
{
glyphname = A;
lastChange = "2017-11-02 22:32:22 +0000";
layers = (
{
layerId = "C74BD54B-DC3B-4084-AB10-E48D432FD11D";
paths = (
{
closed = 1;
nodes = (
"21 0 LINE",
"58 0 LINE",
"132 179 LINE",
"504 179 LINE",
"578 0 LINE",
"615 0 LINE",
"337 667 LINE",
"299 667 LINE"
);
},
{
closed = 1;
nodes = (
"492 209 LINE",
"144 209 LINE",
"318 630 LINE"
);
}
);
width = 636;
},
{
layerId = "043C55D1-ADA8-4506-BB55-8127E14D1A36";
paths = (
{
closed = 1;
nodes = (
"-18 0 LINE",
"211 0 LINE",
"235 78 LINE",
"475 78 LINE",
"499 0 LINE",
"728 0 LINE",
"482 667 LINE",
"228 667 LINE"
);
},
{
closed = 1;
nodes = (
"421 254 LINE",
"289 254 LINE",
"355 469 LINE"
);
}
);
width = 710;
}
);
leftKerningGroup = A;
note = A;
rightKerningGroup = A;
unicode = 0041;
},
{
glyphname = B;
lastChange = "2017-11-03 18:55:18 +0000";
layers = (
{
layerId = "C74BD54B-DC3B-4084-AB10-E48D432FD11D";
paths = (
{
closed = 1;
nodes = (
"88 0 LINE",
"343 0 LINE SMOOTH",
"460 0 OFFCURVE",
"534 67 OFFCURVE",
"534 180 CURVE SMOOTH",
"534 257 OFFCURVE",
"474 333 OFFCURVE",
"403 344 CURVE",
"467 357 OFFCURVE",
"521 417 OFFCURVE",
"521 497 CURVE SMOOTH",
"521 605 OFFCURVE",
"448 667 OFFCURVE",
"339 667 CURVE SMOOTH",
"88 667 LINE"
);
},
{
closed = 1;
nodes = (
"339 637 LINE SMOOTH",
"432 637 OFFCURVE",
"486 577 OFFCURVE",
"486 497 CURVE SMOOTH",
"486 416 OFFCURVE",
"434 358 OFFCURVE",
"339 358 CURVE SMOOTH",
"120 358 LINE",
"120 637 LINE"
);
},
{
closed = 1;
nodes = (
"343 328 LINE SMOOTH",
"442 328 OFFCURVE",
"499 260 OFFCURVE",
"499 179 CURVE SMOOTH",
"499 87 OFFCURVE",
"440 30 OFFCURVE",
"343 30 CURVE SMOOTH",
"120 30 LINE",
"120 328 LINE"
);
}
);
width = 600;
},
{
layerId = "043C55D1-ADA8-4506-BB55-8127E14D1A36";
paths = (
{
closed = 1;
nodes = (
"54 0 LINE",
"473 0 LINE SMOOTH",
"607 0 OFFCURVE",
"670 88 OFFCURVE",
"670 181 CURVE SMOOTH",
"670 267 OFFCURVE",
"615 333 OFFCURVE",
"543 344 CURVE",
"608 358 OFFCURVE",
"657 414 OFFCURVE",
"657 497 CURVE SMOOTH",
"657 575 OFFCURVE",
"597 667 OFFCURVE",
"459 667 CURVE SMOOTH",
"54 667 LINE"
);
},
{
closed = 1;
nodes = (
"412 499 LINE SMOOTH",
"433 499 OFFCURVE",
"452 484 OFFCURVE",
"452 461 CURVE SMOOTH",
"452 437 OFFCURVE",
"433 421 OFFCURVE",
"412 421 CURVE SMOOTH",
"256 421 LINE",
"256 499 LINE"
);
},
{
closed = 1;
nodes = (
"418 253 LINE SMOOTH",
"447 253 OFFCURVE",
"465 234 OFFCURVE",
"465 210 CURVE SMOOTH",
"465 185 OFFCURVE",
"447 168 OFFCURVE",
"418 168 CURVE SMOOTH",
"256 168 LINE",
"256 253 LINE"
);
}
);
width = 697;
}
);
leftKerningGroup = exclam;
note = B;
rightKerningGroup = B;
unicode = 0042;
},
{
glyphname = C;
lastChange = "2017-11-02 22:26:27 +0000";
layers = (
{
layerId = "C74BD54B-DC3B-4084-AB10-E48D432FD11D";
paths = (
{
closed = 1;
nodes = (
"491 -12 OFFCURVE",
"568 23 OFFCURVE",
"631 94 CURVE",
"605 115 LINE",
"557 55 OFFCURVE",
"481 18 OFFCURVE",
"398 18 CURVE SMOOTH",
"229 18 OFFCURVE",
"100 149 OFFCURVE",
"100 333 CURVE SMOOTH",
"100 518 OFFCURVE",
"229 648 OFFCURVE",
"398 648 CURVE SMOOTH",
"481 648 OFFCURVE",
"557 611 OFFCURVE",
"605 551 CURVE",
"630 573 LINE",
"569 643 OFFCURVE",
"492 678 OFFCURVE",
"398 678 CURVE SMOOTH",
"210 678 OFFCURVE",
"65 534 OFFCURVE",
"65 333 CURVE SMOOTH",
"65 132 OFFCURVE",
"210 -12 OFFCURVE",
"398 -12 CURVE SMOOTH"
);
}
);
width = 667;
},
{
layerId = "043C55D1-ADA8-4506-BB55-8127E14D1A36";
paths = (
{
closed = 1;
nodes = (
"560 -12 OFFCURVE",
"649 94 OFFCURVE",
"688 183 CURVE",
"514 263 LINE",
"497 211 OFFCURVE",
"445 166 OFFCURVE",
"385 166 CURVE SMOOTH",
"288 166 OFFCURVE",
"223 240 OFFCURVE",
"223 333 CURVE SMOOTH",
"223 426 OFFCURVE",
"288 500 OFFCURVE",
"385 500 CURVE SMOOTH",
"445 500 OFFCURVE",
"497 455 OFFCURVE",
"514 403 CURVE",
"688 484 LINE",
"648 576 OFFCURVE",
"560 678 OFFCURVE",
"385 678 CURVE SMOOTH",
"176 678 OFFCURVE",
"18 539 OFFCURVE",
"18 333 CURVE SMOOTH",
"18 128 OFFCURVE",
"176 -12 OFFCURVE",
"385 -12 CURVE SMOOTH"
);
}
);
width = 697;
}
);
leftKerningGroup = C;
note = C;
rightKerningGroup = C;
unicode = 0043;
},
{
glyphname = D;
lastChange = "2017-11-04 18:52:36 +0000";
layers = (
{
layerId = "C74BD54B-DC3B-4084-AB10-E48D432FD11D";
paths = (
{
closed = 1;
nodes = (
"88 0 LINE",
"316 0 LINE SMOOTH",
"455 0 OFFCURVE",
"544 84 OFFCURVE",
"544 229 CURVE SMOOTH",
"544 435 LINE SMOOTH",
"544 579 OFFCURVE",
"456 667 OFFCURVE",
"316 667 CURVE SMOOTH",
"88 667 LINE"
);
},
{
closed = 1;
nodes = (
"315 638 LINE SMOOTH",
"438 638 OFFCURVE",
"512 563 OFFCURVE",
"512 435 CURVE SMOOTH",
"512 229 LINE SMOOTH",
"512 101 OFFCURVE",
"438 30 OFFCURVE",
"315 30 CURVE SMOOTH",
"120 30 LINE",
"120 638 LINE"
);
}
);
width = 604;
},
{
hints = (
{
horizontal = 1;
origin = "{0, 0}";
target = "{1, 8}";
},
{
horizontal = 1;
origin = "{1, 9}";
target = "{0, 9}";
},
{
origin = "{0, 0}";
target = "{1, 8}";
},
{
origin = "{1, 4}";
target = "{0, 4}";
}
);
layerId = "043C55D1-ADA8-4506-BB55-8127E14D1A36";
paths = (
{
closed = 1;
nodes = (
"54 0 LINE",
"353 0 LINE SMOOTH",
"562 0 OFFCURVE",
"718 121 OFFCURVE",
"718 334 CURVE SMOOTH",
"718 345 LINE",
"713 551 OFFCURVE",
"558 667 OFFCURVE",
"352 667 CURVE SMOOTH",
"54 667 LINE"
);
},
{
closed = 1;
nodes = (
"353 491 LINE SMOOTH",
"456 491 OFFCURVE",
"508 430 OFFCURVE",
"513 346 CURVE",
"513 334 LINE SMOOTH",
"513 250 OFFCURVE",
"453 176 OFFCURVE",
"352 176 CURVE SMOOTH",
"256 176 LINE",
"256 491 LINE"
);
}
);
width = 736;
}
);
leftKerningGroup = exclam;
note = D;
rightKerningGroup = D;
unicode = 0044;
},
{
glyphname = E;
lastChange = "2017-11-03 18:21:47 +0000";
layers = (
{
layerId = "C74BD54B-DC3B-4084-AB10-E48D432FD11D";
paths = (
{
closed = 1;
nodes = (
"88 0 LINE",
"496 0 LINE",
"496 30 LINE",
"120 30 LINE",
"120 328 LINE",
"471 328 LINE",
"471 358 LINE",
"120 358 LINE",
"120 637 LINE",
"496 637 LINE",
"496 667 LINE",
"88 667 LINE"
);
}
);
width = 558;
},
{
layerId = "043C55D1-ADA8-4506-BB55-8127E14D1A36";
paths = (
{
closed = 1;
nodes = (
"54 0 LINE",
"560 0 LINE",
"560 176 LINE",
"256 176 LINE",
"256 249 LINE",
"496 249 LINE",
"496 425 LINE",
"256 425 LINE",
"256 491 LINE",
"560 491 LINE",
"560 667 LINE",
"54 667 LINE"
);
}
);
width = 596;
}
);
leftKerningGroup = exclam;
note = E;
unicode = 0045;
},
{
glyphname = F;
lastChange = "2017-11-03 18:21:35 +0000";
layers = (
{
layerId = "C74BD54B-DC3B-4084-AB10-E48D432FD11D";
paths = (
{
closed = 1;
nodes = (
"88 0 LINE",
"120 0 LINE",
"120 328 LINE",
"471 328 LINE",
"471 358 LINE",
"120 358 LINE",
"120 637 LINE",
"496 637 LINE",
"496 667 LINE",
"88 667 LINE"
);
}
);
width = 533;
},
{
layerId = "043C55D1-ADA8-4506-BB55-8127E14D1A36";
paths = (
{
closed = 1;
nodes = (
"54 0 LINE",
"256 0 LINE",
"256 249 LINE",
"497 249 LINE",
"497 425 LINE",
"256 425 LINE",
"256 491 LINE",
"560 491 LINE",
"560 667 LINE",
"54 667 LINE"
);
}
);
width = 592;
}
);
leftKerningGroup = exclam;
note = F;
rightKerningGroup = F;
unicode = 0046;
},
{
glyphname = G;
lastChange = "2017-11-02 22:26:27 +0000";
layers = (
{
layerId = "C74BD54B-DC3B-4084-AB10-E48D432FD11D";
paths = (
{
closed = 1;
nodes = (
"495 -13 OFFCURVE",
"583 29 OFFCURVE",
"642 94 CURVE",
"642 320 LINE",
"335 320 LINE",
"335 290 LINE",
"610 290 LINE",
"610 107 LINE",
"563 58 OFFCURVE",
"487 17 OFFCURVE",
"398 17 CURVE SMOOTH",
"229 17 OFFCURVE",
"100 149 OFFCURVE",
"100 333 CURVE SMOOTH",
"100 518 OFFCURVE",
"229 648 OFFCURVE",
"398 648 CURVE SMOOTH",
"486 648 OFFCURVE",
"569 613 OFFCURVE",
"621 553 CURVE",
"642 575 LINE",
"575 644 OFFCURVE",
"494 678 OFFCURVE",
"398 678 CURVE SMOOTH",
"210 678 OFFCURVE",
"65 534 OFFCURVE",
"65 333 CURVE SMOOTH",
"65 130 OFFCURVE",
"210 -13 OFFCURVE",
"398 -13 CURVE SMOOTH"
);
}
);
width = 708;
},
{
layerId = "043C55D1-ADA8-4506-BB55-8127E14D1A36";
paths = (
{
closed = 1;
nodes = (
"516 -12 OFFCURVE",
"616 41 OFFCURVE",
"690 123 CURVE",
"690 396 LINE",
"365 396 LINE",
"365 220 LINE",
"489 220 LINE",
"489 196 LINE",
"468 180 OFFCURVE",
"423 166 OFFCURVE",
"385 166 CURVE SMOOTH",
"288 166 OFFCURVE",
"223 240 OFFCURVE",
"223 333 CURVE SMOOTH",
"223 426 OFFCURVE",
"288 500 OFFCURVE",
"385 500 CURVE SMOOTH",
"445 500 OFFCURVE",
"489 458 OFFCURVE",
"508 417 CURVE",
"678 504 LINE",
"636 590 OFFCURVE",
"544 678 OFFCURVE",
"385 678 CURVE SMOOTH",
"183 678 OFFCURVE",
"18 547 OFFCURVE",
"18 333 CURVE SMOOTH",
"18 120 OFFCURVE",
"183 -12 OFFCURVE",
"385 -12 CURVE SMOOTH"
);
}
);
width = 726;
}
);
leftKerningGroup = C;
note = G;
unicode = 0047;
},
{
glyphname = H;
lastChange = "2017-11-03 18:55:58 +0000";
layers = (
{
layerId = "C74BD54B-DC3B-4084-AB10-E48D432FD11D";
paths = (
{
closed = 1;
nodes = (
"88 0 LINE",
"120 0 LINE",
"120 328 LINE",
"575 328 LINE",
"575 0 LINE",
"607 0 LINE",
"607 667 LINE",
"575 667 LINE",
"575 358 LINE",
"120 358 LINE",
"120 667 LINE",
"88 667 LINE"
);
}
);
width = 695;
},
{
layerId = "043C55D1-ADA8-4506-BB55-8127E14D1A36";
paths = (
{
closed = 1;
nodes = (
"54 0 LINE",
"256 0 LINE",
"256 255 LINE",
"495 255 LINE",
"495 0 LINE",
"697 0 LINE",
"697 667 LINE",
"495 667 LINE",
"495 431 LINE",
"256 431 LINE",
"256 667 LINE",
"54 667 LINE"
);
}
);
width = 751;
}
);
leftKerningGroup = exclam;
note = H;
unicode = 0048;
},
{
glyphname = I;
lastChange = "2017-11-03 19:17:05 +0000";
layers = (
{
layerId = "C74BD54B-DC3B-4084-AB10-E48D432FD11D";
paths = (
{
closed = 1;
nodes = (
"88 0 LINE",
"120 0 LINE",
"120 667 LINE",
"88 667 LINE"
);
}
);
width = 208;
},
{
layerId = "043C55D1-ADA8-4506-BB55-8127E14D1A36";
paths = (
{
closed = 1;
nodes = (
"50 0 LINE",
"256 0 LINE",
"256 667 LINE",
"50 667 LINE"
);
}
);
width = 310;
}
);
leftKerningGroup = exclam;
note = I;
unicode = 0049;
},
{
glyphname = J;
lastChange = "2017-11-02 22:26:27 +0000";
layers = (
{
layerId = "C74BD54B-DC3B-4084-AB10-E48D432FD11D";
paths = (
{
closed = 1;
nodes = (
"294 -12 OFFCURVE",
"377 58 OFFCURVE",
"377 185 CURVE SMOOTH",
"377 667 LINE",
"345 667 LINE",
"345 185 LINE SMOOTH",
"345 86 OFFCURVE",
"282 18 OFFCURVE",
"185 18 CURVE SMOOTH",
"128 18 OFFCURVE",
"81 45 OFFCURVE",
"43 99 CURVE",
"16 75 LINE",
"57 17 OFFCURVE",
"114 -12 OFFCURVE",
"185 -12 CURVE SMOOTH"
);
}
);
width = 465;
},
{
layerId = "043C55D1-ADA8-4506-BB55-8127E14D1A36";
paths = (
{
closed = 1;
nodes = (
"341 -12 OFFCURVE",
"444 67 OFFCURVE",
"444 238 CURVE SMOOTH",
"444 667 LINE",
"242 667 LINE",
"242 241 LINE SMOOTH",
"242 194 OFFCURVE",
"212 166 OFFCURVE",
"168 166 CURVE SMOOTH",
"134 166 OFFCURVE",
"104 181 OFFCURVE",
"82 196 CURVE",
"0 42 LINE",
"52 2 OFFCURVE",
"121 -12 OFFCURVE",
"186 -12 CURVE SMOOTH"
);
}
);
width = 498;
}
);
leftKerningGroup = J;
note = J;
rightKerningGroup = J;
unicode = 004A;
},
{
glyphname = K;
lastChange = "2017-11-03 18:56:32 +0000";
layers = (
{
layerId = "C74BD54B-DC3B-4084-AB10-E48D432FD11D";
paths = (
{
closed = 1;
nodes = (
"88 0 LINE",
"120 0 LINE",
"120 241 LINE",
"200 328 LINE",
"497 0 LINE",
"540 0 LINE",
"220 348 LINE",
"510 667 LINE",
"467 667 LINE",
"120 282 LINE",
"120 667 LINE",
"88 667 LINE"
);
}
);
width = 571;
},
{
layerId = "043C55D1-ADA8-4506-BB55-8127E14D1A36";
paths = (
{
closed = 1;
nodes = (
"54 0 LINE",
"256 0 LINE",
"256 185 LINE",
"293 235 LINE",
"443 0 LINE",
"689 0 LINE",
"426 357 LINE",
"678 667 LINE",
"431 667 LINE",
"256 417 LINE",
"256 667 LINE",
"54 667 LINE"
);
}
);
width = 671;
}
);
leftKerningGroup = exclam;
note = K;
rightKerningGroup = K;
unicode = 004B;
},
{
glyphname = L;
lastChange = "2017-11-03 18:56:47 +0000";
layers = (
{
layerId = "C74BD54B-DC3B-4084-AB10-E48D432FD11D";
paths = (
{
closed = 1;
nodes = (
"88 0 LINE",
"455 0 LINE",
"455 30 LINE",
"120 30 LINE",
"120 667 LINE",
"88 667 LINE"
);
}
);
width = 499;
},
{
layerId = "043C55D1-ADA8-4506-BB55-8127E14D1A36";
paths = (
{
closed = 1;
nodes = (
"54 0 LINE",
"509 0 LINE",
"509 176 LINE",
"256 176 LINE",
"256 667 LINE",
"54 667 LINE"
);
}
);
width = 536;
}
);
leftKerningGroup = exclam;
note = L;
rightKerningGroup = L;
unicode = 004C;
},
{
glyphname = M;
lastChange = "2017-11-03 18:11:28 +0000";
layers = (
{
layerId = "C74BD54B-DC3B-4084-AB10-E48D432FD11D";
paths = (
{
closed = 1;
nodes = (
"74 0 LINE",
"106 0 LINE",
"105 619 LINE",
"362 163 LINE",
"388 163 LINE",
"646 619 LINE",
"645 0 LINE",
"677 0 LINE",
"677 667 LINE",
"639 667 LINE",
"375 201 LINE",
"112 667 LINE",
"74 667 LINE"
);
}
);
width = 770;
},
{
layerId = "043C55D1-ADA8-4506-BB55-8127E14D1A36";
paths = (
{
closed = 1;
nodes = (
"54 0 LINE",
"256 0 LINE",
"256 401 LINE",
"405 130 LINE",
"495 130 LINE",
"644 401 LINE",
"644 0 LINE",
"846 0 LINE",
"846 667 LINE",
"567 667 LINE",
"450 477 LINE",
"333 667 LINE",
"54 667 LINE"
);
}
);
width = 900;
}
);
leftKerningGroup = exclam;
note = M;
unicode = 004D;
},
{
glyphname = N;
lastChange = "2017-11-03 18:57:02 +0000";
layers = (
{
layerId = "C74BD54B-DC3B-4084-AB10-E48D432FD11D";
paths = (
{
closed = 1;
nodes = (
"88 0 LINE",
"120 0 LINE",
"120 615 LINE",
"570 0 LINE",
"602 0 LINE",
"602 667 LINE",
"570 667 LINE",
"570 58 LINE",
"120 667 LINE",
"88 667 LINE"
);
}
);
width = 690;
},
{
layerId = "043C55D1-ADA8-4506-BB55-8127E14D1A36";
paths = (
{
closed = 1;
nodes = (
"54 0 LINE",
"256 0 LINE",
"256 338 LINE",
"502 0 LINE",
"696 0 LINE",
"696 667 LINE",
"494 667 LINE",
"494 351 LINE",
"262 667 LINE",
"54 667 LINE"
);
}
);
width = 750;
}
);
leftKerningGroup = exclam;
note = N;
unicode = 004E;
},
{
glyphname = O;
lastChange = "2017-11-04 18:53:48 +0000";
layers = (
{
anchors = (
{
name = bottom;
position = "{306, 0}";
},
{
name = center;
position = "{306, 334}";
},
{
name = ogonek;
position = "{587, 10}";
},
{
name = top;
position = "{306, 667}";
},
{
name = topleft;
position = "{-25, 667}";
},
{
name = topright;
position = "{637, 667}";
}
);
layerId = "C74BD54B-DC3B-4084-AB10-E48D432FD11D";
paths = (
{
closed = 1;
nodes = (
"65 211 LINE SMOOTH",
"65 86 OFFCURVE",
"161 -6 OFFCURVE",
"306 -6 CURVE SMOOTH",
"451 -6 OFFCURVE",
"547 86 OFFCURVE",
"547 211 CURVE SMOOTH",
"547 450 LINE SMOOTH",
"547 583 OFFCURVE",
"452 674 OFFCURVE",
"306 674 CURVE SMOOTH",
"160 674 OFFCURVE",
"65 583 OFFCURVE",
"65 450 CURVE SMOOTH"
);
},
{
closed = 1;
nodes = (
"97 567 OFFCURVE",
"177 645 OFFCURVE",
"306 645 CURVE SMOOTH",
"435 645 OFFCURVE",
"515 567 OFFCURVE",
"515 450 CURVE SMOOTH",
"515 211 LINE SMOOTH",
"515 102 OFFCURVE",
"434 24 OFFCURVE",
"306 24 CURVE SMOOTH",
"178 24 OFFCURVE",
"97 102 OFFCURVE",
"97 211 CURVE SMOOTH",
"97 450 LINE SMOOTH"
);
}
);
width = 613;
},
{
anchors = (
{
name = bottom;
position = "{383, 0}";
},
{
name = center;
position = "{383, 334}";
},
{
name = ogonek;
position = "{689, 10}";
},
{
name = top;
position = "{383, 667}";
},
{
name = topleft;
position = "{20, 667}";
},
{
name = topright;
position = "{746, 667}";
}
);
hints = (
{
horizontal = 1;
origin = "{0, 3}";
target = "{1, 9}";
},
{
horizontal = 1;
origin = "{1, 2}";
target = "{0, 10}";
},
{
origin = "{0, 0}";
target = "{1, 12}";
},
{
origin = "{1, 6}";
target = "{0, 6}";
}
);
layerId = "043C55D1-ADA8-4506-BB55-8127E14D1A36";
paths = (
{
closed = 1;
nodes = (
"18 333 LINE SMOOTH",
"18 128 OFFCURVE",
"177 -12 OFFCURVE",
"383 -12 CURVE SMOOTH",
"589 -12 OFFCURVE",
"748 128 OFFCURVE",
"748 333 CURVE SMOOTH",
"748 333 LINE",
"743 533 OFFCURVE",
"585 678 OFFCURVE",
"383 678 CURVE SMOOTH",
"180 678 OFFCURVE",
"18 534 OFFCURVE",
"18 333 CURVE SMOOTH"
);
},
{
closed = 1;
nodes = (
"223 426 OFFCURVE",
"290 500 OFFCURVE",
"383 500 CURVE SMOOTH",
"477 500 OFFCURVE",
"543 426 OFFCURVE",
"543 333 CURVE",
"543 333 LINE SMOOTH",
"543 240 OFFCURVE",
"480 166 OFFCURVE",
"383 166 CURVE SMOOTH",
"286 166 OFFCURVE",
"223 240 OFFCURVE",
"223 333 CURVE SMOOTH",
"223 333 LINE"
);
}
);
width = 766;
}
);
leftKerningGroup = C;
note = O;
rightKerningGroup = D;
unicode = 004F;
},
{
glyphname = P;
lastChange = "2017-11-03 18:57:26 +0000";
layers = (
{
layerId = "C74BD54B-DC3B-4084-AB10-E48D432FD11D";
paths = (
{
closed = 1;
nodes = (
"88 0 LINE",
"120 0 LINE",
"120 289 LINE",
"319 289 LINE SMOOTH",
"438 289 OFFCURVE",
"514 373 OFFCURVE",
"514 478 CURVE SMOOTH",
"514 585 OFFCURVE",
"439 667 OFFCURVE",
"319 667 CURVE SMOOTH",
"88 667 LINE"
);
},
{
closed = 1;
nodes = (
"318 637 LINE SMOOTH",
"415 637 OFFCURVE",
"479 571 OFFCURVE",
"479 478 CURVE SMOOTH",
"479 385 OFFCURVE",
"415 319 OFFCURVE",
"318 319 CURVE SMOOTH",
"120 319 LINE",
"120 637 LINE"
);
}
);
width = 555;
},
{
layerId = "043C55D1-ADA8-4506-BB55-8127E14D1A36";
paths = (
{
closed = 1;
nodes = (
"54 0 LINE",
"256 0 LINE",
"256 210 LINE",
"410 210 LINE SMOOTH",
"566 210 OFFCURVE",
"650 314 OFFCURVE",
"650 438 CURVE SMOOTH",
"650 563 OFFCURVE",
"566 667 OFFCURVE",
"410 667 CURVE SMOOTH",
"54 667 LINE"
);
},
{
closed = 1;
nodes = (
"384 491 LINE SMOOTH",
"418 491 OFFCURVE",
"445 474 OFFCURVE",
"445 438 CURVE SMOOTH",
"445 403 OFFCURVE",
"418 386 OFFCURVE",
"384 386 CURVE SMOOTH",
"256 386 LINE",
"256 491 LINE"
);
}
);
width = 662;
}
);
leftKerningGroup = exclam;
note = P;
rightKerningGroup = P;
unicode = 0050;
},
{
glyphname = Q;
lastChange = "2017-11-04 18:54:00 +0000";
layers = (
{
layerId = "C74BD54B-DC3B-4084-AB10-E48D432FD11D";
paths = (
{
closed = 1;
nodes = (
"65 211 LINE SMOOTH",
"65 86 OFFCURVE",
"161 -6 OFFCURVE",
"306 -6 CURVE SMOOTH",
"451 -6 OFFCURVE",
"547 86 OFFCURVE",
"547 211 CURVE SMOOTH",
"547 450 LINE SMOOTH",
"547 583 OFFCURVE",
"452 674 OFFCURVE",
"306 674 CURVE SMOOTH",
"160 674 OFFCURVE",
"65 583 OFFCURVE",
"65 450 CURVE SMOOTH"
);
},
{
closed = 1;
nodes = (
"97 567 OFFCURVE",
"177 645 OFFCURVE",
"306 645 CURVE SMOOTH",
"435 645 OFFCURVE",
"515 567 OFFCURVE",
"515 450 CURVE SMOOTH",
"515 211 LINE SMOOTH",
"515 102 OFFCURVE",
"434 24 OFFCURVE",
"306 24 CURVE SMOOTH",
"178 24 OFFCURVE",
"97 102 OFFCURVE",
"97 211 CURVE SMOOTH",
"97 450 LINE SMOOTH"
);
},
{
closed = 1;
nodes = (
"534 -10 LINE",
"557 10 LINE",
"363 204 LINE",
"341 183 LINE"
);
}
);
width = 623;
},
{
layerId = "043C55D1-ADA8-4506-BB55-8127E14D1A36";
paths = (
{
closed = 1;
nodes = (
"18 333 LINE SMOOTH",
"18 128 OFFCURVE",
"177 -12 OFFCURVE",
"383 -12 CURVE SMOOTH",
"589 -12 OFFCURVE",
"748 128 OFFCURVE",
"748 333 CURVE SMOOTH",
"748 333 LINE",
"743 533 OFFCURVE",
"585 678 OFFCURVE",
"383 678 CURVE SMOOTH",
"180 678 OFFCURVE",
"18 534 OFFCURVE",
"18 333 CURVE SMOOTH"
);
},
{
closed = 1;
nodes = (
"223 426 OFFCURVE",
"290 500 OFFCURVE",
"383 500 CURVE SMOOTH",
"477 500 OFFCURVE",
"543 426 OFFCURVE",
"543 333 CURVE",
"543 333 LINE SMOOTH",
"543 240 OFFCURVE",
"480 166 OFFCURVE",
"383 166 CURVE SMOOTH",
"286 166 OFFCURVE",
"223 240 OFFCURVE",
"223 333 CURVE SMOOTH",
"223 333 LINE"
);
},
{
closed = 1;
nodes = (
"610 -24 LINE",
"727 90 LINE",
"457 360 LINE",
"343 245 LINE"
);
}
);
width = 766;
}
);
leftKerningGroup = C;
note = Q;
rightKerningGroup = D;
unicode = 0051;
},
{
glyphname = R;
lastChange = "2017-11-03 18:57:53 +0000";
layers = (
{
layerId = "C74BD54B-DC3B-4084-AB10-E48D432FD11D";
paths = (
{
closed = 1;
nodes = (
"88 0 LINE",
"120 0 LINE",
"120 288 LINE",
"280 288 LINE",
"483 0 LINE",
"524 0 LINE",
"318 288 LINE",
"430 288 OFFCURVE",
"515 361 OFFCURVE",
"515 478 CURVE SMOOTH",
"515 595 OFFCURVE",
"431 667 OFFCURVE",
"318 667 CURVE SMOOTH",
"88 667 LINE"
);
},
{
closed = 1;
nodes = (
"318 637 LINE SMOOTH",
"415 637 OFFCURVE",
"480 571 OFFCURVE",
"480 478 CURVE SMOOTH",
"480 385 OFFCURVE",
"415 318 OFFCURVE",
"318 318 CURVE SMOOTH",
"120 318 LINE",
"120 637 LINE"
);
}
);
width = 579;
},
{
layerId = "043C55D1-ADA8-4506-BB55-8127E14D1A36";
paths = (
{
closed = 1;
nodes = (
"54 0 LINE",
"256 0 LINE",
"256 210 LINE",
"329 210 LINE",
"421 0 LINE",
"651 0 LINE",
"530 236 LINE",
"583 262 OFFCURVE",
"650 323 OFFCURVE",
"650 438 CURVE SMOOTH",
"650 563 OFFCURVE",
"566 667 OFFCURVE",
"410 667 CURVE SMOOTH",
"54 667 LINE"
);
},
{
closed = 1;
nodes = (
"379 491 LINE SMOOTH",
"413 491 OFFCURVE",
"445 475 OFFCURVE",
"445 439 CURVE SMOOTH",
"445 402 OFFCURVE",
"413 386 OFFCURVE",
"379 386 CURVE SMOOTH",
"256 386 LINE",
"256 491 LINE"
);
}
);
width = 678;
}
);
leftKerningGroup = exclam;
note = R;
rightKerningGroup = R;
unicode = 0052;
},
{
glyphname = S;
lastChange = "2017-11-03 19:00:37 +0000";
layers = (
{
layerId = "C74BD54B-DC3B-4084-AB10-E48D432FD11D";
paths = (
{
closed = 1;
nodes = (
"448 647 OFFCURVE",
"376 678 OFFCURVE",
"283 678 CURVE SMOOTH",
"167 678 OFFCURVE",
"74 612 OFFCURVE",
"74 508 CURVE SMOOTH",
"74 274 OFFCURVE",
"479 389 OFFCURVE",
"479 169 CURVE SMOOTH",
"479 71 OFFCURVE",
"400 18 OFFCURVE",
"286 18 CURVE SMOOTH",
"202 18 OFFCURVE",
"133 51 OFFCURVE",
"79 117 CURVE",
"53 94 LINE",
"104 30 OFFCURVE",
"186 -12 OFFCURVE",
"286 -12 CURVE SMOOTH",
"416 -12 OFFCURVE",
"514 51 OFFCURVE",
"514 169 CURVE SMOOTH",
"514 236 OFFCURVE",
"481 285 OFFCURVE",
"434 312 CURVE SMOOTH",
"357 356 OFFCURVE",
"251 375 OFFCURVE",
"190 401 CURVE SMOOTH",
"142 421 OFFCURVE",
"109 457 OFFCURVE",
"109 508 CURVE SMOOTH",
"109 589 OFFCURVE",
"184 648 OFFCURVE",
"283 648 CURVE SMOOTH",
"366 648 OFFCURVE",
"429 619 OFFCURVE",
"474 561 CURVE",
"499 584 LINE"
);
}
);
width = 575;
},
{
layerId = "043C55D1-ADA8-4506-BB55-8127E14D1A36";
paths = (
{
closed = 1;
nodes = (
"509 646 OFFCURVE",
"411 677 OFFCURVE",
"302 677 CURVE SMOOTH",
"119 677 OFFCURVE",
"25 569 OFFCURVE",
"25 456 CURVE SMOOTH",
"25 193 OFFCURVE",
"397 258 OFFCURVE",
"397 194 CURVE SMOOTH",
"397 168 OFFCURVE",
"361 158 OFFCURVE",
"323 158 CURVE SMOOTH",
"233 158 OFFCURVE",
"158 196 OFFCURVE",
"108 244 CURVE",
"3 94 LINE",
"74 30 OFFCURVE",
"171 -12 OFFCURVE",
"313 -12 CURVE SMOOTH",
"492 -12 OFFCURVE",
"601 73 OFFCURVE",
"601 220 CURVE SMOOTH",
"601 274 OFFCURVE",
"583 314 OFFCURVE",
"555 344 CURVE SMOOTH",
"507 395 OFFCURVE",
"430 416 OFFCURVE",
"363 430 CURVE SMOOTH",
"291 445 OFFCURVE",
"230 452 OFFCURVE",
"230 477 CURVE SMOOTH",
"230 494 OFFCURVE",
"241 507 OFFCURVE",
"281 507 CURVE SMOOTH",
"344 507 OFFCURVE",
"419 485 OFFCURVE",
"477 441 CURVE",
"585 584 LINE"
);
}
);
width = 613;
}
);
leftKerningGroup = S;
note = S;
rightKerningGroup = S;
unicode = 0053;
},
{
glyphname = T;
lastChange = "2017-11-03 19:01:09 +0000";
layers = (
{
layerId = "C74BD54B-DC3B-4084-AB10-E48D432FD11D";
paths = (
{
closed = 1;
nodes = (
"38 637 LINE",
"263 637 LINE",
"263 0 LINE",
"295 0 LINE",
"295 637 LINE",
"521 637 LINE",
"521 667 LINE",
"38 667 LINE"
);
}
);
width = 559;
},
{
layerId = "043C55D1-ADA8-4506-BB55-8127E14D1A36";
paths = (
{
closed = 1;
nodes = (
"18 491 LINE",
"197 491 LINE",
"197 0 LINE",
"399 0 LINE",
"399 491 LINE",
"577 491 LINE",
"577 667 LINE",
"18 667 LINE"
);
}
);
width = 595;
}
);
leftKerningGroup = T;
note = T;
rightKerningGroup = T;
unicode = 0054;
},
{
glyphname = U;
lastChange = "2017-11-03 18:53:14 +0000";
layers = (
{
layerId = "C74BD54B-DC3B-4084-AB10-E48D432FD11D";
paths = (
{
closed = 1;
nodes = (
"88 253 LINE SMOOTH",
"88 86 OFFCURVE",
"176 -12 OFFCURVE",
"336 -12 CURVE SMOOTH",
"498 -12 OFFCURVE",
"584 89 OFFCURVE",
"584 253 CURVE SMOOTH",
"584 667 LINE",
"552 667 LINE",
"552 253 LINE SMOOTH",
"552 104 OFFCURVE",
"475 18 OFFCURVE",
"336 18 CURVE SMOOTH",
"197 18 OFFCURVE",
"120 104 OFFCURVE",
"120 253 CURVE SMOOTH",
"120 667 LINE",
"88 667 LINE"
);
}
);
width = 672;
},
{
layerId = "043C55D1-ADA8-4506-BB55-8127E14D1A36";
paths = (
{
closed = 1;
nodes = (
"54 274 LINE SMOOTH",
"54 109 OFFCURVE",
"159 -12 OFFCURVE",
"384 -12 CURVE SMOOTH",
"609 -12 OFFCURVE",
"713 109 OFFCURVE",
"713 275 CURVE SMOOTH",
"713 667 LINE",
"508 667 LINE",
"508 281 LINE SMOOTH",
"508 217 OFFCURVE",
"466 166 OFFCURVE",
"384 166 CURVE SMOOTH",
"301 166 OFFCURVE",
"259 217 OFFCURVE",
"259 281 CURVE SMOOTH",
"259 667 LINE",
"54 667 LINE"
);
}
);
width = 767;
}
);
leftKerningGroup = U;
note = U;
rightKerningGroup = J;
unicode = 0055;
},
{
glyphname = V;
lastChange = "2017-11-03 19:01:22 +0000";
layers = (
{
layerId = "C74BD54B-DC3B-4084-AB10-E48D432FD11D";
paths = (
{
closed = 1;
nodes = (
"299 0 LINE",
"337 0 LINE",
"615 667 LINE",
"578 667 LINE",
"318 37 LINE",
"58 667 LINE",
"21 667 LINE"
);
}
);
width = 636;
},
{
layerId = "043C55D1-ADA8-4506-BB55-8127E14D1A36";
paths = (
{
closed = 1;
nodes = (
"228 0 LINE",
"482 0 LINE",
"728 667 LINE",
"499 667 LINE",
"355 218 LINE",
"211 667 LINE",
"-18 667 LINE"
);
}
);
width = 710;
}
);
leftKerningGroup = V;
note = V;
rightKerningGroup = V;
unicode = 0056;
},
{
glyphname = W;
lastChange = "2017-11-03 19:01:36 +0000";
layers = (
{
layerId = "C74BD54B-DC3B-4084-AB10-E48D432FD11D";
paths = (
{
closed = 1;
nodes = (
"215 0 LINE",
"253 0 LINE",
"426 607 LINE",
"599 0 LINE",
"637 0 LINE",
"827 667 LINE",
"792 667 LINE",
"618 48 LINE",
"443 667 LINE",
"409 667 LINE",
"234 48 LINE",
"60 667 LINE",
"25 667 LINE"
);
}
);
width = 852;
},
{
layerId = "043C55D1-ADA8-4506-BB55-8127E14D1A36";
paths = (
{
closed = 1;
nodes = (
"179 0 LINE",
"391 0 LINE",
"477 378 LINE",
"563 0 LINE",
"775 0 LINE",
"966 667 LINE",
"739 667 LINE",
"654 259 LINE",
"553 667 LINE",
"401 667 LINE",
"300 259 LINE",
"214 667 LINE",
"-12 667 LINE"
);
}
);
width = 954;
}
);
leftKerningGroup = W;
note = W;
rightKerningGroup = W;
unicode = 0057;
},
{
glyphname = X;
lastChange = "2017-11-03 18:54:02 +0000";
layers = (
{
layerId = "C74BD54B-DC3B-4084-AB10-E48D432FD11D";
paths = (
{
closed = 1;
nodes = (
"301 342 LINE",
"25 0 LINE",
"67 0 LINE",
"319 318 LINE",
"571 0 LINE",
"613 0 LINE",
"337 343 LINE",
"598 667 LINE",
"555 667 LINE",
"319 368 LINE",
"83 667 LINE",
"40 667 LINE"
);
}
);
width = 638;
},
{
layerId = "043C55D1-ADA8-4506-BB55-8127E14D1A36";
paths = (
{
closed = 1;
nodes = (
"205 342 LINE",
"-18 0 LINE",
"220 0 LINE",
"342 204 LINE",
"464 0 LINE",
"702 0 LINE",
"479 343 LINE",
"687 667 LINE",
"448 667 LINE",
"342 477 LINE",
"234 667 LINE",
"-3 667 LINE"
);
}
);
width = 684;
}
);
leftKerningGroup = X;
note = X;
rightKerningGroup = X;
unicode = 0058;
},
{
glyphname = Y;
lastChange = "2017-11-03 19:01:54 +0000";
layers = (
{
layerId = "C74BD54B-DC3B-4084-AB10-E48D432FD11D";
paths = (
{
closed = 1;
nodes = (
"289 289 LINE",
"289 0 LINE",
"321 0 LINE",
"321 289 LINE",
"589 667 LINE",
"548 667 LINE",
"305 321 LINE",
"62 667 LINE",
"21 667 LINE"
);
}
);
width = 610;
},
{
layerId = "043C55D1-ADA8-4506-BB55-8127E14D1A36";
paths = (
{
closed = 1;
nodes = (
"232 265 LINE",
"232 0 LINE",
"434 0 LINE",
"434 265 LINE",
"682 667 LINE",
"455 667 LINE",
"333 442 LINE",
"209 667 LINE",
"-18 667 LINE"
);
}
);
width = 664;
}
);
leftKerningGroup = Y;
note = Y;
rightKerningGroup = Y;
unicode = 0059;
},
{
glyphname = Z;
lastChange = "2017-11-03 19:02:10 +0000";
layers = (
{
layerId = "C74BD54B-DC3B-4084-AB10-E48D432FD11D";
paths = (
{
closed = 1;
nodes = (
"53 637 LINE",
"480 637 LINE",
"53 30 LINE",
"53 0 LINE",
"525 0 LINE",
"525 30 LINE",
"90 30 LINE",
"518 637 LINE",
"518 667 LINE",
"53 667 LINE"
);
}
);
width = 578;
},
{
layerId = "043C55D1-ADA8-4506-BB55-8127E14D1A36";
paths = (
{
closed = 1;
nodes = (
"36 491 LINE",
"290 491 LINE",
"36 160 LINE",
"36 0 LINE",
"564 0 LINE",
"564 176 LINE",
"302 176 LINE",
"557 508 LINE",
"557 667 LINE",
"36 667 LINE"
);
}
);
width = 600;
}
);
leftKerningGroup = Z;
note = Z;
rightKerningGroup = Z;
unicode = 005A;
},
{
glyphname = I.001;
lastChange = "2017-11-03 19:16:33 +0000";
layers = (
{
layerId = "C74BD54B-DC3B-4084-AB10-E48D432FD11D";
paths = (
{
closed = 1;
nodes = (
"88 0 LINE",
"120 0 LINE",
"120 667 LINE",
"88 667 LINE"
);
},
{
closed = 1;
nodes = (
"88 722 LINE",
"120 722 LINE",
"120 768 LINE",
"88 768 LINE"
);
}
);
width = 208;
},
{
layerId = "043C55D1-ADA8-4506-BB55-8127E14D1A36";
paths = (
{
closed = 1;
nodes = (
"50 0 LINE",
"256 0 LINE",
"256 327 LINE",
"50 396 LINE"
);
},
{
closed = 1;
nodes = (
"50 463 LINE",
"256 394 LINE",
"256 667 LINE",
"50 667 LINE"
);
}
);
width = 310;
}
);
leftKerningGroup = exclam;
note = I;
},
{
glyphname = a;
lastChange = "2017-11-04 14:13:45 +0000";
layers = (
{
layerId = "C74BD54B-DC3B-4084-AB10-E48D432FD11D";
paths = (
{
closed = 1;
nodes = (
"107 392 LINE",
"149 443 OFFCURVE",
"201 468 OFFCURVE",
"262 468 CURVE SMOOTH",
"339 468 OFFCURVE",
"398 423 OFFCURVE",
"398 348 CURVE SMOOTH",
"398 295 LINE",
"398 279 OFFCURVE",
"299 279 OFFCURVE",
"231 279 CURVE SMOOTH",
"137 279 OFFCURVE",
"62 219 OFFCURVE",
"62 133 CURVE SMOOTH",
"62 34 OFFCURVE",
"140 -12 OFFCURVE",
"231 -12 CURVE SMOOTH",
"299 -12 OFFCURVE",
"355 -5 OFFCURVE",
"398 42 CURVE",
"398 0 LINE",
"428 0 LINE",
"428 349 LINE SMOOTH",
"428 444 OFFCURVE",
"361 495 OFFCURVE",
"262 495 CURVE SMOOTH",
"183 495 OFFCURVE",
"133 469 OFFCURVE",
"84 412 CURVE"
);
},
{
closed = 1;
nodes = (
"152 15 OFFCURVE",
"95 57 OFFCURVE",
"95 133 CURVE SMOOTH",
"95 196 OFFCURVE",
"150 252 OFFCURVE",
"239 252 CURVE SMOOTH",
"286 252 OFFCURVE",
"361 250 OFFCURVE",
"398 264 CURVE",
"398 117 LINE",
"391 37 OFFCURVE",
"308 15 OFFCURVE",
"239 15 CURVE SMOOTH"
);
}
);
width = 514;
},
{
layerId = "043C55D1-ADA8-4506-BB55-8127E14D1A36";
paths = (
{
closed = 1;
nodes = (
"105 311 LINE",
"143 340 OFFCURVE",
"194 358 OFFCURVE",
"239 358 CURVE SMOOTH",
"298 358 OFFCURVE",
"329 344 OFFCURVE",
"329 310 CURVE SMOOTH",
"329 298 LINE",
"286 298 OFFCURVE",
"246 298 OFFCURVE",
"183 298 CURVE SMOOTH",
"111 298 OFFCURVE",
"17 267 OFFCURVE",
"17 147 CURVE SMOOTH",
"17 37 OFFCURVE",
"111 -12 OFFCURVE",
"183 -12 CURVE SMOOTH",
"243 -12 OFFCURVE",
"302 12 OFFCURVE",
"329 46 CURVE",
"329 0 LINE",
"509 0 LINE",
"509 292 LINE SMOOTH",
"509 453 OFFCURVE",
"392 495 OFFCURVE",
"272 495 CURVE SMOOTH",
"199 495 OFFCURVE",
"109 474 OFFCURVE",
"44 422 CURVE"
);
},
{
closed = 1;
nodes = (
"228 105 OFFCURVE",
"195 114 OFFCURVE",
"195 144 CURVE SMOOTH",
"195 174 OFFCURVE",
"228 184 OFFCURVE",
"258 184 CURVE SMOOTH",
"286 184 OFFCURVE",
"292 180 OFFCURVE",
"329 180 CURVE",
"329 145 LINE",
"329 112 OFFCURVE",
"286 105 OFFCURVE",
"258 105 CURVE SMOOTH"
);
}
);
width = 559;
}
);
leftKerningGroup = a;
note = a;
rightKerningGroup = a;
unicode = 0061;
},
{
glyphname = b;
lastChange = "2017-11-04 00:33:44 +0000";
layers = (
{
layerId = "C74BD54B-DC3B-4084-AB10-E48D432FD11D";
paths = (
{
closed = 1;
nodes = (
"116 419 OFFCURVE",
"218 468 OFFCURVE",
"290 468 CURVE SMOOTH",
"405 468 OFFCURVE",
"473 373 OFFCURVE",
"473 241 CURVE SMOOTH",
"473 109 OFFCURVE",
"405 15 OFFCURVE",
"290 15 CURVE SMOOTH",
"218 15 OFFCURVE",
"116 40 OFFCURVE",
"116 190 CURVE",
"116 293 LINE"
);
},
{
closed = 1;
nodes = (
"86 0 LINE",
"116 0 LINE",
"116 77 LINE",
"153 5 OFFCURVE",
"218 -12 OFFCURVE",
"290 -12 CURVE SMOOTH",
"421 -12 OFFCURVE",
"506 88 OFFCURVE",
"506 241 CURVE SMOOTH",
"506 393 OFFCURVE",
"419 495 OFFCURVE",
"290 495 CURVE SMOOTH",
"219 495 OFFCURVE",
"159 466 OFFCURVE",
"116 408 CURVE",
"116 667 LINE",
"86 667 LINE"
);
}
);
width = 566;
},
{
layerId = "043C55D1-ADA8-4506-BB55-8127E14D1A36";
paths = (
{
closed = 1;
nodes = (
"230 322 OFFCURVE",
"281 336 OFFCURVE",
"305 336 CURVE SMOOTH",
"354 336 OFFCURVE",
"395 302 OFFCURVE",
"395 242 CURVE SMOOTH",
"395 181 OFFCURVE",
"354 147 OFFCURVE",
"305 147 CURVE SMOOTH",
"281 147 OFFCURVE",
"230 158 OFFCURVE",
"230 239 CURVE",
"230 239 LINE"
);
},
{
closed = 1;
nodes = (
"50 0 LINE",
"230 0 LINE",
"230 51 LINE",
"271 5 OFFCURVE",
"317 -12 OFFCURVE",
"366 -12 CURVE SMOOTH",
"483 -12 OFFCURVE",
"579 76 OFFCURVE",
"579 242 CURVE SMOOTH",
"579 402 OFFCURVE",
"485 495 OFFCURVE",
"366 495 CURVE SMOOTH",
"317 495 OFFCURVE",
"268 478 OFFCURVE",
"230 432 CURVE",
"230 667 LINE",
"50 667 LINE"
);
}
);
width = 596;
}
);
note = b;
rightKerningGroup = b;
unicode = 0062;
},
{
glyphname = c;
lastChange = "2017-11-04 14:51:29 +0000";
layers = (
{
layerId = "C74BD54B-DC3B-4084-AB10-E48D432FD11D";
paths = (
{
closed = 1;
nodes = (
"363 -12 OFFCURVE",
"409 14 OFFCURVE",
"453 69 CURVE",
"431 88 LINE",
"395 39 OFFCURVE",
"348 15 OFFCURVE",
"290 15 CURVE SMOOTH",
"170 15 OFFCURVE",
"93 111 OFFCURVE",
"93 242 CURVE SMOOTH",
"93 371 OFFCURVE",
"169 468 OFFCURVE",
"290 468 CURVE",
"349 468 OFFCURVE",
"396 444 OFFCURVE",
"431 396 CURVE",
"453 414 LINE",
"409 469 OFFCURVE",
"363 495 OFFCURVE",
"288 495 CURVE SMOOTH",
"152 495 OFFCURVE",
"60 385 OFFCURVE",
"60 242 CURVE SMOOTH",
"60 99 OFFCURVE",
"152 -12 OFFCURVE",
"288 -12 CURVE SMOOTH"
);
}
);
width = 493;
},
{
layerId = "043C55D1-ADA8-4506-BB55-8127E14D1A36";
paths = (
{
closed = 1;
nodes = (
"398 -12 OFFCURVE",
"466 39 OFFCURVE",
"493 79 CURVE",
"377 189 LINE",
"362 167 OFFCURVE",
"334 147 OFFCURVE",
"296 147 CURVE SMOOTH",
"245 147 OFFCURVE",
"201 180 OFFCURVE",
"201 242 CURVE SMOOTH",
"201 304 OFFCURVE",
"245 336 OFFCURVE",
"296 336 CURVE SMOOTH",
"334 336 OFFCURVE",
"362 318 OFFCURVE",
"377 295 CURVE",
"493 404 LINE",
"466 445 OFFCURVE",
"398 495 OFFCURVE",
"288 495 CURVE SMOOTH",
"135 495 OFFCURVE",
"17 395 OFFCURVE",
"17 242 CURVE SMOOTH",
"17 88 OFFCURVE",
"135 -12 OFFCURVE",
"288 -12 CURVE SMOOTH"
);
}
);
width = 502;
}
);
leftKerningGroup = c;
note = c;
rightKerningGroup = c;
unicode = 0063;
},
{
glyphname = d;
lastChange = "2017-11-04 00:35:47 +0000";
layers = (
{
layerId = "C74BD54B-DC3B-4084-AB10-E48D432FD11D";
paths = (
{
closed = 1;
nodes = (
"450 416 LINE",
"397 475 OFFCURVE",
"347 495 OFFCURVE",
"276 495 CURVE SMOOTH",
"147 495 OFFCURVE",
"60 393 OFFCURVE",
"60 241 CURVE SMOOTH",
"60 88 OFFCURVE",
"145 -12 OFFCURVE",
"276 -12 CURVE SMOOTH",
"348 -12 OFFCURVE",
"411 9 OFFCURVE",
"450 67 CURVE",
"450 0 LINE",
"480 0 LINE",
"480 667 LINE",
"450 667 LINE"
);
},
{
closed = 1;
nodes = (
"450 196 LINE",
"450 44 OFFCURVE",
"348 15 OFFCURVE",
"276 15 CURVE SMOOTH",
"161 15 OFFCURVE",
"93 109 OFFCURVE",
"93 241 CURVE SMOOTH",
"93 373 OFFCURVE",
"161 468 OFFCURVE",
"276 468 CURVE SMOOTH",
"348 468 OFFCURVE",
"450 416 OFFCURVE",
"450 310 CURVE"
);
}
);
width = 566;
},
{
layerId = "043C55D1-ADA8-4506-BB55-8127E14D1A36";
paths = (
{
closed = 1;
nodes = (
"366 432 LINE",
"328 478 OFFCURVE",
"279 495 OFFCURVE",
"230 495 CURVE SMOOTH",
"111 495 OFFCURVE",
"17 402 OFFCURVE",
"17 242 CURVE SMOOTH",
"17 76 OFFCURVE",
"113 -12 OFFCURVE",
"230 -12 CURVE SMOOTH",
"279 -12 OFFCURVE",
"325 5 OFFCURVE",
"366 51 CURVE",
"366 0 LINE",
"546 0 LINE",
"546 667 LINE",
"366 667 LINE"
);
},
{
closed = 1;
nodes = (
"366 239 LINE",
"366 158 OFFCURVE",
"315 147 OFFCURVE",
"291 147 CURVE SMOOTH",
"242 147 OFFCURVE",
"201 181 OFFCURVE",
"201 242 CURVE SMOOTH",
"201 302 OFFCURVE",
"242 336 OFFCURVE",
"291 336 CURVE SMOOTH",
"315 336 OFFCURVE",
"366 322 OFFCURVE",
"366 239 CURVE"
);
}
);
width = 596;
}
);
leftKerningGroup = c;
note = d;
unicode = 0064;
},
{
glyphname = e;
lastChange = "2017-11-04 13:40:11 +0000";
layers = (
{
layerId = "C74BD54B-DC3B-4084-AB10-E48D432FD11D";
paths = (
{
closed = 1;
nodes = (
"415 42 OFFCURVE",
"364 20 OFFCURVE",
"297 20 CURVE SMOOTH",
"177 20 OFFCURVE",
"97 109 OFFCURVE",
"94 232 CURVE",
"511 232 LINE",
"511 242 LINE SMOOTH",
"511 385 OFFCURVE",
"428 495 OFFCURVE",
"287 495 CURVE SMOOTH",
"158 495 OFFCURVE",
"60 388 OFFCURVE",
"60 242 CURVE SMOOTH",
"60 94 OFFCURVE",
"157 -12 OFFCURVE",
"297 -12 CURVE SMOOTH",
"369 -12 OFFCURVE",
"431 15 OFFCURVE",
"483 69 CURVE",
"460 91 LINE"
);
},
{
closed = 1;
nodes = (
"94 264 LINE",
"98 363 OFFCURVE",
"170 468 OFFCURVE",
"286 468 CURVE SMOOTH",
"401 468 OFFCURVE",
"479 378 OFFCURVE",
"479 264 CURVE"
);
}
);
width = 571;
},
{
layerId = "043C55D1-ADA8-4506-BB55-8127E14D1A36";
paths = (
{
closed = 1;
nodes = (
"394 138 OFFCURVE",
"334 125 OFFCURVE",
"307 125 CURVE SMOOTH",
"248 125 OFFCURVE",
"213 155 OFFCURVE",
"203 186 CURVE",
"531 186 LINE",
"531 223 LINE SMOOTH",
"531 393 OFFCURVE",
"422 495 OFFCURVE",
"280 495 CURVE SMOOTH",
"124 495 OFFCURVE",
"17 382 OFFCURVE",
"17 242 CURVE SMOOTH",
"17 83 OFFCURVE",
"135 -12 OFFCURVE",
"286 -12 CURVE SMOOTH",
"358 -12 OFFCURVE",
"444 7 OFFCURVE",
"492 48 CURVE",
"418 159 LINE"
);
},
{
closed = 1;
nodes = (
"201 300 LINE",
"207 322 OFFCURVE",
"225 358 OFFCURVE",
"280 358 CURVE SMOOTH",
"338 358 OFFCURVE",
"355 321 OFFCURVE",
"360 300 CURVE"
);
}
);
width = 543;
}
);
leftKerningGroup = c;
note = e;
rightKerningGroup = e;
unicode = 0065;
},
{
glyphname = f;
lastChange = "2017-11-03 18:42:10 +0000";
layers = (
{
layerId = "C74BD54B-DC3B-4084-AB10-E48D432FD11D";
paths = (
{
closed = 1;
nodes = (
"20 483 LINE",
"20 456 LINE",
"100 456 LINE",
"100 0 LINE",
"130 0 LINE",
"130 456 LINE",
"228 456 LINE",
"228 483 LINE",
"130 483 LINE",
"130 534 LINE SMOOTH",
"130 611 OFFCURVE",
"160 650 OFFCURVE",
"221 650 CURVE SMOOTH",
"244 650 OFFCURVE",
"233 650 OFFCURVE",
"246 650 CURVE",
"246 677 LINE",
"224 677 OFFCURVE",
"251 677 OFFCURVE",
"221 677 CURVE SMOOTH",
"145 677 OFFCURVE",
"100 623 OFFCURVE",
"100 534 CURVE SMOOTH",
"100 483 LINE"
);
}
);
width = 246;
},
{
layerId = "043C55D1-ADA8-4506-BB55-8127E14D1A36";
paths = (
{
closed = 1;
nodes = (
"7 483 LINE",
"7 327 LINE",
"87 327 LINE",
"87 0 LINE",
"267 0 LINE",
"267 327 LINE",
"365 327 LINE",
"365 483 LINE",
"267 483 LINE",
"267 505 LINE SMOOTH",
"267 529 OFFCURVE",
"290 544 OFFCURVE",
"312 544 CURVE SMOOTH",
"333 544 OFFCURVE",
"336 544 OFFCURVE",
"367 544 CURVE",
"367 677 LINE",
"326 677 OFFCURVE",
"327 677 OFFCURVE",
"271 677 CURVE SMOOTH",
"164 677 OFFCURVE",
"87 606 OFFCURVE",
"87 505 CURVE SMOOTH",
"87 483 LINE"
);
}
);
width = 371;
}
);
leftKerningGroup = f;
note = f;
rightKerningGroup = f;
unicode = 0066;
},
{
glyphname = g;
lastChange = "2017-11-04 00:36:41 +0000";
layers = (
{
layerId = "C74BD54B-DC3B-4084-AB10-E48D432FD11D";
paths = (
{
closed = 1;
nodes = (
"400 -196 OFFCURVE",
"480 -135 OFFCURVE",
"480 -3 CURVE SMOOTH",
"480 483 LINE",
"450 483 LINE",
"450 420 LINE",
"408 488 OFFCURVE",
"347 495 OFFCURVE",
"276 495 CURVE SMOOTH",
"147 495 OFFCURVE",
"60 392 OFFCURVE",
"60 240 CURVE SMOOTH",
"60 87 OFFCURVE",
"145 -14 OFFCURVE",
"276 -14 CURVE SMOOTH",
"348 -14 OFFCURVE",
"419 7 OFFCURVE",
"450 74 CURVE",
"450 -3 LINE SMOOTH",
"450 -114 OFFCURVE",
"379 -169 OFFCURVE",
"276 -169 CURVE SMOOTH",
"200 -169 OFFCURVE",
"154 -150 OFFCURVE",
"113 -98 CURVE",
"91 -123 LINE",
"146 -180 OFFCURVE",
"192 -196 OFFCURVE",
"276 -196 CURVE SMOOTH"
);
},
{
closed = 1;
nodes = (
"161 13 OFFCURVE",
"93 108 OFFCURVE",
"93 240 CURVE SMOOTH",
"93 372 OFFCURVE",
"161 468 OFFCURVE",
"276 468 CURVE SMOOTH",
"348 468 OFFCURVE",
"450 433 OFFCURVE",
"450 316 CURVE",
"450 198 LINE",
"450 48 OFFCURVE",
"348 13 OFFCURVE",
"276 13 CURVE SMOOTH"
);
}
);
width = 566;
},
{
layerId = "043C55D1-ADA8-4506-BB55-8127E14D1A36";
paths = (
{
closed = 1;
nodes = (
"373 -196 OFFCURVE",
"545 -157 OFFCURVE",
"545 52 CURVE SMOOTH",
"545 483 LINE",
"365 483 LINE",
"365 432 LINE",
"326 478 OFFCURVE",
"279 495 OFFCURVE",
"229 495 CURVE SMOOTH",
"110 495 OFFCURVE",
"17 415 OFFCURVE",
"17 254 CURVE SMOOTH",
"17 89 OFFCURVE",
"113 13 OFFCURVE",
"229 13 CURVE SMOOTH",
"279 13 OFFCURVE",
"324 31 OFFCURVE",
"365 78 CURVE",
"365 52 LINE SMOOTH",
"365 -33 OFFCURVE",
"295 -49 OFFCURVE",
"253 -49 CURVE SMOOTH",
"201 -49 OFFCURVE",
"146 -33 OFFCURVE",
"109 4 CURVE",
"33 -124 LINE",
"96 -174 OFFCURVE",
"170 -196 OFFCURVE",
"253 -196 CURVE SMOOTH"
);
},
{
closed = 1;
nodes = (
"242 172 OFFCURVE",
"201 195 OFFCURVE",
"201 254 CURVE SMOOTH",
"201 313 OFFCURVE",
"242 336 OFFCURVE",
"291 336 CURVE SMOOTH",
"314 336 OFFCURVE",
"365 323 OFFCURVE",
"365 249 CURVE",
"365 249 LINE",
"365 186 OFFCURVE",
"314 172 OFFCURVE",
"291 172 CURVE SMOOTH"
);
}
);
width = 595;
}
);
leftKerningGroup = c;
note = g;
rightKerningGroup = g;
unicode = 0067;
},
{
glyphname = h;
lastChange = "2017-11-03 21:24:46 +0000";
layers = (
{
layerId = "C74BD54B-DC3B-4084-AB10-E48D432FD11D";
paths = (
{
closed = 1;
nodes = (
"86 0 LINE",
"116 0 LINE",
"116 339 LINE",
"116 416 OFFCURVE",
"223 468 OFFCURVE",
"287 468 CURVE SMOOTH",
"368 468 OFFCURVE",
"412 435 OFFCURVE",
"412 339 CURVE SMOOTH",
"412 0 LINE",
"442 0 LINE",
"442 339 LINE SMOOTH",
"442 450 OFFCURVE",
"391 495 OFFCURVE",
"291 495 CURVE SMOOTH",
"227 495 OFFCURVE",
"143 465 OFFCURVE",
"116 404 CURVE",
"116 667 LINE",
"86 667 LINE"
);
}
);
width = 528;
},
{
layerId = "043C55D1-ADA8-4506-BB55-8127E14D1A36";
paths = (
{
closed = 1;
nodes = (
"51 0 LINE",
"231 0 LINE",
"231 269 LINE",
"231 307 OFFCURVE",
"267 336 OFFCURVE",
"308 336 CURVE SMOOTH",
"351 336 OFFCURVE",
"378 319 OFFCURVE",
"378 269 CURVE SMOOTH",
"378 0 LINE",
"558 0 LINE",
"558 345 LINE SMOOTH",
"558 429 OFFCURVE",
"509 495 OFFCURVE",
"397 495 CURVE SMOOTH",
"312 495 OFFCURVE",
"259 460 OFFCURVE",
"231 428 CURVE",
"231 667 LINE",
"51 667 LINE"
);
}
);
width = 608;
}
);
note = h;
rightKerningGroup = a;
unicode = 0068;
},
{
glyphname = i;
lastChange = "2017-11-04 01:22:52 +0000";
layers = (
{
layerId = "C74BD54B-DC3B-4084-AB10-E48D432FD11D";
paths = (
{
closed = 1;
nodes = (
"86 0 LINE",
"116 0 LINE",
"116 483 LINE",
"86 483 LINE"
);
},
{
closed = 1;
nodes = (
"86 580 LINE",
"116 580 LINE",
"116 638 LINE",
"86 638 LINE"
);
}
);
width = 202;
},
{
layerId = "043C55D1-ADA8-4506-BB55-8127E14D1A36";
paths = (
{
closed = 1;
nodes = (
"50 0 LINE",
"230 0 LINE",
"230 483 LINE",
"50 483 LINE"
);
},
{
closed = 1;
nodes = (
"50 542 LINE",
"230 542 LINE",
"230 720 LINE",
"50 720 LINE"
);
}
);
width = 280;
}
);
note = i;
unicode = 0069;
},
{
glyphname = j;
lastChange = "2017-11-04 01:22:40 +0000";
layers = (
{
guideLines = (
{
angle = 90;
position = "{86, 483}";
}
);
layerId = "C74BD54B-DC3B-4084-AB10-E48D432FD11D";
paths = (
{
closed = 1;
nodes = (
"76 -196 OFFCURVE",
"116 -156 OFFCURVE",
"116 -76 CURVE SMOOTH",
"116 483 LINE",
"86 483 LINE",
"86 -76 LINE SMOOTH",
"86 -139 OFFCURVE",
"50 -169 OFFCURVE",
"-3 -169 CURVE SMOOTH",
"-30 -169 OFFCURVE",
"-55 -157 OFFCURVE",
"-76 -133 CURVE",
"-95 -158 LINE",
"-68 -183 OFFCURVE",
"-37 -196 OFFCURVE",
"-3 -196 CURVE SMOOTH"
);
},
{
closed = 1;
nodes = (
"86 580 LINE",
"116 580 LINE",
"116 638 LINE",
"86 638 LINE"
);
}
);
width = 202;
},
{
layerId = "043C55D1-ADA8-4506-BB55-8127E14D1A36";
paths = (
{
closed = 1;
nodes = (
"169 -196 OFFCURVE",
"230 -103 OFFCURVE",
"230 21 CURVE SMOOTH",
"230 483 LINE",
"50 483 LINE",
"50 21 LINE SMOOTH",
"50 -25 OFFCURVE",
"30 -49 OFFCURVE",
"-3 -49 CURVE SMOOTH",
"-31 -49 OFFCURVE",
"-43 -45 OFFCURVE",
"-63 -30 CURVE",
"-106 -163 LINE",
"-67 -187 OFFCURVE",
"-44 -196 OFFCURVE",
"29 -196 CURVE SMOOTH"
);
},
{
closed = 1;
nodes = (
"50 542 LINE",
"230 542 LINE",
"230 720 LINE",
"50 720 LINE"
);
}
);
width = 280;
}
);
leftKerningGroup = j;
note = j;
rightKerningGroup = g;
unicode = 006A;
},
{
glyphname = k;
lastChange = "2017-11-03 20:44:11 +0000";
layers = (
{
layerId = "C74BD54B-DC3B-4084-AB10-E48D432FD11D";
paths = (
{
closed = 1;
nodes = (
"86 0 LINE",
"116 0 LINE",
"116 151 LINE",
"216 243 LINE",
"428 0 LINE",
"471 0 LINE",
"239 265 LINE",
"474 483 LINE",
"431 483 LINE",
"116 189 LINE",
"116 667 LINE",
"86 667 LINE"
);
}
);
width = 496;
},
{
layerId = "043C55D1-ADA8-4506-BB55-8127E14D1A36";
paths = (
{
closed = 1;
nodes = (
"50 0 LINE",
"230 0 LINE",
"230 109 LINE",
"265 156 LINE",
"348 0 LINE",
"569 0 LINE",
"392 263 LINE",
"558 483 LINE",
"341 483 LINE",
"230 311 LINE",
"230 667 LINE",
"50 667 LINE"
);
}
);
width = 557;
}
);
note = k;
rightKerningGroup = k;
unicode = 006B;
},
{
glyphname = l;
lastChange = "2017-11-03 20:37:11 +0000";
layers = (
{
layerId = "C74BD54B-DC3B-4084-AB10-E48D432FD11D";
paths = (
{
closed = 1;
nodes = (
"60 85 LINE SMOOTH",
"60 20 OFFCURVE",
"87 -12 OFFCURVE",
"142 -12 CURVE SMOOTH",
"186 -12 LINE",
"186 15 LINE",
"142 15 LINE SMOOTH",
"107 15 OFFCURVE",
"90 38 OFFCURVE",
"90 85 CURVE SMOOTH",
"90 667 LINE",
"60 667 LINE"
);
}
);
width = 226;
},
{
layerId = "043C55D1-ADA8-4506-BB55-8127E14D1A36";
paths = (
{
closed = 1;
nodes = (
"40 140 LINE SMOOTH",
"40 39 OFFCURVE",
"99 -12 OFFCURVE",
"206 -12 CURVE SMOOTH",
"318 -12 LINE",
"318 147 LINE",
"260 147 LINE SMOOTH",
"236 147 OFFCURVE",
"220 167 OFFCURVE",
"220 192 CURVE SMOOTH",
"220 667 LINE",
"40 667 LINE"
);
}
);
width = 358;
}
);
note = l;
unicode = 006C;
},
{
glyphname = m;
lastChange = "2017-11-03 21:31:21 +0000";
layers = (
{
layerId = "C74BD54B-DC3B-4084-AB10-E48D432FD11D";
paths = (
{
closed = 1;
nodes = (
"86 0 LINE",
"116 0 LINE",
"116 348 LINE",
"116 428 OFFCURVE",
"213 468 OFFCURVE",
"266 468 CURVE SMOOTH",
"335 468 OFFCURVE",
"370 428 OFFCURVE",
"370 348 CURVE SMOOTH",
"370 0 LINE",
"400 0 LINE",
"400 348 LINE",
"400 428 OFFCURVE",
"497 468 OFFCURVE",
"550 468 CURVE SMOOTH",
"619 468 OFFCURVE",
"654 428 OFFCURVE",
"654 348 CURVE SMOOTH",
"654 0 LINE",
"684 0 LINE",
"684 348 LINE SMOOTH",
"684 446 OFFCURVE",
"636 495 OFFCURVE",
"550 495 CURVE SMOOTH",
"486 495 OFFCURVE",
"417 462 OFFCURVE",
"396 410 CURVE",
"379 458 OFFCURVE",
"337 495 OFFCURVE",
"266 495 CURVE SMOOTH",
"203 495 OFFCURVE",
"147 462 OFFCURVE",
"116 422 CURVE",
"116 483 LINE",
"86 483 LINE"
);
}
);
width = 770;
},
{
layerId = "043C55D1-ADA8-4506-BB55-8127E14D1A36";
paths = (
{
closed = 1;
nodes = (
"50 0 LINE",
"230 0 LINE",
"230 282 LINE",
"230 311 OFFCURVE",
"264 336 OFFCURVE",
"303 336 CURVE SMOOTH",
"344 336 OFFCURVE",
"358 311 OFFCURVE",
"358 282 CURVE SMOOTH",
"358 0 LINE",
"538 0 LINE",
"538 282 LINE",
"538 311 OFFCURVE",
"572 336 OFFCURVE",
"612 336 CURVE SMOOTH",
"652 336 OFFCURVE",
"667 311 OFFCURVE",
"667 282 CURVE SMOOTH",
"667 0 LINE",
"847 0 LINE",
"847 350 LINE SMOOTH",
"847 450 OFFCURVE",
"787 495 OFFCURVE",
"698 495 CURVE SMOOTH",
"620 495 OFFCURVE",
"563 466 OFFCURVE",
"529 424 CURVE",
"502 476 OFFCURVE",
"458 495 OFFCURVE",
"390 495 CURVE SMOOTH",
"312 495 OFFCURVE",
"251 473 OFFCURVE",
"230 446 CURVE",
"230 483 LINE",
"50 483 LINE"
);
}
);
width = 897;
}
);
leftKerningGroup = m;
note = m;
rightKerningGroup = a;
unicode = 006D;
},
{
glyphname = n;
lastChange = "2017-11-03 22:01:36 +0000";
layers = (
{
layerId = "C74BD54B-DC3B-4084-AB10-E48D432FD11D";
paths = (
{
closed = 1;
nodes = (
"86 0 LINE",
"116 0 LINE",
"116 333 LINE",
"116 436 OFFCURVE",
"223 468 OFFCURVE",
"287 468 CURVE SMOOTH",
"368 468 OFFCURVE",
"412 433 OFFCURVE",
"412 337 CURVE SMOOTH",
"412 0 LINE",
"442 0 LINE",
"442 337 LINE SMOOTH",
"442 448 OFFCURVE",
"391 495 OFFCURVE",
"291 495 CURVE SMOOTH",
"227 495 OFFCURVE",
"151 480 OFFCURVE",
"116 419 CURVE",
"116 483 LINE",
"86 483 LINE"
);
}
);
width = 528;
},
{
layerId = "043C55D1-ADA8-4506-BB55-8127E14D1A36";
paths = (
{
closed = 1;
nodes = (
"50 0 LINE",
"230 0 LINE",
"230 267 LINE",
"230 306 OFFCURVE",
"266 336 OFFCURVE",
"307 336 CURVE SMOOTH",
"350 336 OFFCURVE",
"377 317 OFFCURVE",
"377 267 CURVE SMOOTH",
"377 0 LINE",
"557 0 LINE",
"557 343 LINE SMOOTH",
"557 427 OFFCURVE",
"508 495 OFFCURVE",
"396 495 CURVE SMOOTH",
"311 495 OFFCURVE",
"258 460 OFFCURVE",
"230 428 CURVE",
"230 483 LINE",
"50 483 LINE"
);
}
);
width = 607;
}
);
leftKerningGroup = m;
note = n;
rightKerningGroup = a;
unicode = 006E;
},
{
glyphname = o;
lastChange = "2017-11-02 22:26:27 +0000";
layers = (
{
layerId = "C74BD54B-DC3B-4084-AB10-E48D432FD11D";
paths = (
{
closed = 1;
nodes = (
"420 -12 OFFCURVE",
"510 97 OFFCURVE",
"510 242 CURVE SMOOTH",
"510 387 OFFCURVE",
"420 495 OFFCURVE",
"285 495 CURVE SMOOTH",
"152 495 OFFCURVE",
"60 386 OFFCURVE",
"60 242 CURVE SMOOTH",
"60 97 OFFCURVE",
"152 -12 OFFCURVE",
"285 -12 CURVE SMOOTH"
);
},
{
closed = 1;
nodes = (
"168 15 OFFCURVE",
"93 117 OFFCURVE",
"93 242 CURVE SMOOTH",
"93 366 OFFCURVE",
"168 468 OFFCURVE",
"285 468 CURVE SMOOTH",
"404 468 OFFCURVE",
"477 366 OFFCURVE",
"477 242 CURVE SMOOTH",
"477 117 OFFCURVE",
"404 15 OFFCURVE",
"285 15 CURVE SMOOTH"
);
}
);
width = 570;
},
{
layerId = "043C55D1-ADA8-4506-BB55-8127E14D1A36";
paths = (
{
closed = 1;
nodes = (
"460 -12 OFFCURVE",
"560 107 OFFCURVE",
"560 242 CURVE SMOOTH",
"560 377 OFFCURVE",
"460 495 OFFCURVE",
"288 495 CURVE SMOOTH",
"117 495 OFFCURVE",
"17 377 OFFCURVE",
"17 242 CURVE SMOOTH",
"17 107 OFFCURVE",
"117 -12 OFFCURVE",
"288 -12 CURVE SMOOTH"
);
},
{
closed = 1;
nodes = (
"233 147 OFFCURVE",
"202 188 OFFCURVE",
"202 242 CURVE SMOOTH",
"202 295 OFFCURVE",
"233 336 OFFCURVE",
"288 336 CURVE SMOOTH",
"344 336 OFFCURVE",
"375 295 OFFCURVE",
"375 242 CURVE SMOOTH",
"375 188 OFFCURVE",
"344 147 OFFCURVE",
"288 147 CURVE SMOOTH"
);
}
);
width = 577;
}
);
leftKerningGroup = c;
note = o;
rightKerningGroup = b;
unicode = 006F;
},
{
glyphname = oe;
lastChange = "2017-11-04 19:14:35 +0000";
layers = (
{
layerId = "C74BD54B-DC3B-4084-AB10-E48D432FD11D";
paths = (
{
closed = 1;
nodes = (
"658 667 LINE",
"1225 -131 LINE",
"1558 195 LINE",
"1225 667 LINE"
);
},
{
closed = 1;
nodes = (
"65 667 LINE",
"538 0 LINE",
"825 269 LINE",
"538 667 LINE"
);
}
);
width = 1624;
},
{
layerId = "043C55D1-ADA8-4506-BB55-8127E14D1A36";
paths = (
{
closed = 1;
nodes = (
"658 667 LINE",
"1225 -131 LINE",
"1558 195 LINE",
"1225 667 LINE"
);
},
{
closed = 1;
nodes = (
"65 667 LINE",
"538 0 LINE",
"825 269 LINE",
"538 667 LINE"
);
}
);
width = 1624;
}
);
unicode = 0153;
},
{
glyphname = p;
lastChange = "2017-11-04 00:37:59 +0000";
layers = (
{
layerId = "C74BD54B-DC3B-4084-AB10-E48D432FD11D";
paths = (
{
closed = 1;
nodes = (
"419 -12 OFFCURVE",
"506 90 OFFCURVE",
"506 242 CURVE SMOOTH",
"506 395 OFFCURVE",
"421 495 OFFCURVE",
"290 495 CURVE SMOOTH",
"218 495 OFFCURVE",
"151 455 OFFCURVE",
"116 402 CURVE",
"116 483 LINE",
"86 483 LINE",
"86 -184 LINE",
"116 -184 LINE",
"116 83 LINE",
"151 15 OFFCURVE",
"219 -12 OFFCURVE",
"290 -12 CURVE SMOOTH"
);
},
{
closed = 1;
nodes = (
"218 15 OFFCURVE",
"116 51 OFFCURVE",
"116 182 CURVE",
"116 311 LINE",
"116 398 OFFCURVE",
"218 468 OFFCURVE",
"290 468 CURVE SMOOTH",
"405 468 OFFCURVE",
"473 374 OFFCURVE",
"473 242 CURVE SMOOTH",
"473 110 OFFCURVE",
"405 15 OFFCURVE",
"290 15 CURVE SMOOTH"
);
}
);
width = 562;
},
{
layerId = "043C55D1-ADA8-4506-BB55-8127E14D1A36";
paths = (
{
closed = 1;
nodes = (
"486 -12 OFFCURVE",
"578 76 OFFCURVE",
"578 242 CURVE SMOOTH",
"578 407 OFFCURVE",
"486 495 OFFCURVE",
"366 495 CURVE SMOOTH",
"316 495 OFFCURVE",
"269 478 OFFCURVE",
"230 432 CURVE",
"230 483 LINE",
"50 483 LINE",
"50 -184 LINE",
"230 -184 LINE",
"230 51 LINE",
"270 5 OFFCURVE",
"316 -12 OFFCURVE",
"366 -12 CURVE SMOOTH"
);
},
{
closed = 1;
nodes = (
"281 147 OFFCURVE",
"230 168 OFFCURVE",
"230 246 CURVE",
"230 246 LINE",
"230 315 OFFCURVE",
"281 336 OFFCURVE",
"304 336 CURVE SMOOTH",
"352 336 OFFCURVE",
"394 302 OFFCURVE",
"394 242 CURVE SMOOTH",
"394 181 OFFCURVE",
"352 147 OFFCURVE",
"304 147 CURVE SMOOTH"
);
}
);
width = 595;
}
);
leftKerningGroup = m;
note = p;
rightKerningGroup = b;
unicode = 0070;
},
{
glyphname = q;
lastChange = "2017-11-04 00:39:56 +0000";
layers = (
{
layerId = "C74BD54B-DC3B-4084-AB10-E48D432FD11D";
paths = (
{
closed = 1;
nodes = (
"343 -12 OFFCURVE",
"411 15 OFFCURVE",
"446 83 CURVE",
"446 -184 LINE",
"476 -184 LINE",
"476 483 LINE",
"446 483 LINE",
"446 402 LINE",
"417 465 OFFCURVE",
"344 495 OFFCURVE",
"272 495 CURVE SMOOTH",
"141 495 OFFCURVE",
"56 395 OFFCURVE",
"56 242 CURVE SMOOTH",
"56 90 OFFCURVE",
"143 -12 OFFCURVE",
"272 -12 CURVE SMOOTH"
);
},
{
closed = 1;
nodes = (
"157 15 OFFCURVE",
"89 110 OFFCURVE",
"89 242 CURVE SMOOTH",
"89 374 OFFCURVE",
"157 468 OFFCURVE",
"272 468 CURVE SMOOTH",
"344 468 OFFCURVE",
"446 407 OFFCURVE",
"446 328 CURVE",
"446 171 LINE",
"446 69 OFFCURVE",
"344 15 OFFCURVE",
"272 15 CURVE SMOOTH"
);
}
);
width = 562;
},
{
layerId = "043C55D1-ADA8-4506-BB55-8127E14D1A36";
paths = (
{
closed = 1;
nodes = (
"279 -12 OFFCURVE",
"325 5 OFFCURVE",
"365 51 CURVE",
"365 -184 LINE",
"545 -184 LINE",
"545 483 LINE",
"365 483 LINE",
"365 432 LINE",
"326 478 OFFCURVE",
"279 495 OFFCURVE",
"229 495 CURVE SMOOTH",
"109 495 OFFCURVE",
"17 407 OFFCURVE",
"17 242 CURVE SMOOTH",
"17 76 OFFCURVE",
"109 -12 OFFCURVE",
"229 -12 CURVE SMOOTH"
);
},
{
closed = 1;
nodes = (
"243 147 OFFCURVE",
"201 181 OFFCURVE",
"201 242 CURVE SMOOTH",
"201 302 OFFCURVE",
"243 336 OFFCURVE",
"291 336 CURVE SMOOTH",
"314 336 OFFCURVE",
"365 315 OFFCURVE",
"365 246 CURVE",
"365 246 LINE",
"365 168 OFFCURVE",
"314 147 OFFCURVE",
"291 147 CURVE SMOOTH"
);
}
);
width = 595;
}
);
leftKerningGroup = c;
note = q;
rightKerningGroup = g;
unicode = 0071;
},
{
glyphname = r;
lastChange = "2017-11-03 21:37:16 +0000";
layers = (
{
layerId = "C74BD54B-DC3B-4084-AB10-E48D432FD11D";
paths = (
{
closed = 1;
nodes = (
"86 0 LINE",
"116 0 LINE",
"116 362 LINE",
"116 409 OFFCURVE",
"209 457 OFFCURVE",
"258 457 CURVE SMOOTH",
"268 457 OFFCURVE",
"276 457 OFFCURVE",
"282 456 CURVE",
"282 492 LINE",
"220 492 OFFCURVE",
"157 474 OFFCURVE",
"116 418 CURVE",
"116 483 LINE",
"86 483 LINE"
);
}
);
width = 304;
},
{
layerId = "043C55D1-ADA8-4506-BB55-8127E14D1A36";
paths = (
{
closed = 1;
nodes = (
"50 0 LINE",
"230 0 LINE",
"230 278 LINE",
"230 317 OFFCURVE",
"299 330 OFFCURVE",
"337 330 CURVE SMOOTH",
"354 330 OFFCURVE",
"369 328 OFFCURVE",
"378 325 CURVE",
"378 497 LINE",
"323 497 OFFCURVE",
"260 465 OFFCURVE",
"230 430 CURVE",
"230 483 LINE",
"50 483 LINE"
);
}
);
width = 390;
}
);
leftKerningGroup = m;
note = r;
rightKerningGroup = r;
unicode = 0072;
},
{
glyphname = s;
lastChange = "2017-11-03 20:45:41 +0000";
layers = (
{
layerId = "C74BD54B-DC3B-4084-AB10-E48D432FD11D";
paths = (
{
closed = 1;
nodes = (
"346 471 OFFCURVE",
"291 495 OFFCURVE",
"218 495 CURVE SMOOTH",
"117 495 OFFCURVE",
"54 440 OFFCURVE",
"54 367 CURVE SMOOTH",
"54 199 OFFCURVE",
"364 276 OFFCURVE",
"364 127 CURVE SMOOTH",
"364 62 OFFCURVE",
"308 15 OFFCURVE",
"221 15 CURVE SMOOTH",
"155 15 OFFCURVE",
"104 39 OFFCURVE",
"68 87 CURVE",
"44 65 LINE",
"89 14 OFFCURVE",
"148 -12 OFFCURVE",
"221 -12 CURVE SMOOTH",
"333 -12 OFFCURVE",
"394 47 OFFCURVE",
"394 127 CURVE SMOOTH",
"394 300 OFFCURVE",
"84 224 OFFCURVE",
"84 367 CURVE SMOOTH",
"84 426 OFFCURVE",
"135 468 OFFCURVE",
"218 468 CURVE SMOOTH",
"283 468 OFFCURVE",
"331 446 OFFCURVE",
"362 402 CURVE",
"384 422 LINE"
);
}
);
width = 454;
},
{
layerId = "043C55D1-ADA8-4506-BB55-8127E14D1A36";
paths = (
{
closed = 1;
nodes = (
"398 470 OFFCURVE",
"326 495 OFFCURVE",
"245 495 CURVE SMOOTH",
"105 495 OFFCURVE",
"29 419 OFFCURVE",
"29 332 CURVE SMOOTH",
"29 130 OFFCURVE",
"303 189 OFFCURVE",
"303 143 CURVE SMOOTH",
"303 131 OFFCURVE",
"292 122 OFFCURVE",
"255 122 CURVE SMOOTH",
"201 122 OFFCURVE",
"119 153 OFFCURVE",
"81 183 CURVE",
"9 62 LINE",
"61 19 OFFCURVE",
"157 -12 OFFCURVE",
"246 -12 CURVE SMOOTH",
"389 -12 OFFCURVE",
"475 58 OFFCURVE",
"475 154 CURVE SMOOTH",
"475 355 OFFCURVE",
"201 305 OFFCURVE",
"201 345 CURVE SMOOTH",
"201 358 OFFCURVE",
"220 366 OFFCURVE",
"246 366 CURVE SMOOTH",
"302 366 OFFCURVE",
"358 341 OFFCURVE",
"388 316 CURVE",
"454 433 LINE"
);
}
);
width = 490;
}
);
leftKerningGroup = s;
note = s;
rightKerningGroup = s;
unicode = 0073;
},
{
glyphname = t;
lastChange = "2017-11-03 18:45:11 +0000";
layers = (
{
layerId = "C74BD54B-DC3B-4084-AB10-E48D432FD11D";
paths = (
{
closed = 1;
nodes = (
"12 483 LINE",
"12 456 LINE",
"92 456 LINE",
"92 85 LINE SMOOTH",
"92 20 OFFCURVE",
"119 -12 OFFCURVE",
"174 -12 CURVE SMOOTH",
"203 -12 OFFCURVE",
"195 -12 OFFCURVE",
"218 -12 CURVE",
"218 15 LINE",
"197 15 OFFCURVE",
"197 15 OFFCURVE",
"174 15 CURVE SMOOTH",
"139 15 OFFCURVE",
"122 38 OFFCURVE",
"122 85 CURVE SMOOTH",
"122 456 LINE",
"220 456 LINE",
"220 483 LINE",
"122 483 LINE",
"122 615 LINE",
"92 615 LINE",
"92 483 LINE"
);
}
);
width = 256;
},
{
layerId = "043C55D1-ADA8-4506-BB55-8127E14D1A36";
paths = (
{
closed = 1;
nodes = (
"7 483 LINE",
"7 327 LINE",
"87 327 LINE",
"87 140 LINE SMOOTH",
"87 39 OFFCURVE",
"146 -12 OFFCURVE",
"253 -12 CURVE SMOOTH",
"314 -12 OFFCURVE",
"339 -12 OFFCURVE",
"365 -12 CURVE",
"365 147 LINE",
"342 147 OFFCURVE",
"323 147 OFFCURVE",
"307 147 CURVE SMOOTH",
"283 147 OFFCURVE",
"267 167 OFFCURVE",
"267 192 CURVE SMOOTH",
"267 327 LINE",
"365 327 LINE",
"365 483 LINE",
"267 483 LINE",
"267 615 LINE",
"87 615 LINE",
"87 483 LINE"
);
}
);
width = 382;
}
);
leftKerningGroup = t;
note = t;
rightKerningGroup = t;
unicode = 0074;
},
{
glyphname = u;
lastChange = "2017-11-03 21:38:09 +0000";
layers = (
{
layerId = "C74BD54B-DC3B-4084-AB10-E48D432FD11D";
paths = (
{
closed = 1;
nodes = (
"86 144 LINE SMOOTH",
"86 33 OFFCURVE",
"137 -12 OFFCURVE",
"237 -12 CURVE SMOOTH",
"301 -12 OFFCURVE",
"379 12 OFFCURVE",
"412 61 CURVE",
"412 0 LINE",
"442 0 LINE",
"442 483 LINE",
"412 483 LINE",
"412 138 LINE",
"412 48 OFFCURVE",
"305 15 OFFCURVE",
"241 15 CURVE SMOOTH",
"160 15 OFFCURVE",
"116 48 OFFCURVE",
"116 144 CURVE SMOOTH",
"116 483 LINE",
"86 483 LINE"
);
}
);
width = 528;
},
{
layerId = "043C55D1-ADA8-4506-BB55-8127E14D1A36";
paths = (
{
closed = 1;
nodes = (
"50 138 LINE SMOOTH",
"50 55 OFFCURVE",
"98 -12 OFFCURVE",
"210 -12 CURVE SMOOTH",
"295 -12 OFFCURVE",
"348 23 OFFCURVE",
"376 54 CURVE",
"376 0 LINE",
"556 0 LINE",
"556 483 LINE",
"376 483 LINE",
"376 215 LINE",
"376 166 OFFCURVE",
"340 147 OFFCURVE",
"300 147 CURVE SMOOTH",
"256 147 OFFCURVE",
"230 166 OFFCURVE",
"230 215 CURVE SMOOTH",
"230 483 LINE",
"50 483 LINE"
);
}
);
width = 606;
}
);
leftKerningGroup = u;
note = u;
rightKerningGroup = u;
unicode = 0075;
},
{
glyphname = v;
lastChange = "2017-11-03 20:46:09 +0000";
layers = (
{
layerId = "C74BD54B-DC3B-4084-AB10-E48D432FD11D";
paths = (
{
closed = 1;
nodes = (
"218 0 LINE",
"253 0 LINE",
"460 483 LINE",
"425 483 LINE",
"236 35 LINE",
"46 483 LINE",
"11 483 LINE"
);
}
);
width = 471;
},
{
layerId = "043C55D1-ADA8-4506-BB55-8127E14D1A36";
paths = (
{
closed = 1;
nodes = (
"172 0 LINE",
"363 0 LINE",
"550 483 LINE",
"360 483 LINE",
"267 207 LINE",
"175 483 LINE",
"-15 483 LINE"
);
}
);
width = 535;
}
);
leftKerningGroup = v;
note = v;
rightKerningGroup = v;
unicode = 0076;
},
{
glyphname = w;
lastChange = "2017-11-03 14:05:35 +0000";
layers = (
{
layerId = "C74BD54B-DC3B-4084-AB10-E48D432FD11D";
paths = (
{
closed = 1;
nodes = (
"182 0 LINE",
"206 0 LINE",
"352 438 LINE",
"498 0 LINE",
"522 0 LINE",
"682 483 LINE",
"649 483 LINE",
"509 47 LINE",
"364 483 LINE",
"340 483 LINE",
"195 47 LINE",
"55 483 LINE",
"22 483 LINE"
);
}
);
width = 704;
},
{
layerId = "043C55D1-ADA8-4506-BB55-8127E14D1A36";
paths = (
{
closed = 1;
nodes = (
"128 0 LINE",
"324 0 LINE",
"402 270 LINE",
"481 0 LINE",
"677 0 LINE",
"817 483 LINE",
"631 483 LINE",
"567 217 LINE",
"483 483 LINE",
"322 483 LINE",
"237 217 LINE",
"173 483 LINE",
"-12 483 LINE"
);
}
);
width = 805;
}
);
leftKerningGroup = w;
note = w;
rightKerningGroup = w;
unicode = 0077;
},
{
glyphname = x;
lastChange = "2017-11-03 14:06:26 +0000";
layers = (
{
layerId = "C74BD54B-DC3B-4084-AB10-E48D432FD11D";
paths = (
{
closed = 1;
nodes = (
"219 248 LINE",
"22 0 LINE",
"61 0 LINE",
"236 228 LINE",
"411 0 LINE",
"450 0 LINE",
"253 248 LINE",
"439 483 LINE",
"400 483 LINE",
"236 269 LINE",
"72 483 LINE",
"33 483 LINE"
);
}
);
width = 472;
},
{
layerId = "043C55D1-ADA8-4506-BB55-8127E14D1A36";
paths = (
{
closed = 1;
nodes = (
"146 248 LINE",
"-12 0 LINE",
"184 0 LINE",
"261 128 LINE",
"336 0 LINE",
"533 0 LINE",
"374 248 LINE",
"522 483 LINE",
"325 483 LINE",
"260 370 LINE",
"195 483 LINE",
"-2 483 LINE"
);
}
);
width = 521;
}
);
leftKerningGroup = x;
note = x;
rightKerningGroup = x;
unicode = 0078;
},
{
glyphname = y;
lastChange = "2017-11-03 21:34:10 +0000";
layers = (
{
layerId = "C74BD54B-DC3B-4084-AB10-E48D432FD11D";
paths = (
{
closed = 1;
nodes = (
"218 -3 LINE",
"174 -103 LINE SMOOTH",
"153 -152 OFFCURVE",
"131 -169 OFFCURVE",
"98 -169 CURVE SMOOTH",
"82 -169 OFFCURVE",
"62 -169 OFFCURVE",
"42 -169 CURVE",
"42 -196 LINE",
"63 -196 OFFCURVE",
"80 -196 OFFCURVE",
"98 -196 CURVE SMOOTH",
"145 -196 OFFCURVE",
"180 -169 OFFCURVE",
"204 -114 CURVE SMOOTH",
"460 483 LINE",
"425 483 LINE",
"236 35 LINE",
"46 483 LINE",
"11 483 LINE"
);
}
);
width = 471;
},
{
layerId = "043C55D1-ADA8-4506-BB55-8127E14D1A36";
paths = (
{
closed = 1;
nodes = (
"175 -8 LINE",
"171 -18 LINE",
"165 -31 OFFCURVE",
"143 -37 OFFCURVE",
"108 -37 CURVE SMOOTH",
"96 -37 OFFCURVE",
"58 -37 OFFCURVE",
"38 -36 CURVE",
"38 -196 LINE",
"57 -196 OFFCURVE",
"102 -196 OFFCURVE",
"115 -196 CURVE SMOOTH",
"217 -193 OFFCURVE",
"297 -172 OFFCURVE",
"340 -60 CURVE SMOOTH",
"550 483 LINE",
"360 483 LINE",
"267 207 LINE",
"175 483 LINE",
"-15 483 LINE"
);
}
);
width = 535;
}
);
leftKerningGroup = y;
note = y;
rightKerningGroup = y;
unicode = 0079;
},
{
glyphname = z;
lastChange = "2017-11-03 14:05:57 +0000";
layers = (
{
layerId = "C74BD54B-DC3B-4084-AB10-E48D432FD11D";
paths = (
{
closed = 1;
nodes = (
"60 456 LINE",
"367 456 LINE",
"60 27 LINE",
"60 0 LINE",
"406 0 LINE",
"406 27 LINE",
"93 27 LINE",
"402 456 LINE",
"402 483 LINE",
"60 483 LINE"
);
}
);
width = 466;
},
{
layerId = "043C55D1-ADA8-4506-BB55-8127E14D1A36";
paths = (
{
closed = 1;
nodes = (
"33 327 LINE",
"203 327 LINE",
"33 132 LINE",
"33 0 LINE",
"453 0 LINE",
"453 156 LINE",
"275 156 LINE",
"449 357 LINE",
"449 483 LINE",
"33 483 LINE"
);
}
);
width = 486;
}
);
leftKerningGroup = m;
note = z;
rightKerningGroup = u;
unicode = 007A;
},
{
glyphname = a.001;
lastChange = "2017-11-04 13:35:39 +0000";
layers = (
{
layerId = "C74BD54B-DC3B-4084-AB10-E48D432FD11D";
paths = (
{
closed = 1;
nodes = (
"107 392 LINE",
"149 443 OFFCURVE",
"201 468 OFFCURVE",
"262 468 CURVE SMOOTH",
"339 468 OFFCURVE",
"398 423 OFFCURVE",
"398 348 CURVE SMOOTH",
"398 248 LINE",
"348 301 OFFCURVE",
"299 310 OFFCURVE",
"231 310 CURVE SMOOTH",
"139 310 OFFCURVE",
"62 248 OFFCURVE",
"62 149 CURVE SMOOTH",
"62 50 OFFCURVE",
"140 -12 OFFCURVE",
"231 -12 CURVE SMOOTH",
"299 -12 OFFCURVE",
"355 -5 OFFCURVE",
"398 42 CURVE",
"398 0 LINE",
"428 0 LINE",
"428 349 LINE SMOOTH",
"428 444 OFFCURVE",
"361 495 OFFCURVE",
"262 495 CURVE SMOOTH",
"183 495 OFFCURVE",
"133 469 OFFCURVE",
"84 412 CURVE"
);
},
{
closed = 1;
nodes = (
"152 15 OFFCURVE",
"95 73 OFFCURVE",
"95 149 CURVE SMOOTH",
"95 225 OFFCURVE",
"152 283 OFFCURVE",
"239 283 CURVE SMOOTH",
"308 283 OFFCURVE",
"398 259 OFFCURVE",
"398 163 CURVE",
"398 140 LINE",
"398 42 OFFCURVE",
"308 15 OFFCURVE",
"239 15 CURVE SMOOTH"
);
}
);
width = 514;
},
{
layerId = "043C55D1-ADA8-4506-BB55-8127E14D1A36";
paths = (
{
closed = 1;
nodes = (
"105 311 LINE",
"143 340 OFFCURVE",
"194 358 OFFCURVE",
"239 358 CURVE SMOOTH",
"298 358 OFFCURVE",
"329 332 OFFCURVE",
"329 298 CURVE SMOOTH",
"329 248 LINE",
"303 281 OFFCURVE",
"246 301 OFFCURVE",
"183 301 CURVE SMOOTH",
"111 301 OFFCURVE",
"17 267 OFFCURVE",
"17 147 CURVE SMOOTH",
"17 37 OFFCURVE",
"111 -12 OFFCURVE",
"183 -12 CURVE SMOOTH",
"243 -12 OFFCURVE",
"302 12 OFFCURVE",
"329 46 CURVE",
"329 0 LINE",
"509 0 LINE",
"509 292 LINE SMOOTH",
"509 453 OFFCURVE",
"392 495 OFFCURVE",
"272 495 CURVE SMOOTH",
"199 495 OFFCURVE",
"109 474 OFFCURVE",
"44 422 CURVE"
);
},
{
closed = 1;
nodes = (
"228 105 OFFCURVE",
"195 114 OFFCURVE",
"195 144 CURVE SMOOTH",
"195 174 OFFCURVE",
"228 184 OFFCURVE",
"258 184 CURVE SMOOTH",
"286 184 OFFCURVE",
"329 181 OFFCURVE",
"329 145 CURVE",
"329 145 LINE",
"329 112 OFFCURVE",
"286 105 OFFCURVE",
"258 105 CURVE SMOOTH"
);
}
);
width = 559;
}
);
leftKerningGroup = a;
note = a;
rightKerningGroup = a;
},
{
glyphname = t.002;
lastChange = "2017-11-03 18:38:30 +0000";
layers = (
{
layerId = "C74BD54B-DC3B-4084-AB10-E48D432FD11D";
paths = (
{
closed = 1;
nodes = (
"12 483 LINE",
"12 456 LINE",
"92 456 LINE",
"92 85 LINE SMOOTH",
"92 20 OFFCURVE",
"119 -12 OFFCURVE",
"174 -12 CURVE SMOOTH",
"203 -12 OFFCURVE",
"228 -2 OFFCURVE",
"249 18 CURVE",
"231 41 LINE",
"216 24 OFFCURVE",
"197 15 OFFCURVE",
"174 15 CURVE SMOOTH",
"139 15 OFFCURVE",
"122 38 OFFCURVE",
"122 85 CURVE SMOOTH",
"122 456 LINE",
"220 456 LINE",
"220 483 LINE",
"122 483 LINE",
"122 615 LINE",
"92 615 LINE",
"92 483 LINE"
);
}
);
width = 256;
},
{
layerId = "043C55D1-ADA8-4506-BB55-8127E14D1A36";
paths = (
{
closed = 1;
nodes = (
"7 483 LINE",
"7 327 LINE",
"87 327 LINE",
"87 140 LINE SMOOTH",
"87 39 OFFCURVE",
"146 -12 OFFCURVE",
"253 -12 CURVE SMOOTH",
"314 -12 OFFCURVE",
"356 3 OFFCURVE",
"375 20 CURVE",
"343 156 LINE",
"339 152 OFFCURVE",
"323 147 OFFCURVE",
"307 147 CURVE SMOOTH",
"283 147 OFFCURVE",
"267 167 OFFCURVE",
"267 192 CURVE SMOOTH",
"267 327 LINE",
"365 327 LINE",
"365 483 LINE",
"267 483 LINE",
"267 615 LINE",
"87 615 LINE",
"87 483 LINE"
);
}
);
width = 382;
}
);
leftKerningGroup = t;
note = t;
rightKerningGroup = t;
},
{
glyphname = zero;
lastChange = "2017-11-03 22:03:30 +0000";
layers = (
{
layerId = "C74BD54B-DC3B-4084-AB10-E48D432FD11D";
paths = (
{
closed = 1;
nodes = (
"165 725 OFFCURVE",
"74 641 OFFCURVE",
"74 497 CURVE SMOOTH",
"74 215 LINE SMOOTH",
"74 75 OFFCURVE",
"166 -10 OFFCURVE",
"304 -10 CURVE SMOOTH",
"441 -10 OFFCURVE",
"533 75 OFFCURVE",
"533 215 CURVE SMOOTH",
"533 497 LINE SMOOTH",
"533 641 OFFCURVE",
"442 725 OFFCURVE",
"304 725 CURVE SMOOTH"
);
},
{
closed = 1;
nodes = (
"425 694 OFFCURVE",
"501 623 OFFCURVE",
"501 496 CURVE SMOOTH",
"501 215 LINE SMOOTH",
"501 92 OFFCURVE",
"424 21 OFFCURVE",
"304 21 CURVE SMOOTH",
"183 21 OFFCURVE",
"106 92 OFFCURVE",
"106 215 CURVE SMOOTH",
"106 496 LINE SMOOTH",
"106 623 OFFCURVE",
"182 694 OFFCURVE",
"304 694 CURVE SMOOTH"
);
},
{
closed = 1;
nodes = (
"123 70 LINE",
"152 54 LINE",
"489 639 LINE",
"461 655 LINE"
);
}
);
width = 607;
},
{
layerId = "043C55D1-ADA8-4506-BB55-8127E14D1A36";
paths = (
{
closed = 1;
nodes = (
"130 729 OFFCURVE",
"30 628 OFFCURVE",
"30 459 CURVE SMOOTH",
"30 260 LINE SMOOTH",
"30 87 OFFCURVE",
"130 -14 OFFCURVE",
"299 -14 CURVE SMOOTH",
"468 -14 OFFCURVE",
"568 87 OFFCURVE",
"568 260 CURVE SMOOTH",
"568 459 LINE SMOOTH",
"568 628 OFFCURVE",
"468 729 OFFCURVE",
"299 729 CURVE SMOOTH"
);
},
{
closed = 1;
nodes = (
"354 553 OFFCURVE",
"381 524 OFFCURVE",
"381 467 CURVE SMOOTH",
"381 251 LINE SMOOTH",
"381 193 OFFCURVE",
"354 164 OFFCURVE",
"299 164 CURVE SMOOTH",
"244 164 OFFCURVE",
"217 193 OFFCURVE",
"217 251 CURVE SMOOTH",
"217 467 LINE SMOOTH",
"217 524 OFFCURVE",
"244 553 OFFCURVE",
"299 553 CURVE SMOOTH"
);
},
{
closed = 1;
nodes = (
"86 91 LINE",
"173 43 LINE",
"510 628 LINE",
"424 676 LINE"
);
}
);
width = 600;
}
);
leftKerningGroup = zero;
note = zero;
rightKerningGroup = zero;
unicode = 0030;
},
{
glyphname = one;
lastChange = "2017-11-03 14:51:12 +0000";
layers = (
{
layerId = "C74BD54B-DC3B-4084-AB10-E48D432FD11D";
paths = (
{
closed = 1;
nodes = (
"23 602 LINE",
"38 576 LINE",
"193 675 LINE",
"193 0 LINE",
"226 0 LINE",
"226 715 LINE",
"199 715 LINE"
);
}
);
width = 323;
},
{
layerId = "043C55D1-ADA8-4506-BB55-8127E14D1A36";
paths = (
{
closed = 1;
nodes = (
"71 564 LINE",
"162 424 LINE",
"251 492 LINE",
"251 0 LINE",
"439 0 LINE",
"439 715 LINE",
"275 715 LINE"
);
}
);
width = 600;
}
);
leftKerningGroup = one;
note = one;
unicode = 0031;
},
{
glyphname = two;
lastChange = "2017-11-03 18:04:43 +0000";
layers = (
{
layerId = "C74BD54B-DC3B-4084-AB10-E48D432FD11D";
paths = (
{
closed = 1;
nodes = (
"75 590 LINE",
"126 648 OFFCURVE",
"189 695 OFFCURVE",
"278 695 CURVE SMOOTH",
"393 695 OFFCURVE",
"441 618 OFFCURVE",
"441 548 CURVE SMOOTH",
"441 447 OFFCURVE",
"349 349 OFFCURVE",
"207 198 CURVE SMOOTH",
"43 24 LINE",
"43 0 LINE",
"496 0 LINE",
"496 30 LINE",
"92 30 LINE",
"234 181 LINE SMOOTH",
"382 339 OFFCURVE",
"473 436 OFFCURVE",
"473 548 CURVE SMOOTH",
"473 640 OFFCURVE",
"408 725 OFFCURVE",
"278 725 CURVE SMOOTH",
"182 725 OFFCURVE",
"110 677 OFFCURVE",
"55 614 CURVE"
);
}
);
width = 543;
},
{
layerId = "043C55D1-ADA8-4506-BB55-8127E14D1A36";
paths = (
{
closed = 1;
nodes = (
"138 483 LINE",
"181 522 OFFCURVE",
"239 557 OFFCURVE",
"280 557 CURVE SMOOTH",
"325 557 OFFCURVE",
"347 540 OFFCURVE",
"347 505 CURVE SMOOTH",
"347 450 OFFCURVE",
"267 375 OFFCURVE",
"170 282 CURVE SMOOTH",
"30 146 LINE",
"30 0 LINE",
"548 0 LINE",
"548 168 LINE",
"297 168 LINE",
"430 296 LINE",
"493 367 OFFCURVE",
"536 439 OFFCURVE",
"536 511 CURVE SMOOTH",
"536 648 OFFCURVE",
"444 729 OFFCURVE",
"291 729 CURVE SMOOTH",
"202 729 OFFCURVE",
"111 684 OFFCURVE",
"41 614 CURVE"
);
}
);
width = 600;
}
);
leftKerningGroup = two;
note = two;
rightKerningGroup = two;
unicode = 0032;
},
{
glyphname = three;
lastChange = "2017-11-03 20:30:29 +0000";
layers = (
{
layerId = "C74BD54B-DC3B-4084-AB10-E48D432FD11D";
paths = (
{
closed = 1;
nodes = (
"202 393 LINE",
"220 395 OFFCURVE",
"245 396 OFFCURVE",
"264 396 CURVE SMOOTH",
"398 396 OFFCURVE",
"470 324 OFFCURVE",
"470 210 CURVE SMOOTH",
"470 95 OFFCURVE",
"394 20 OFFCURVE",
"271 20 CURVE SMOOTH",
"173 20 OFFCURVE",
"114 67 OFFCURVE",
"63 123 CURVE",
"41 103 LINE",
"99 36 OFFCURVE",
"167 -10 OFFCURVE",
"271 -10 CURVE SMOOTH",
"412 -10 OFFCURVE",
"502 78 OFFCURVE",
"502 210 CURVE SMOOTH",
"502 336 OFFCURVE",
"421 424 OFFCURVE",
"245 422 CURVE",
"495 693 LINE",
"495 715 LINE",
"73 715 LINE",
"73 685 LINE",
"449 685 LINE",
"195 410 LINE"
);
}
);
width = 559;
},
{
background = {
paths = (
{
closed = 1;
nodes = (
"179 302 LINE",
"204 309 OFFCURVE",
"245 317 OFFCURVE",
"266 317 CURVE SMOOTH",
"329 317 OFFCURVE",
"360 292 OFFCURVE",
"360 243 CURVE SMOOTH",
"360 188 OFFCURVE",
"330 160 OFFCURVE",
"270 160 CURVE SMOOTH",
"218 160 OFFCURVE",
"148 185 OFFCURVE",
"101 213 CURVE",
"13 76 LINE",
"78 22 OFFCURVE",
"171 -14 OFFCURVE",
"270 -14 CURVE SMOOTH",
"453 -14 OFFCURVE",
"551 71 OFFCURVE",
"551 232 CURVE SMOOTH",
"551 343 OFFCURVE",
"471 431 OFFCURVE",
"364 426 CURVE",
"521 574 LINE",
"521 715 LINE",
"56 715 LINE",
"56 545 LINE",
"288 545 LINE",
"288 545 OFFCURVE",
"136 401 OFFCURVE",
"136 401 CURVE"
);
}
);
};
layerId = "043C55D1-ADA8-4506-BB55-8127E14D1A36";
paths = (
{
closed = 1;
nodes = (
"179 302 LINE",
"204 309 OFFCURVE",
"245 317 OFFCURVE",
"266 317 CURVE SMOOTH",
"329 317 OFFCURVE",
"360 292 OFFCURVE",
"360 243 CURVE SMOOTH",
"360 188 OFFCURVE",
"330 160 OFFCURVE",
"270 160 CURVE SMOOTH",
"218 160 OFFCURVE",
"148 185 OFFCURVE",
"101 213 CURVE",
"13 76 LINE",
"78 22 OFFCURVE",
"171 -14 OFFCURVE",
"270 -14 CURVE SMOOTH",
"453 -14 OFFCURVE",
"551 71 OFFCURVE",
"551 232 CURVE SMOOTH",
"551 343 OFFCURVE",
"471 431 OFFCURVE",
"364 426 CURVE",
"521 574 LINE",
"521 715 LINE",
"56 715 LINE",
"56 545 LINE",
"288 545 LINE",
"136 401 LINE"
);
}
);
width = 600;
}
);
leftKerningGroup = three;
note = three;
unicode = 0033;
},
{
glyphname = four;
lastChange = "2017-11-03 20:08:25 +0000";
layers = (
{
layerId = "C74BD54B-DC3B-4084-AB10-E48D432FD11D";
paths = (
{
closed = 1;
nodes = (
"29 217 LINE",
"29 196 LINE",
"384 196 LINE",
"384 0 LINE",
"416 0 LINE",
"416 196 LINE",
"500 196 LINE",
"500 226 LINE",
"416 226 LINE",
"416 407 LINE",
"384 407 LINE",
"384 226 LINE",
"70 226 LINE",
"355 715 LINE",
"317 715 LINE"
);
}
);
width = 531;
},
{
layerId = "043C55D1-ADA8-4506-BB55-8127E14D1A36";
paths = (
{
closed = 1;
nodes = (
"20 251 LINE",
"20 109 LINE",
"338 109 LINE",
"338 0 LINE",
"525 0 LINE",
"525 109 LINE",
"600 109 LINE",
"600 273 LINE",
"525 273 LINE",
"525 409 LINE",
"363 409 LINE",
"338 273 LINE",
"241 273 LINE",
"459 715 LINE",
"255 715 LINE"
);
}
);
width = 600;
}
);
leftKerningGroup = four;
note = four;
rightKerningGroup = four;
unicode = 0034;
},
{
glyphname = five;
lastChange = "2017-11-04 00:49:18 +0000";
layers = (
{
layerId = "C74BD54B-DC3B-4084-AB10-E48D432FD11D";
paths = (
{
closed = 1;
nodes = (
"219 461 OFFCURVE",
"161 438 OFFCURVE",
"108 391 CURVE",
"119 685 LINE",
"479 685 LINE",
"479 715 LINE",
"88 715 LINE",
"75 362 LINE",
"105 351 LINE",
"151 397 OFFCURVE",
"211 430 OFFCURVE",
"290 430 CURVE SMOOTH",
"400 430 OFFCURVE",
"480 372 OFFCURVE",
"480 233 CURVE SMOOTH",
"480 102 OFFCURVE",
"405 22 OFFCURVE",
"282 22 CURVE SMOOTH",
"194 22 OFFCURVE",
"134 62 OFFCURVE",
"84 123 CURVE",
"61 102 LINE",
"115 35 OFFCURVE",
"184 -8 OFFCURVE",
"282 -8 CURVE SMOOTH",
"423 -8 OFFCURVE",
"512 88 OFFCURVE",
"512 234 CURVE SMOOTH",
"512 390 OFFCURVE",
"418 461 OFFCURVE",
"292 461 CURVE SMOOTH"
);
}
);
width = 566;
},
{
layerId = "043C55D1-ADA8-4506-BB55-8127E14D1A36";
paths = (
{
closed = 1;
nodes = (
"302 464 OFFCURVE",
"257 450 OFFCURVE",
"241 438 CURVE",
"246 543 LINE",
"520 543 LINE",
"520 715 LINE",
"73 715 LINE",
"59 320 LINE",
"172 283 LINE",
"205 300 OFFCURVE",
"255 317 OFFCURVE",
"291 317 CURVE SMOOTH",
"353 317 OFFCURVE",
"384 294 OFFCURVE",
"384 247 CURVE SMOOTH",
"384 188 OFFCURVE",
"351 159 OFFCURVE",
"285 159 CURVE SMOOTH",
"232 159 OFFCURVE",
"161 185 OFFCURVE",
"114 214 CURVE",
"25 80 LINE",
"86 24 OFFCURVE",
"183 -14 OFFCURVE",
"294 -14 CURVE SMOOTH",
"463 -14 OFFCURVE",
"570 82 OFFCURVE",
"570 238 CURVE SMOOTH",
"570 374 OFFCURVE",
"484 464 OFFCURVE",
"341 464 CURVE SMOOTH"
);
}
);
width = 600;
}
);
leftKerningGroup = five;
note = five;
unicode = 0035;
},
{
glyphname = six;
lastChange = "2017-11-03 22:05:11 +0000";
layers = (
{
layerId = "C74BD54B-DC3B-4084-AB10-E48D432FD11D";
paths = (
{
closed = 1;
nodes = (
"107 359 OFFCURVE",
"209 415 OFFCURVE",
"299 415 CURVE SMOOTH",
"417 415 OFFCURVE",
"487 347 OFFCURVE",
"487 219 CURVE SMOOTH",
"487 95 OFFCURVE",
"415 20 OFFCURVE",
"298 20 CURVE SMOOTH",
"182 20 OFFCURVE",
"107 92 OFFCURVE",
"107 215 CURVE SMOOTH",
"107 232 LINE SMOOTH"
);
},
{
closed = 1;
nodes = (
"447 689 OFFCURVE",
"382 725 OFFCURVE",
"296 725 CURVE SMOOTH",
"178 725 OFFCURVE",
"74 644 OFFCURVE",
"74 505 CURVE SMOOTH",
"74 215 LINE SMOOTH",
"74 76 OFFCURVE",
"164 -10 OFFCURVE",
"298 -10 CURVE SMOOTH",
"432 -10 OFFCURVE",
"520 78 OFFCURVE",
"520 219 CURVE SMOOTH",
"520 366 OFFCURVE",
"435 445 OFFCURVE",
"299 445 CURVE SMOOTH",
"224 445 OFFCURVE",
"141 419 OFFCURVE",
"107 343 CURVE",
"107 505 LINE SMOOTH",
"107 622 OFFCURVE",
"190 695 OFFCURVE",
"297 695 CURVE SMOOTH",
"375 695 OFFCURVE",
"434 661 OFFCURVE",
"476 622 CURVE",
"495 645 LINE"
);
}
);
width = 575;
},
{
layerId = "043C55D1-ADA8-4506-BB55-8127E14D1A36";
paths = (
{
closed = 1;
nodes = (
"237 283 OFFCURVE",
"265 310 OFFCURVE",
"313 310 CURVE SMOOTH",
"362 310 OFFCURVE",
"392 283 OFFCURVE",
"392 239 CURVE SMOOTH",
"392 188 OFFCURVE",
"364 159 OFFCURVE",
"313 159 CURVE SMOOTH",
"265 159 OFFCURVE",
"237 187 OFFCURVE",
"237 232 CURVE SMOOTH",
"237 239 LINE SMOOTH"
);
},
{
closed = 1;
nodes = (
"500 693 OFFCURVE",
"409 729 OFFCURVE",
"320 729 CURVE SMOOTH",
"159 729 OFFCURVE",
"48 622 OFFCURVE",
"48 462 CURVE SMOOTH",
"48 232 LINE SMOOTH",
"48 85 OFFCURVE",
"153 -14 OFFCURVE",
"316 -14 CURVE SMOOTH",
"480 -14 OFFCURVE",
"582 84 OFFCURVE",
"582 235 CURVE SMOOTH",
"582 368 OFFCURVE",
"489 453 OFFCURVE",
"344 453 CURVE SMOOTH",
"303 453 OFFCURVE",
"267 445 OFFCURVE",
"237 429 CURVE",
"237 465 LINE SMOOTH",
"237 526 OFFCURVE",
"266 557 OFFCURVE",
"325 557 CURVE SMOOTH",
"379 557 OFFCURVE",
"441 533 OFFCURVE",
"476 510 CURVE",
"564 652 LINE"
);
}
);
width = 600;
}
);
leftKerningGroup = six;
note = six;
unicode = 0036;
},
{
glyphname = seven;
lastChange = "2017-11-03 19:25:25 +0000";
layers = (
{
layerId = "C74BD54B-DC3B-4084-AB10-E48D432FD11D";
paths = (
{
closed = 1;
nodes = (
"25 684 LINE",
"439 684 LINE",
"107 0 LINE",
"144 0 LINE",
"479 695 LINE",
"479 715 LINE",
"25 715 LINE"
);
},
{
closed = 1;
nodes = (
"25 586 LINE",
"56 586 LINE",
"56 715 LINE",
"25 715 LINE"
);
}
);
width = 500;
},
{
layerId = "043C55D1-ADA8-4506-BB55-8127E14D1A36";
paths = (
{
closed = 1;
nodes = (
"57 542 LINE",
"345 542 LINE",
"121 0 LINE",
"325 0 LINE",
"556 572 LINE",
"556 715 LINE",
"57 715 LINE"
);
},
{
closed = 1;
nodes = (
"57 483 LINE",
"205 483 LINE",
"205 715 LINE",
"57 715 LINE"
);
}
);
width = 600;
}
);
leftKerningGroup = seven;
note = seven;
rightKerningGroup = seven;
unicode = 0037;
},
{
glyphname = eight;
lastChange = "2017-11-03 20:10:48 +0000";
layers = (
{
layerId = "C74BD54B-DC3B-4084-AB10-E48D432FD11D";
paths = (
{
closed = 1;
nodes = (
"83 468 OFFCURVE",
"123 401 OFFCURVE",
"215 377 CURVE",
"117 355 OFFCURVE",
"62 281 OFFCURVE",
"62 198 CURVE SMOOTH",
"62 77 OFFCURVE",
"150 -10 OFFCURVE",
"299 -10 CURVE SMOOTH",
"447 -10 OFFCURVE",
"535 77 OFFCURVE",
"535 198 CURVE SMOOTH",
"535 281 OFFCURVE",
"481 355 OFFCURVE",
"383 377 CURVE",
"475 401 OFFCURVE",
"514 468 OFFCURVE",
"514 545 CURVE SMOOTH",
"514 648 OFFCURVE",
"434 725 OFFCURVE",
"299 725 CURVE SMOOTH",
"164 725 OFFCURVE",
"83 648 OFFCURVE",
"83 545 CURVE SMOOTH"
);
},
{
closed = 1;
nodes = (
"95 292 OFFCURVE",
"172 361 OFFCURVE",
"299 361 CURVE SMOOTH",
"425 361 OFFCURVE",
"503 292 OFFCURVE",
"503 200 CURVE SMOOTH",
"503 100 OFFCURVE",
"433 20 OFFCURVE",
"299 20 CURVE SMOOTH",
"164 20 OFFCURVE",
"95 100 OFFCURVE",
"95 200 CURVE SMOOTH"
);
},
{
closed = 1;
nodes = (
"115 640 OFFCURVE",
"189 695 OFFCURVE",
"299 695 CURVE SMOOTH",
"409 695 OFFCURVE",
"482 640 OFFCURVE",
"482 545 CURVE SMOOTH",
"482 459 OFFCURVE",
"424 390 OFFCURVE",
"299 390 CURVE SMOOTH",
"174 390 OFFCURVE",
"115 459 OFFCURVE",
"115 545 CURVE SMOOTH"
);
}
);
width = 597;
},
{
layerId = "043C55D1-ADA8-4506-BB55-8127E14D1A36";
paths = (
{
closed = 1;
nodes = (
"29 447 OFFCURVE",
"75 397 OFFCURVE",
"145 366 CURVE",
"69 332 OFFCURVE",
"18 266 OFFCURVE",
"18 190 CURVE SMOOTH",
"18 45 OFFCURVE",
"167 -12 OFFCURVE",
"315 -12 CURVE SMOOTH",
"463 -12 OFFCURVE",
"612 45 OFFCURVE",
"612 190 CURVE SMOOTH",
"612 266 OFFCURVE",
"560 332 OFFCURVE",
"484 366 CURVE",
"554 397 OFFCURVE",
"601 447 OFFCURVE",
"601 530 CURVE SMOOTH",
"601 669 OFFCURVE",
"452 720 OFFCURVE",
"315 720 CURVE SMOOTH",
"178 720 OFFCURVE",
"29 669 OFFCURVE",
"29 530 CURVE SMOOTH"
);
},
{
closed = 1;
nodes = (
"223 242 OFFCURVE",
"272 263 OFFCURVE",
"315 270 CURVE",
"357 263 OFFCURVE",
"407 242 OFFCURVE",
"407 214 CURVE SMOOTH",
"407 183 OFFCURVE",
"370 162 OFFCURVE",
"315 162 CURVE SMOOTH",
"258 162 OFFCURVE",
"223 183 OFFCURVE",
"223 214 CURVE SMOOTH"
);
},
{
closed = 1;
nodes = (
"234 527 OFFCURVE",
"264 546 OFFCURVE",
"315 546 CURVE SMOOTH",
"365 546 OFFCURVE",
"395 527 OFFCURVE",
"395 498 CURVE SMOOTH",
"395 476 OFFCURVE",
"356 455 OFFCURVE",
"315 449 CURVE",
"274 455 OFFCURVE",
"234 476 OFFCURVE",
"234 498 CURVE SMOOTH"
);
}
);
width = 630;
}
);
leftKerningGroup = eight;
note = eight;
rightKerningGroup = eight;
unicode = 0038;
},
{
glyphname = nine;
lastChange = "2017-11-03 20:10:16 +0000";
layers = (
{
layerId = "C74BD54B-DC3B-4084-AB10-E48D432FD11D";
paths = (
{
closed = 1;
nodes = (
"254 0 LINE",
"291 0 LINE",
"483 398 LINE",
"453 409 LINE"
);
},
{
closed = 1;
nodes = (
"56 351 OFFCURVE",
"145 273 OFFCURVE",
"277 270 CURVE",
"409 273 OFFCURVE",
"498 351 OFFCURVE",
"498 496 CURVE SMOOTH",
"498 633 OFFCURVE",
"405 725 OFFCURVE",
"277 725 CURVE",
"148 720 OFFCURVE",
"56 633 OFFCURVE",
"56 496 CURVE SMOOTH"
);
},
{
closed = 1;
nodes = (
"87 617 OFFCURVE",
"165 692 OFFCURVE",
"276 695 CURVE",
"387 692 OFFCURVE",
"465 617 OFFCURVE",
"465 496 CURVE SMOOTH",
"465 368 OFFCURVE",
"395 300 OFFCURVE",
"276 300 CURVE SMOOTH",
"156 300 OFFCURVE",
"87 368 OFFCURVE",
"87 496 CURVE SMOOTH"
);
}
);
width = 575;
},
{
layerId = "043C55D1-ADA8-4506-BB55-8127E14D1A36";
paths = (
{
closed = 1;
nodes = (
"221 0 LINE",
"425 0 LINE",
"586 397 LINE",
"408 446 LINE"
);
},
{
closed = 1;
nodes = (
"57 339 OFFCURVE",
"184 254 OFFCURVE",
"329 254 CURVE SMOOTH",
"474 254 OFFCURVE",
"601 339 OFFCURVE",
"601 472 CURVE SMOOTH",
"601 623 OFFCURVE",
"493 721 OFFCURVE",
"329 721 CURVE SMOOTH",
"164 721 OFFCURVE",
"57 623 OFFCURVE",
"57 472 CURVE SMOOTH"
);
},
{
closed = 1;
nodes = (
"247 518 OFFCURVE",
"279 547 OFFCURVE",
"329 548 CURVE",
"379 547 OFFCURVE",
"411 518 OFFCURVE",
"411 468 CURVE SMOOTH",
"411 425 OFFCURVE",
"377 398 OFFCURVE",
"329 397 CURVE",
"281 398 OFFCURVE",
"247 425 OFFCURVE",
"247 468 CURVE SMOOTH"
);
}
);
width = 658;
}
);
leftKerningGroup = nine;
note = nine;
rightKerningGroup = nine;
unicode = 0039;
},
{
glyphname = seven.001;
lastChange = "2017-11-03 19:23:05 +0000";
layers = (
{
layerId = "C74BD54B-DC3B-4084-AB10-E48D432FD11D";
paths = (
{
closed = 1;
nodes = (
"25 684 LINE",
"439 684 LINE",
"107 0 LINE",
"144 0 LINE",
"479 695 LINE",
"479 715 LINE",
"25 715 LINE"
);
}
);
width = 500;
},
{
layerId = "043C55D1-ADA8-4506-BB55-8127E14D1A36";
paths = (
{
closed = 1;
nodes = (
"57 542 LINE",
"345 542 LINE",
"121 0 LINE",
"325 0 LINE",
"556 572 LINE",
"556 715 LINE",
"57 715 LINE"
);
}
);
width = 600;
}
);
leftKerningGroup = seven;
note = seven;
rightKerningGroup = seven;
},
{
glyphname = asterisk;
lastChange = "2017-11-04 01:32:16 +0000";
layers = (
{
layerId = "C74BD54B-DC3B-4084-AB10-E48D432FD11D";
paths = (
{
closed = 1;
nodes = (
"41 489 LINE",
"56 463 LINE",
"156 528 LINE",
"150 409 LINE",
"180 409 LINE",
"174 528 LINE",
"274 463 LINE",
"289 489 LINE",
"183 543 LINE",
"289 597 LINE",
"274 623 LINE",
"174 558 LINE",
"180 677 LINE",
"150 677 LINE",
"156 558 LINE",
"56 623 LINE",
"41 597 LINE",
"147 543 LINE"
);
}
);
width = 330;
},
{
layerId = "043C55D1-ADA8-4506-BB55-8127E14D1A36";
paths = (
{
closed = 1;
nodes = (
"17 462 LINE",
"57 392 LINE",
"145 448 LINE",
"141 343 LINE",
"222 343 LINE",
"217 448 LINE",
"305 392 LINE",
"346 462 LINE",
"253 510 LINE",
"346 558 LINE",
"305 628 LINE",
"217 572 LINE",
"222 677 LINE",
"141 677 LINE",
"145 572 LINE",
"57 628 LINE",
"17 558 LINE",
"109 510 LINE"
);
}
);
width = 363;
}
);
leftKerningGroup = asterisk;
note = asterisk;
rightKerningGroup = asterisk;
unicode = 002A;
},
{
glyphname = backslash;
lastChange = "2017-11-04 01:33:47 +0000";
layers = (
{
layerId = "C74BD54B-DC3B-4084-AB10-E48D432FD11D";
paths = (
{
closed = 1;
nodes = (
"237 -20 LINE",
"268 -20 LINE",
"31 687 LINE",
"0 687 LINE"
);
}
);
width = 268;
},
{
layerId = "043C55D1-ADA8-4506-BB55-8127E14D1A36";
paths = (
{
closed = 1;
nodes = (
"237 -20 LINE",
"362 -20 LINE",
"125 687 LINE",
"0 687 LINE"
);
}
);
width = 362;
}
);
note = backslash;
unicode = 005C;
},
{
glyphname = periodcentered;
lastChange = "2017-11-04 17:24:39 +0000";
layers = (
{
layerId = "C74BD54B-DC3B-4084-AB10-E48D432FD11D";
paths = (
{
closed = 1;
nodes = (
"74 209 LINE",
"135 209 LINE",
"135 271 LINE",
"74 271 LINE"
);
}
);
width = 208;
},
{
layerId = "043C55D1-ADA8-4506-BB55-8127E14D1A36";
paths = (
{
closed = 1;
nodes = (
"51 153 LINE",
"234 153 LINE",
"234 339 LINE",
"51 339 LINE"
);
}
);
width = 283;
}
);
leftKerningGroup = hyphen;
note = periodcentered;
rightKerningGroup = hyphen;
unicode = 00B7;
},
{
glyphname = bullet;
lastChange = "2017-11-04 01:48:59 +0000";
layers = (
{
layerId = "C74BD54B-DC3B-4084-AB10-E48D432FD11D";
paths = (
{
closed = 1;
nodes = (
"278 296 OFFCURVE",
"234 340 OFFCURVE",
"180 340 CURVE SMOOTH",
"127 340 OFFCURVE",
"82 295 OFFCURVE",
"82 242 CURVE SMOOTH",
"82 189 OFFCURVE",
"127 145 OFFCURVE",
"180 145 CURVE SMOOTH",
"233 145 OFFCURVE",
"278 189 OFFCURVE",
"278 242 CURVE SMOOTH"
);
}
);
width = 358;
},
{
layerId = "043C55D1-ADA8-4506-BB55-8127E14D1A36";
paths = (
{
closed = 1;
nodes = (
"310 314 OFFCURVE",
"252 372 OFFCURVE",
"180 372 CURVE SMOOTH",
"108 372 OFFCURVE",
"50 314 OFFCURVE",
"50 242 CURVE SMOOTH",
"50 171 OFFCURVE",
"108 113 OFFCURVE",
"180 113 CURVE SMOOTH",
"252 113 OFFCURVE",
"310 171 OFFCURVE",
"310 242 CURVE SMOOTH"
);
}
);
width = 358;
}
);
leftKerningGroup = bullet;
note = bullet;
rightKerningGroup = bullet;
unicode = 2022;
},
{
glyphname = colon;
lastChange = "2017-11-04 17:23:47 +0000";
layers = (
{
layerId = "C74BD54B-DC3B-4084-AB10-E48D432FD11D";
paths = (
{
closed = 1;
nodes = (
"74 -7 LINE",
"135 -7 LINE",
"135 55 LINE",
"74 55 LINE"
);
},
{
closed = 1;
nodes = (
"74 426 LINE",
"135 426 LINE",
"135 488 LINE",
"74 488 LINE"
);
}
);
width = 208;
},
{
layerId = "043C55D1-ADA8-4506-BB55-8127E14D1A36";
paths = (
{
closed = 1;
nodes = (
"49 -5 LINE",
"232 -5 LINE",
"232 181 LINE",
"49 181 LINE"
);
},
{
closed = 1;
nodes = (
"49 303 LINE",
"232 303 LINE",
"232 489 LINE",
"49 489 LINE"
);
}
);
width = 266;
}
);
leftKerningGroup = colon;
note = colon;
rightKerningGroup = colon;
unicode = 003A;
},
{
glyphname = comma;
lastChange = "2017-11-04 17:19:13 +0000";
layers = (
{
layerId = "C74BD54B-DC3B-4084-AB10-E48D432FD11D";
paths = (
{
closed = 1;
nodes = (
"74 -7 LINE",
"135 -7 LINE",
"135 55 LINE",
"74 55 LINE"
);
},
{
closed = 1;
nodes = (
"63 -93 LINE",
"84 -110 LINE",
"135 -7 LINE",
"102 -7 LINE"
);
}
);
width = 208;
},
{
layerId = "043C55D1-ADA8-4506-BB55-8127E14D1A36";
paths = (
{
closed = 1;
nodes = (
"49 -10 LINE",
"232 -10 LINE",
"232 176 LINE",
"49 176 LINE"
);
},
{
closed = 1;
nodes = (
"69 -101 LINE",
"120 -144 LINE",
"232 -10 LINE",
"108 -10 LINE"
);
}
);
width = 281;
}
);
leftKerningGroup = comma;
note = comma;
rightKerningGroup = comma;
unicode = 002C;
},
{
glyphname = ellipsis;
lastChange = "2017-11-04 17:21:11 +0000";
layers = (
{
layerId = "C74BD54B-DC3B-4084-AB10-E48D432FD11D";
paths = (
{
closed = 1;
nodes = (
"76 -9 LINE",
"137 -9 LINE",
"137 53 LINE",
"76 53 LINE"
);
},
{
closed = 1;
nodes = (
"279 -9 LINE",
"340 -9 LINE",
"340 53 LINE",
"279 53 LINE"
);
},
{
closed = 1;
nodes = (
"487 -9 LINE",
"548 -9 LINE",
"548 53 LINE",
"487 53 LINE"
);
}
);
width = 624;
},
{
layerId = "043C55D1-ADA8-4506-BB55-8127E14D1A36";
paths = (
{
closed = 1;
nodes = (
"51 -11 LINE",
"234 -11 LINE",
"234 175 LINE",
"51 175 LINE"
);
},
{
closed = 1;
nodes = (
"332 -11 LINE",
"515 -11 LINE",
"515 175 LINE",
"332 175 LINE"
);
},
{
closed = 1;
nodes = (
"613 -11 LINE",
"796 -11 LINE",
"796 175 LINE",
"613 175 LINE"
);
}
);
width = 846;
}
);
leftKerningGroup = comma;
note = ellipsis;
rightKerningGroup = comma;
unicode = 2026;
},
{
glyphname = exclam;
lastChange = "2017-11-04 14:20:42 +0000";
layers = (
{
layerId = "C74BD54B-DC3B-4084-AB10-E48D432FD11D";
paths = (
{
closed = 1;
nodes = (
"114 161 LINE",
"125 667 LINE",
"83 667 LINE",
"94 161 LINE"
);
},
{
closed = 1;
nodes = (
"71 0 LINE",
"132 0 LINE",
"132 62 LINE",
"71 62 LINE"
);
}
);
width = 208;
},
{
layerId = "043C55D1-ADA8-4506-BB55-8127E14D1A36";
paths = (
{
closed = 1;
nodes = (
"222 248 LINE",
"247 667 LINE",
"33 667 LINE",
"60 248 LINE"
);
},
{
closed = 1;
nodes = (
"51 -1 LINE",
"234 -1 LINE",
"234 185 LINE",
"51 185 LINE"
);
}
);
width = 280;
}
);
leftKerningGroup = exclam;
note = exclam;
unicode = 0021;
},
{
glyphname = exclamdown;
lastChange = "2017-11-04 17:37:11 +0000";
layers = (
{
layerId = "C74BD54B-DC3B-4084-AB10-E48D432FD11D";
paths = (
{
closed = 1;
nodes = (
"83 -178 LINE",
"125 -178 LINE",
"114 328 LINE",
"94 328 LINE"
);
},
{
closed = 1;
nodes = (
"132 427 LINE",
"132 489 LINE",
"71 489 LINE",
"71 427 LINE"
);
}
);
width = 208;
},
{
layerId = "043C55D1-ADA8-4506-BB55-8127E14D1A36";
paths = (
{
closed = 1;
nodes = (
"33 -178 LINE",
"247 -178 LINE",
"222 241 LINE",
"60 241 LINE"
);
},
{
closed = 1;
nodes = (
"234 304 LINE",
"234 490 LINE",
"51 490 LINE",
"51 304 LINE"
);
}
);
width = 280;
}
);
leftKerningGroup = exclam;
note = exclam;
unicode = 00A1;
},
{
glyphname = numbersign;
lastChange = "2017-11-04 01:48:59 +0000";
layers = (
{
layerId = "C74BD54B-DC3B-4084-AB10-E48D432FD11D";
paths = (
{
closed = 1;
nodes = (
"267 0 LINE",
"331 191 LINE",
"451 191 LINE",
"460 220 LINE",
"340 220 LINE",
"417 447 LINE",
"534 447 LINE",
"541 476 LINE",
"426 476 LINE",
"490 667 LINE",
"457 667 LINE",
"394 476 LINE",
"270 476 LINE",
"333 667 LINE",
"300 667 LINE",
"237 476 LINE",
"118 476 LINE",
"110 447 LINE",
"227 447 LINE",
"151 220 LINE",
"35 220 LINE",
"26 191 LINE",
"141 191 LINE",
"77 0 LINE",
"110 0 LINE",
"174 191 LINE",
"299 191 LINE",
"234 0 LINE"
);
},
{
closed = 1;
nodes = (
"307 220 LINE",
"184 220 LINE",
"260 447 LINE",
"384 447 LINE"
);
}
);
width = 567;
},
{
layerId = "043C55D1-ADA8-4506-BB55-8127E14D1A36";
paths = (
{
closed = 1;
nodes = (
"377 0 LINE",
"429 158 LINE",
"523 158 LINE",
"557 267 LINE",
"466 267 LINE",
"510 399 LINE",
"601 399 LINE",
"634 507 LINE",
"546 507 LINE",
"600 667 LINE",
"473 667 LINE",
"420 507 LINE",
"342 507 LINE",
"395 667 LINE",
"268 667 LINE",
"215 507 LINE",
"125 507 LINE",
"91 399 LINE",
"178 399 LINE",
"135 267 LINE",
"47 267 LINE",
"12 158 LINE",
"98 158 LINE",
"45 0 LINE",
"172 0 LINE",
"224 158 LINE",
"303 158 LINE",
"250 0 LINE"
);
},
{
closed = 1;
nodes = (
"339 267 LINE",
"262 267 LINE",
"305 399 LINE",
"383 399 LINE"
);
}
);
width = 646;
}
);
note = numbersign;
unicode = 0023;
},
{
glyphname = period;
lastChange = "2017-11-04 14:12:10 +0000";
layers = (
{
layerId = "C74BD54B-DC3B-4084-AB10-E48D432FD11D";
paths = (
{
closed = 1;
nodes = (
"71 0 LINE",
"132 0 LINE",
"132 62 LINE",
"71 62 LINE"
);
}
);
width = 208;
},
{
layerId = "043C55D1-ADA8-4506-BB55-8127E14D1A36";
paths = (
{
closed = 1;
nodes = (
"51 -1 LINE",
"234 -1 LINE",
"234 185 LINE",
"51 185 LINE"
);
}
);
width = 283;
}
);
leftKerningGroup = comma;
note = period;
rightKerningGroup = comma;
unicode = 002E;
},
{
glyphname = question;
lastChange = "2017-11-04 14:17:58 +0000";
layers = (
{
layerId = "C74BD54B-DC3B-4084-AB10-E48D432FD11D";
paths = (
{
closed = 1;
nodes = (
"235 168 LINE",
"235 198 OFFCURVE",
"235 224 OFFCURVE",
"235 244 CURVE SMOOTH",
"235 355 OFFCURVE",
"426 374 OFFCURVE",
"426 524 CURVE SMOOTH",
"426 609 OFFCURVE",
"353 677 OFFCURVE",
"240 677 CURVE SMOOTH",
"147 677 OFFCURVE",
"76 641 OFFCURVE",
"26 570 CURVE",
"49 549 LINE",
"94 613 OFFCURVE",
"149 647 OFFCURVE",
"240 647 CURVE SMOOTH",
"335 647 OFFCURVE",
"391 593 OFFCURVE",
"391 524 CURVE SMOOTH",
"391 385 OFFCURVE",
"205 381 OFFCURVE",
"205 244 CURVE SMOOTH",
"205 215 OFFCURVE",
"205 196 OFFCURVE",
"205 168 CURVE"
);
},
{
closed = 1;
nodes = (
"188 0 LINE",
"249 0 LINE",
"249 62 LINE",
"188 62 LINE"
);
}
);
width = 467;
},
{
layerId = "043C55D1-ADA8-4506-BB55-8127E14D1A36";
paths = (
{
closed = 1;
nodes = (
"310 237 LINE",
"310 267 OFFCURVE",
"310 280 OFFCURVE",
"310 297 CURVE SMOOTH",
"310 365 OFFCURVE",
"442 375 OFFCURVE",
"442 516 CURVE SMOOTH",
"442 615 OFFCURVE",
"357 677 OFFCURVE",
"222 677 CURVE SMOOTH",
"144 677 OFFCURVE",
"58 648 OFFCURVE",
"0 586 CURVE",
"112 457 LINE",
"137 483 OFFCURVE",
"173 499 OFFCURVE",
"199 499 CURVE SMOOTH",
"230 499 OFFCURVE",
"238 490 OFFCURVE",
"238 478 CURVE SMOOTH",
"238 447 OFFCURVE",
"136 428 OFFCURVE",
"136 319 CURVE SMOOTH",
"136 279 OFFCURVE",
"136 267 OFFCURVE",
"136 237 CURVE"
);
},
{
closed = 1;
nodes = (
"131 -1 LINE",
"314 -1 LINE",
"314 185 LINE",
"131 185 LINE"
);
}
);
width = 450;
}
);
leftKerningGroup = question;
note = question;
unicode = 003F;
},
{
glyphname = questiondown;
lastChange = "2017-11-04 17:40:05 +0000";
layers = (
{
layerId = "C74BD54B-DC3B-4084-AB10-E48D432FD11D";
paths = (
{
closed = 1;
nodes = (
"232 338 LINE",
"232 308 OFFCURVE",
"232 282 OFFCURVE",
"232 262 CURVE SMOOTH",
"232 151 OFFCURVE",
"41 132 OFFCURVE",
"41 -18 CURVE SMOOTH",
"41 -103 OFFCURVE",
"114 -171 OFFCURVE",
"227 -171 CURVE SMOOTH",
"320 -171 OFFCURVE",
"391 -135 OFFCURVE",
"441 -64 CURVE",
"418 -43 LINE",
"373 -107 OFFCURVE",
"318 -141 OFFCURVE",
"227 -141 CURVE SMOOTH",
"132 -141 OFFCURVE",
"76 -87 OFFCURVE",
"76 -18 CURVE SMOOTH",
"76 121 OFFCURVE",
"262 125 OFFCURVE",
"262 262 CURVE SMOOTH",
"262 291 OFFCURVE",
"262 310 OFFCURVE",
"262 338 CURVE"
);
},
{
closed = 1;
nodes = (
"279 506 LINE",
"218 506 LINE",
"218 444 LINE",
"279 444 LINE"
);
}
);
width = 467;
},
{
layerId = "043C55D1-ADA8-4506-BB55-8127E14D1A36";
paths = (
{
closed = 1;
nodes = (
"140 268 LINE",
"140 238 OFFCURVE",
"140 225 OFFCURVE",
"140 208 CURVE SMOOTH",
"140 140 OFFCURVE",
"8 130 OFFCURVE",
"8 -11 CURVE SMOOTH",
"8 -110 OFFCURVE",
"93 -172 OFFCURVE",
"228 -172 CURVE SMOOTH",
"306 -172 OFFCURVE",
"392 -143 OFFCURVE",
"450 -81 CURVE",
"338 48 LINE",
"313 22 OFFCURVE",
"277 6 OFFCURVE",
"251 6 CURVE SMOOTH",
"220 6 OFFCURVE",
"212 15 OFFCURVE",
"212 27 CURVE SMOOTH",
"212 58 OFFCURVE",
"314 77 OFFCURVE",
"314 186 CURVE SMOOTH",
"314 226 OFFCURVE",
"314 238 OFFCURVE",
"314 268 CURVE"
);
},
{
closed = 1;
nodes = (
"319 506 LINE",
"136 506 LINE",
"136 320 LINE",
"319 320 LINE"
);
}
);
width = 450;
}
);
leftKerningGroup = question;
note = question;
unicode = 00BF;
},
{
glyphname = quotedbl;
lastChange = "2017-11-04 17:30:49 +0000";
layers = (
{
layerId = "C74BD54B-DC3B-4084-AB10-E48D432FD11D";
paths = (
{
closed = 1;
nodes = (
"70 612 LINE",
"119 612 LINE",
"119 674 LINE",
"70 674 LINE"
);
},
{
closed = 1;
nodes = (
"84 455 LINE",
"105 455 LINE",
"119 612 LINE",
"70 612 LINE"
);
},
{
closed = 1;
nodes = (
"171 612 LINE",
"220 612 LINE",
"220 674 LINE",
"171 674 LINE"
);
},
{
closed = 1;
nodes = (
"185 455 LINE",
"206 455 LINE",
"220 612 LINE",
"171 612 LINE"
);
}
);
width = 290;
},
{
layerId = "043C55D1-ADA8-4506-BB55-8127E14D1A36";
paths = (
{
closed = 1;
nodes = (
"60 536 LINE",
"209 536 LINE",
"209 674 LINE",
"60 674 LINE"
);
},
{
closed = 1;
nodes = (
"103 333 LINE",
"166 333 LINE",
"209 536 LINE",
"60 536 LINE"
);
},
{
closed = 1;
nodes = (
"251 536 LINE",
"400 536 LINE",
"400 674 LINE",
"251 674 LINE"
);
},
{
closed = 1;
nodes = (
"294 333 LINE",
"357 333 LINE",
"400 536 LINE",
"251 536 LINE"
);
}
);
width = 460;
}
);
leftKerningGroup = quotedbl;
note = quotedbl;
rightKerningGroup = quotedbl;
unicode = 0022;
},
{
glyphname = quotesingle;
lastChange = "2017-11-04 17:28:06 +0000";
layers = (
{
layerId = "C74BD54B-DC3B-4084-AB10-E48D432FD11D";
paths = (
{
closed = 1;
nodes = (
"62 612 LINE",
"111 612 LINE",
"111 674 LINE",
"62 674 LINE"
);
},
{
closed = 1;
nodes = (
"76 455 LINE",
"97 455 LINE",
"111 612 LINE",
"62 612 LINE"
);
}
);
width = 176;
},
{
layerId = "043C55D1-ADA8-4506-BB55-8127E14D1A36";
paths = (
{
closed = 1;
nodes = (
"51 536 LINE",
"200 536 LINE",
"200 674 LINE",
"51 674 LINE"
);
},
{
closed = 1;
nodes = (
"94 333 LINE",
"157 333 LINE",
"200 536 LINE",
"51 536 LINE"
);
}
);
width = 252;
}
);
leftKerningGroup = quotedbl;
note = quotesingle;
rightKerningGroup = quotedbl;
unicode = 0027;
},
{
glyphname = semicolon;
lastChange = "2017-11-04 17:33:23 +0000";
layers = (
{
layerId = "C74BD54B-DC3B-4084-AB10-E48D432FD11D";
paths = (
{
closed = 1;
nodes = (
"74 -7 LINE",
"135 -7 LINE",
"135 55 LINE",
"74 55 LINE"
);
},
{
closed = 1;
nodes = (
"63 -93 LINE",
"84 -110 LINE",
"135 -7 LINE",
"102 -7 LINE"
);
},
{
closed = 1;
nodes = (
"74 426 LINE",
"135 426 LINE",
"135 488 LINE",
"74 488 LINE"
);
}
);
width = 208;
},
{
layerId = "043C55D1-ADA8-4506-BB55-8127E14D1A36";
paths = (
{
closed = 1;
nodes = (
"49 -10 LINE",
"232 -10 LINE",
"232 176 LINE",
"49 176 LINE"
);
},
{
closed = 1;
nodes = (
"69 -101 LINE",
"120 -144 LINE",
"232 -10 LINE",
"108 -10 LINE"
);
},
{
closed = 1;
nodes = (
"49 303 LINE",
"232 303 LINE",
"232 489 LINE",
"49 489 LINE"
);
}
);
width = 281;
}
);
leftKerningGroup = colon;
note = semicolon;
rightKerningGroup = colon;
unicode = 003B;
},
{
glyphname = slash;
lastChange = "2017-11-04 01:33:52 +0000";
layers = (
{
layerId = "C74BD54B-DC3B-4084-AB10-E48D432FD11D";
paths = (
{
closed = 1;
nodes = (
"237 687 LINE",
"0 -20 LINE",
"31 -20 LINE",
"268 687 LINE"
);
}
);
width = 268;
},
{
layerId = "043C55D1-ADA8-4506-BB55-8127E14D1A36";
paths = (
{
closed = 1;
nodes = (
"237 687 LINE",
"0 -20 LINE",
"125 -20 LINE",
"362 687 LINE"
);
}
);
width = 362;
}
);
note = slash;
unicode = 002F;
},
{
glyphname = underscore;
lastChange = "2017-11-04 02:13:01 +0000";
layers = (
{
layerId = "C74BD54B-DC3B-4084-AB10-E48D432FD11D";
paths = (
{
closed = 1;
nodes = (
"-3 -40 LINE",
"-3 -70 LINE",
"567 -70 LINE",
"567 -40 LINE"
);
}
);
width = 564;
},
{
layerId = "043C55D1-ADA8-4506-BB55-8127E14D1A36";
paths = (
{
closed = 1;
nodes = (
"-3 -40 LINE",
"-3 -154 LINE",
"567 -154 LINE",
"567 -40 LINE"
);
}
);
width = 564;
}
);
note = underscore;
unicode = 005F;
},
{
glyphname = braceleft;
lastChange = "2017-11-04 02:25:23 +0000";
layers = (
{
layerId = "C74BD54B-DC3B-4084-AB10-E48D432FD11D";
paths = (
{
closed = 1;
nodes = (
"7 339 LINE",
"40 339 OFFCURVE",
"59 307 OFFCURVE",
"59 267 CURVE SMOOTH",
"59 33 LINE SMOOTH",
"59 -32 OFFCURVE",
"106 -80 OFFCURVE",
"158 -80 CURVE SMOOTH",
"220 -80 LINE",
"220 -50 LINE",
"158 -50 LINE SMOOTH",
"121 -50 OFFCURVE",
"89 -14 OFFCURVE",
"89 33 CURVE SMOOTH",
"89 267 LINE SMOOTH",
"89 312 OFFCURVE",
"74 341 OFFCURVE",
"44 354 CURVE",
"74 367 OFFCURVE",
"89 396 OFFCURVE",
"89 441 CURVE SMOOTH",
"89 675 LINE SMOOTH",
"89 722 OFFCURVE",
"121 758 OFFCURVE",
"158 758 CURVE SMOOTH",
"220 758 LINE",
"220 788 LINE",
"158 788 LINE SMOOTH",
"106 788 OFFCURVE",
"59 740 OFFCURVE",
"59 675 CURVE SMOOTH",
"59 441 LINE SMOOTH",
"59 401 OFFCURVE",
"40 369 OFFCURVE",
"7 369 CURVE"
);
}
);
width = 237;
},
{
layerId = "043C55D1-ADA8-4506-BB55-8127E14D1A36";
paths = (
{
closed = 1;
nodes = (
"2 309 LINE",
"37 309 OFFCURVE",
"54 282 OFFCURVE",
"54 245 CURVE SMOOTH",
"54 106 LINE SMOOTH",
"54 -10 OFFCURVE",
"142 -78 OFFCURVE",
"239 -78 CURVE SMOOTH",
"299 -78 LINE",
"299 36 LINE",
"239 36 LINE SMOOTH",
"206 36 OFFCURVE",
"179 64 OFFCURVE",
"179 107 CURVE SMOOTH",
"179 265 LINE SMOOTH",
"179 307 OFFCURVE",
"166 342 OFFCURVE",
"133 356 CURVE",
"166 370 OFFCURVE",
"179 405 OFFCURVE",
"179 447 CURVE SMOOTH",
"179 606 LINE SMOOTH",
"179 650 OFFCURVE",
"206 676 OFFCURVE",
"239 676 CURVE SMOOTH",
"299 676 LINE",
"299 790 LINE",
"239 790 LINE SMOOTH",
"142 790 OFFCURVE",
"54 721 OFFCURVE",
"54 605 CURVE SMOOTH",
"54 467 LINE SMOOTH",
"54 430 OFFCURVE",
"37 403 OFFCURVE",
"2 403 CURVE"
);
}
);
width = 317;
}
);
note = braceleft;
rightKerningGroup = parenleft;
unicode = 007B;
},
{
glyphname = braceright;
lastChange = "2017-11-04 02:24:26 +0000";
layers = (
{
layerId = "C74BD54B-DC3B-4084-AB10-E48D432FD11D";
paths = (
{
closed = 1;
nodes = (
"197 369 OFFCURVE",
"178 401 OFFCURVE",
"178 441 CURVE SMOOTH",
"178 675 LINE SMOOTH",
"178 740 OFFCURVE",
"131 788 OFFCURVE",
"79 788 CURVE SMOOTH",
"17 788 LINE",
"17 758 LINE",
"79 758 LINE SMOOTH",
"116 758 OFFCURVE",
"148 722 OFFCURVE",
"148 675 CURVE SMOOTH",
"148 441 LINE SMOOTH",
"148 396 OFFCURVE",
"163 367 OFFCURVE",
"193 354 CURVE",
"163 341 OFFCURVE",
"148 312 OFFCURVE",
"148 267 CURVE SMOOTH",
"148 33 LINE SMOOTH",
"148 -14 OFFCURVE",
"116 -50 OFFCURVE",
"79 -50 CURVE SMOOTH",
"17 -50 LINE",
"17 -80 LINE",
"79 -80 LINE SMOOTH",
"131 -80 OFFCURVE",
"178 -32 OFFCURVE",
"178 33 CURVE SMOOTH",
"178 267 LINE SMOOTH",
"178 307 OFFCURVE",
"197 339 OFFCURVE",
"230 339 CURVE",
"230 369 LINE"
);
}
);
width = 237;
},
{
layerId = "043C55D1-ADA8-4506-BB55-8127E14D1A36";
paths = (
{
closed = 1;
nodes = (
"279 403 OFFCURVE",
"262 430 OFFCURVE",
"262 467 CURVE SMOOTH",
"262 605 LINE SMOOTH",
"262 721 OFFCURVE",
"174 790 OFFCURVE",
"77 790 CURVE SMOOTH",
"17 790 LINE",
"17 676 LINE",
"77 676 LINE SMOOTH",
"110 676 OFFCURVE",
"137 650 OFFCURVE",
"137 606 CURVE SMOOTH",
"137 447 LINE SMOOTH",
"137 405 OFFCURVE",
"150 370 OFFCURVE",
"183 356 CURVE",
"150 342 OFFCURVE",
"137 307 OFFCURVE",
"137 265 CURVE SMOOTH",
"137 107 LINE SMOOTH",
"137 64 OFFCURVE",
"110 36 OFFCURVE",
"77 36 CURVE SMOOTH",
"17 36 LINE",
"17 -78 LINE",
"77 -78 LINE SMOOTH",
"174 -78 OFFCURVE",
"262 -10 OFFCURVE",
"262 106 CURVE SMOOTH",
"262 245 LINE SMOOTH",
"262 282 OFFCURVE",
"279 309 OFFCURVE",
"314 309 CURVE",
"314 403 LINE"
);
}
);
width = 316;
}
);
note = braceleft;
rightKerningGroup = parenleft;
unicode = 007D;
},
{
glyphname = bracketleft;
lastChange = "2017-11-04 02:34:23 +0000";
layers = (
{
layerId = "C74BD54B-DC3B-4084-AB10-E48D432FD11D";
paths = (
{
closed = 1;
nodes = (
"64 -48 LINE",
"64 760 LINE",
"195 760 LINE",
"195 790 LINE",
"34 790 LINE",
"34 -78 LINE",
"195 -78 LINE",
"195 -48 LINE"
);
}
);
width = 212;
},
{
layerId = "043C55D1-ADA8-4506-BB55-8127E14D1A36";
paths = (
{
closed = 1;
nodes = (
"179 36 LINE",
"179 676 LINE",
"299 676 LINE",
"299 790 LINE",
"54 790 LINE",
"54 -78 LINE",
"299 -78 LINE",
"299 36 LINE"
);
}
);
width = 317;
}
);
note = bracketleft;
rightKerningGroup = parenleft;
unicode = 005B;
},
{
glyphname = bracketright;
lastChange = "2017-11-04 02:34:23 +0000";
layers = (
{
layerId = "C74BD54B-DC3B-4084-AB10-E48D432FD11D";
paths = (
{
closed = 1;
nodes = (
"17 790 LINE",
"17 760 LINE",
"148 760 LINE",
"148 -48 LINE",
"17 -48 LINE",
"17 -78 LINE",
"178 -78 LINE",
"178 790 LINE"
);
}
);
width = 212;
},
{
layerId = "043C55D1-ADA8-4506-BB55-8127E14D1A36";
paths = (
{
closed = 1;
nodes = (
"18 790 LINE",
"18 676 LINE",
"138 676 LINE",
"138 36 LINE",
"18 36 LINE",
"18 -78 LINE",
"263 -78 LINE",
"263 790 LINE"
);
}
);
width = 317;
}
);
leftKerningGroup = parenright;
note = bracketright;
unicode = 005D;
},
{
glyphname = parenleft;
lastChange = "2017-11-04 02:34:23 +0000";
layers = (
{
layerId = "C74BD54B-DC3B-4084-AB10-E48D432FD11D";
paths = (
{
closed = 1;
nodes = (
"189 -82 LINE",
"117 67 OFFCURVE",
"82 183 OFFCURVE",
"82 348 CURVE SMOOTH",
"82 515 OFFCURVE",
"117 627 OFFCURVE",
"189 779 CURVE",
"173 790 LINE",
"89 653 OFFCURVE",
"47 505 OFFCURVE",
"47 348 CURVE SMOOTH",
"47 191 OFFCURVE",
"89 43 OFFCURVE",
"173 -94 CURVE"
);
}
);
width = 206;
},
{
layerId = "043C55D1-ADA8-4506-BB55-8127E14D1A36";
paths = (
{
closed = 1;
nodes = (
"328 -5 LINE",
"257 110 OFFCURVE",
"230 215 OFFCURVE",
"230 348 CURVE SMOOTH",
"230 482 OFFCURVE",
"257 586 OFFCURVE",
"328 703 CURVE",
"214 790 LINE",
"108 695 OFFCURVE",
"37 509 OFFCURVE",
"37 348 CURVE SMOOTH",
"37 187 OFFCURVE",
"108 1 OFFCURVE",
"214 -94 CURVE"
);
}
);
width = 346;
}
);
note = parenleft;
rightKerningGroup = parenleft;
unicode = 0028;
},
{
glyphname = parenright;
lastChange = "2017-11-04 02:34:23 +0000";
layers = (
{
layerId = "C74BD54B-DC3B-4084-AB10-E48D432FD11D";
paths = (
{
closed = 1;
nodes = (
"17 779 LINE",
"89 627 OFFCURVE",
"124 515 OFFCURVE",
"124 348 CURVE SMOOTH",
"124 183 OFFCURVE",
"89 67 OFFCURVE",
"17 -82 CURVE",
"33 -94 LINE",
"117 43 OFFCURVE",
"159 191 OFFCURVE",
"159 348 CURVE SMOOTH",
"159 505 OFFCURVE",
"117 653 OFFCURVE",
"33 790 CURVE"
);
}
);
width = 206;
},
{
layerId = "043C55D1-ADA8-4506-BB55-8127E14D1A36";
paths = (
{
closed = 1;
nodes = (
"19 703 LINE",
"90 586 OFFCURVE",
"117 482 OFFCURVE",
"117 348 CURVE SMOOTH",
"117 215 OFFCURVE",
"90 110 OFFCURVE",
"19 -5 CURVE",
"133 -94 LINE",
"239 1 OFFCURVE",
"310 187 OFFCURVE",
"310 348 CURVE SMOOTH",
"310 509 OFFCURVE",
"239 695 OFFCURVE",
"133 790 CURVE"
);
}
);
width = 347;
}
);
leftKerningGroup = parenright;
note = parenright;
unicode = 0029;
},
{
glyphname = emdash;
lastChange = "2017-11-04 02:36:55 +0000";
layers = (
{
layerId = "C74BD54B-DC3B-4084-AB10-E48D432FD11D";
paths = (
{
closed = 1;
nodes = (
"803 227 LINE",
"803 257 LINE",
"30 257 LINE",
"30 227 LINE"
);
}
);
width = 833;
},
{
layerId = "043C55D1-ADA8-4506-BB55-8127E14D1A36";
paths = (
{
closed = 1;
nodes = (
"803 167 LINE",
"803 317 LINE",
"30 317 LINE",
"30 167 LINE"
);
}
);
width = 833;
}
);
leftKerningGroup = hyphen;
note = emdash;
rightKerningGroup = hyphen;
unicode = 2014;
},
{
glyphname = endash;
lastChange = "2017-11-04 02:36:55 +0000";
layers = (
{
layerId = "C74BD54B-DC3B-4084-AB10-E48D432FD11D";
paths = (
{
closed = 1;
nodes = (
"563 227 LINE",
"563 257 LINE",
"30 257 LINE",
"30 227 LINE"
);
}
);
width = 593;
},
{
layerId = "043C55D1-ADA8-4506-BB55-8127E14D1A36";
paths = (
{
closed = 1;
nodes = (
"563 167 LINE",
"563 317 LINE",
"30 317 LINE",
"30 167 LINE"
);
}
);
width = 593;
}
);
leftKerningGroup = hyphen;
note = endash;
rightKerningGroup = hyphen;
unicode = 2013;
},
{
glyphname = hyphen;
lastChange = "2017-11-04 02:36:55 +0000";
layers = (
{
layerId = "C74BD54B-DC3B-4084-AB10-E48D432FD11D";
paths = (
{
closed = 1;
nodes = (
"270 227 LINE",
"270 257 LINE",
"30 257 LINE",
"30 227 LINE"
);
}
);
width = 300;
},
{
layerId = "043C55D1-ADA8-4506-BB55-8127E14D1A36";
paths = (
{
closed = 1;
nodes = (
"270 167 LINE",
"270 317 LINE",
"30 317 LINE",
"30 167 LINE"
);
}
);
width = 300;
}
);
leftKerningGroup = hyphen;
note = hyphen;
rightKerningGroup = hyphen;
unicode = 002D;
},
{
glyphname = emdash.case;
lastChange = "2017-11-04 02:36:55 +0000";
layers = (
{
layerId = "C74BD54B-DC3B-4084-AB10-E48D432FD11D";
paths = (
{
closed = 1;
nodes = (
"803 326 LINE",
"803 356 LINE",
"30 356 LINE",
"30 326 LINE"
);
}
);
width = 833;
},
{
layerId = "043C55D1-ADA8-4506-BB55-8127E14D1A36";
paths = (
{
closed = 1;
nodes = (
"803 266 LINE",
"803 416 LINE",
"30 416 LINE",
"30 266 LINE"
);
}
);
width = 833;
}
);
leftKerningGroup = hyphen.case;
note = emdash.case;
rightKerningGroup = hyphen.case;
unicode = F6BC;
},
{
glyphname = endash.case;
lastChange = "2017-11-04 02:36:55 +0000";
layers = (
{
layerId = "C74BD54B-DC3B-4084-AB10-E48D432FD11D";
paths = (
{
closed = 1;
nodes = (
"563 326 LINE",
"563 356 LINE",
"30 356 LINE",
"30 326 LINE"
);
}
);
width = 593;
},
{
layerId = "043C55D1-ADA8-4506-BB55-8127E14D1A36";
paths = (
{
closed = 1;
nodes = (
"563 266 LINE",
"563 416 LINE",
"30 416 LINE",
"30 266 LINE"
);
}
);
width = 593;
}
);
leftKerningGroup = hyphen.case;
note = endash.case;
rightKerningGroup = hyphen.case;
unicode = F6BB;
},
{
glyphname = hyphen.case;
lastChange = "2017-11-04 02:36:55 +0000";
layers = (
{
layerId = "C74BD54B-DC3B-4084-AB10-E48D432FD11D";
paths = (
{
closed = 1;
nodes = (
"270 326 LINE",
"270 356 LINE",
"30 356 LINE",
"30 326 LINE"
);
}
);
width = 300;
},
{
layerId = "043C55D1-ADA8-4506-BB55-8127E14D1A36";
paths = (
{
closed = 1;
nodes = (
"270 266 LINE",
"270 416 LINE",
"30 416 LINE",
"30 266 LINE"
);
}
);
width = 300;
}
);
leftKerningGroup = hyphen.case;
note = hyphen.case;
rightKerningGroup = hyphen.case;
unicode = F6BA;
},
{
glyphname = guillemotleft;
lastChange = "2017-11-04 02:36:55 +0000";
layers = (
{
layerId = "C74BD54B-DC3B-4084-AB10-E48D432FD11D";
paths = (
{
closed = 1;
nodes = (
"334 63 LINE",
"174 243 LINE",
"334 420 LINE",
"295 420 LINE",
"135 243 LINE",
"295 63 LINE"
);
},
{
closed = 1;
nodes = (
"229 63 LINE",
"69 243 LINE",
"229 420 LINE",
"190 420 LINE",
"30 243 LINE",
"190 63 LINE"
);
}
);
width = 364;
},
{
layerId = "043C55D1-ADA8-4506-BB55-8127E14D1A36";
paths = (
{
closed = 1;
nodes = (
"585 63 LINE",
"425 243 LINE",
"585 420 LINE",
"425 420 LINE",
"265 243 LINE",
"425 63 LINE"
);
},
{
closed = 1;
nodes = (
"350 63 LINE",
"190 243 LINE",
"350 420 LINE",
"190 420 LINE",
"30 243 LINE",
"190 63 LINE"
);
}
);
width = 615;
}
);
note = guillemotleft;
unicode = 00AB;
},
{
glyphname = guillemotright;
lastChange = "2017-11-04 02:36:55 +0000";
layers = (
{
layerId = "C74BD54B-DC3B-4084-AB10-E48D432FD11D";
paths = (
{
closed = 1;
nodes = (
"229 243 LINE",
"69 420 LINE",
"30 420 LINE",
"190 243 LINE",
"30 63 LINE",
"69 63 LINE"
);
},
{
closed = 1;
nodes = (
"334 243 LINE",
"174 420 LINE",
"135 420 LINE",
"295 243 LINE",
"135 63 LINE",
"174 63 LINE"
);
}
);
width = 364;
},
{
layerId = "043C55D1-ADA8-4506-BB55-8127E14D1A36";
paths = (
{
closed = 1;
nodes = (
"350 243 LINE",
"190 420 LINE",
"30 420 LINE",
"190 243 LINE",
"30 63 LINE",
"190 63 LINE"
);
},
{
closed = 1;
nodes = (
"585 243 LINE",
"425 420 LINE",
"265 420 LINE",
"425 243 LINE",
"265 63 LINE",
"425 63 LINE"
);
}
);
width = 615;
}
);
note = guillemotright;
unicode = 00BB;
},
{
glyphname = guilsinglleft;
lastChange = "2017-11-04 02:36:55 +0000";
layers = (
{
layerId = "C74BD54B-DC3B-4084-AB10-E48D432FD11D";
paths = (
{
closed = 1;
nodes = (
"229 63 LINE",
"69 243 LINE",
"229 420 LINE",
"190 420 LINE",
"30 243 LINE",
"190 63 LINE"
);
}
);
width = 259;
},
{
layerId = "043C55D1-ADA8-4506-BB55-8127E14D1A36";
paths = (
{
closed = 1;
nodes = (
"350 63 LINE",
"190 243 LINE",
"350 420 LINE",
"190 420 LINE",
"30 243 LINE",
"190 63 LINE"
);
}
);
width = 380;
}
);
note = guilsinglleft;
unicode = 2039;
},
{
glyphname = guilsinglright;
lastChange = "2017-11-04 02:36:55 +0000";
layers = (
{
layerId = "C74BD54B-DC3B-4084-AB10-E48D432FD11D";
paths = (
{
closed = 1;
nodes = (
"229 243 LINE",
"69 420 LINE",
"30 420 LINE",
"190 243 LINE",
"30 63 LINE",
"69 63 LINE"
);
}
);
width = 259;
},
{
layerId = "043C55D1-ADA8-4506-BB55-8127E14D1A36";
paths = (
{
closed = 1;
nodes = (
"350 243 LINE",
"190 420 LINE",
"30 420 LINE",
"190 243 LINE",
"30 63 LINE",
"190 63 LINE"
);
}
);
width = 380;
}
);
note = guilsinglright;
unicode = 203A;
},
{
glyphname = quotedblleft;
lastChange = "2017-11-04 17:51:24 +0000";
layers = (
{
layerId = "C74BD54B-DC3B-4084-AB10-E48D432FD11D";
paths = (
{
closed = 1;
nodes = (
"241 571 LINE",
"180 571 LINE",
"180 509 LINE",
"241 509 LINE"
);
},
{
closed = 1;
nodes = (
"252 657 LINE",
"231 674 LINE",
"180 571 LINE",
"213 571 LINE"
);
},
{
closed = 1;
nodes = (
"133 571 LINE",
"72 571 LINE",
"72 509 LINE",
"133 509 LINE"
);
},
{
closed = 1;
nodes = (
"144 657 LINE",
"123 674 LINE",
"72 571 LINE",
"105 571 LINE"
);
}
);
width = 331;
},
{
layerId = "043C55D1-ADA8-4506-BB55-8127E14D1A36";
paths = (
{
closed = 1;
nodes = (
"461 540 LINE",
"278 540 LINE",
"278 354 LINE",
"461 354 LINE"
);
},
{
closed = 1;
nodes = (
"441 631 LINE",
"390 674 LINE",
"278 540 LINE",
"402 540 LINE"
);
},
{
closed = 1;
nodes = (
"232 540 LINE",
"49 540 LINE",
"49 354 LINE",
"232 354 LINE"
);
},
{
closed = 1;
nodes = (
"212 631 LINE",
"161 674 LINE",
"49 540 LINE",
"173 540 LINE"
);
}
);
width = 528;
}
);
leftKerningGroup = quotedbl;
note = quotedblleft;
rightKerningGroup = quotedbl;
unicode = 201C;
},
{
glyphname = quotedblright;
lastChange = "2017-11-04 17:52:52 +0000";
layers = (
{
layerId = "C74BD54B-DC3B-4084-AB10-E48D432FD11D";
paths = (
{
closed = 1;
nodes = (
"90 609 LINE",
"151 609 LINE",
"151 671 LINE",
"90 671 LINE"
);
},
{
closed = 1;
nodes = (
"79 523 LINE",
"100 506 LINE",
"151 609 LINE",
"118 609 LINE"
);
},
{
closed = 1;
nodes = (
"198 609 LINE",
"259 609 LINE",
"259 671 LINE",
"198 671 LINE"
);
},
{
closed = 1;
nodes = (
"187 523 LINE",
"208 506 LINE",
"259 609 LINE",
"226 609 LINE"
);
}
);
width = 331;
},
{
layerId = "043C55D1-ADA8-4506-BB55-8127E14D1A36";
paths = (
{
closed = 1;
nodes = (
"67 486 LINE",
"250 486 LINE",
"250 672 LINE",
"67 672 LINE"
);
},
{
closed = 1;
nodes = (
"87 395 LINE",
"138 352 LINE",
"250 486 LINE",
"126 486 LINE"
);
},
{
closed = 1;
nodes = (
"296 486 LINE",
"479 486 LINE",
"479 672 LINE",
"296 672 LINE"
);
},
{
closed = 1;
nodes = (
"316 395 LINE",
"367 352 LINE",
"479 486 LINE",
"355 486 LINE"
);
}
);
width = 528;
}
);
leftKerningGroup = quotedbl;
note = quotedblleft;
rightKerningGroup = quotedbl;
unicode = 201D;
},
{
glyphname = quoteleft;
lastChange = "2017-11-04 17:48:15 +0000";
layers = (
{
layerId = "C74BD54B-DC3B-4084-AB10-E48D432FD11D";
paths = (
{
closed = 1;
nodes = (
"134 571 LINE",
"73 571 LINE",
"73 509 LINE",
"134 509 LINE"
);
},
{
closed = 1;
nodes = (
"145 657 LINE",
"124 674 LINE",
"73 571 LINE",
"106 571 LINE"
);
}
);
width = 208;
},
{
layerId = "043C55D1-ADA8-4506-BB55-8127E14D1A36";
paths = (
{
closed = 1;
nodes = (
"232 540 LINE",
"49 540 LINE",
"49 354 LINE",
"232 354 LINE"
);
},
{
closed = 1;
nodes = (
"212 631 LINE",
"161 674 LINE",
"49 540 LINE",
"173 540 LINE"
);
}
);
width = 281;
}
);
leftKerningGroup = comma;
note = comma;
rightKerningGroup = comma;
unicode = 2018;
},
{
glyphname = quotereversed;
lastChange = "2017-11-04 17:53:27 +0000";
layers = (
{
layerId = "C74BD54B-DC3B-4084-AB10-E48D432FD11D";
paths = (
{
closed = 1;
nodes = (
"73 675 LINE",
"73 613 LINE",
"134 613 LINE",
"134 675 LINE"
);
},
{
closed = 1;
nodes = (
"73 613 LINE",
"124 510 LINE",
"145 527 LINE",
"106 613 LINE"
);
}
);
width = 208;
},
{
layerId = "043C55D1-ADA8-4506-BB55-8127E14D1A36";
paths = (
{
closed = 1;
nodes = (
"49 678 LINE",
"49 492 LINE",
"232 492 LINE",
"232 678 LINE"
);
},
{
closed = 1;
nodes = (
"49 492 LINE",
"161 358 LINE",
"212 401 LINE",
"173 492 LINE"
);
}
);
width = 281;
}
);
leftKerningGroup = comma;
note = comma;
rightKerningGroup = comma;
unicode = 201B;
},
{
glyphname = quoteright;
lastChange = "2017-11-04 17:45:56 +0000";
layers = (
{
layerId = "C74BD54B-DC3B-4084-AB10-E48D432FD11D";
paths = (
{
closed = 1;
nodes = (
"74 613 LINE",
"135 613 LINE",
"135 675 LINE",
"74 675 LINE"
);
},
{
closed = 1;
nodes = (
"63 527 LINE",
"84 510 LINE",
"135 613 LINE",
"102 613 LINE"
);
}
);
width = 208;
},
{
layerId = "043C55D1-ADA8-4506-BB55-8127E14D1A36";
paths = (
{
closed = 1;
nodes = (
"49 492 LINE",
"232 492 LINE",
"232 678 LINE",
"49 678 LINE"
);
},
{
closed = 1;
nodes = (
"69 401 LINE",
"120 358 LINE",
"232 492 LINE",
"108 492 LINE"
);
}
);
width = 281;
}
);
leftKerningGroup = comma;
note = comma;
rightKerningGroup = comma;
unicode = 2019;
},
{
glyphname = guillemotleft.case;
lastChange = "2017-11-04 02:40:31 +0000";
layers = (
{
layerId = "C74BD54B-DC3B-4084-AB10-E48D432FD11D";
paths = (
{
closed = 1;
nodes = (
"334 519 LINE",
"295 519 LINE",
"135 342 LINE",
"295 162 LINE",
"334 162 LINE",
"174 342 LINE"
);
},
{
closed = 1;
nodes = (
"229 519 LINE",
"190 519 LINE",
"30 342 LINE",
"190 162 LINE",
"229 162 LINE",
"69 342 LINE"
);
}
);
width = 364;
},
{
layerId = "043C55D1-ADA8-4506-BB55-8127E14D1A36";
paths = (
{
closed = 1;
nodes = (
"585 519 LINE",
"425 519 LINE",
"265 342 LINE",
"425 162 LINE",
"585 162 LINE",
"425 342 LINE"
);
},
{
closed = 1;
nodes = (
"350 519 LINE",
"190 519 LINE",
"30 342 LINE",
"190 162 LINE",
"350 162 LINE",
"190 342 LINE"
);
}
);
width = 615;
}
);
note = guillemotleft.case;
unicode = F6B6;
},
{
glyphname = guillemotright.case;
lastChange = "2017-11-04 02:40:31 +0000";
layers = (
{
layerId = "C74BD54B-DC3B-4084-AB10-E48D432FD11D";
paths = (
{
closed = 1;
nodes = (
"30 519 LINE",
"190 342 LINE",
"30 162 LINE",
"69 162 LINE",
"229 342 LINE",
"69 519 LINE"
);
},
{
closed = 1;
nodes = (
"135 519 LINE",
"295 342 LINE",
"135 162 LINE",
"174 162 LINE",
"334 342 LINE",
"174 519 LINE"
);
}
);
width = 364;
},
{
layerId = "043C55D1-ADA8-4506-BB55-8127E14D1A36";
paths = (
{
closed = 1;
nodes = (
"30 519 LINE",
"190 342 LINE",
"30 162 LINE",
"190 162 LINE",
"350 342 LINE",
"190 519 LINE"
);
},
{
closed = 1;
nodes = (
"265 519 LINE",
"425 342 LINE",
"265 162 LINE",
"425 162 LINE",
"585 342 LINE",
"425 519 LINE"
);
}
);
width = 615;
}
);
note = guillemotright.case;
unicode = F6B7;
},
{
glyphname = guilsinglleft.case;
lastChange = "2017-11-04 02:40:31 +0000";
layers = (
{
layerId = "C74BD54B-DC3B-4084-AB10-E48D432FD11D";
paths = (
{
closed = 1;
nodes = (
"229 519 LINE",
"190 519 LINE",
"30 342 LINE",
"190 162 LINE",
"229 162 LINE",
"69 342 LINE"
);
}
);
width = 259;
},
{
layerId = "043C55D1-ADA8-4506-BB55-8127E14D1A36";
paths = (
{
closed = 1;
nodes = (
"350 519 LINE",
"190 519 LINE",
"30 342 LINE",
"190 162 LINE",
"350 162 LINE",
"190 342 LINE"
);
}
);
width = 380;
}
);
note = guilsinglleft.case;
unicode = F6B8;
},
{
glyphname = guilsinglright.case;
lastChange = "2017-11-04 02:40:31 +0000";
layers = (
{
layerId = "C74BD54B-DC3B-4084-AB10-E48D432FD11D";
paths = (
{
closed = 1;
nodes = (
"30 519 LINE",
"190 342 LINE",
"30 162 LINE",
"69 162 LINE",
"229 342 LINE",
"69 519 LINE"
);
}
);
width = 259;
},
{
layerId = "043C55D1-ADA8-4506-BB55-8127E14D1A36";
paths = (
{
closed = 1;
nodes = (
"30 519 LINE",
"190 342 LINE",
"30 162 LINE",
"190 162 LINE",
"350 342 LINE",
"190 519 LINE"
);
}
);
width = 380;
}
);
note = guilsinglright.case;
unicode = F6B9;
},
{
glyphname = .notdef;
lastChange = "2017-11-04 13:53:06 +0000";
layers = (
{
layerId = "C74BD54B-DC3B-4084-AB10-E48D432FD11D";
paths = (
{
closed = 1;
nodes = (
"439 -90 LINE",
"439 752 LINE",
"88 752 LINE",
"88 -90 LINE"
);
},
{
closed = 1;
nodes = (
"407 -60 LINE",
"119 -60 LINE",
"119 722 LINE",
"407 722 LINE"
);
}
);
width = 527;
},
{
layerId = "043C55D1-ADA8-4506-BB55-8127E14D1A36";
paths = (
{
closed = 1;
nodes = (
"405 -90 LINE",
"405 752 LINE",
"54 752 LINE",
"54 -90 LINE"
);
},
{
closed = 1;
nodes = (
"373 -60 LINE",
"85 -60 LINE",
"85 722 LINE",
"373 722 LINE"
);
}
);
width = 459;
}
);
note = .notdef;
},
{
glyphname = Euro;
lastChange = "2017-11-02 22:26:27 +0000";
layers = (
{
layerId = "C74BD54B-DC3B-4084-AB10-E48D432FD11D";
paths = (
{
closed = 1;
nodes = (
"511 -12 OFFCURVE",
"588 23 OFFCURVE",
"651 94 CURVE",
"625 115 LINE",
"577 55 OFFCURVE",
"501 18 OFFCURVE",
"418 18 CURVE SMOOTH",
"278 18 OFFCURVE",
"163 108 OFFCURVE",
"130 247 CURVE",
"478 247 LINE",
"478 277 LINE",
"124 277 LINE",
"121 301 OFFCURVE",
"120 320 OFFCURVE",
"120 333 CURVE SMOOTH",
"120 355 OFFCURVE",
"121 374 OFFCURVE",
"124 391 CURVE",
"478 391 LINE",
"478 421 LINE",
"130 421 LINE",
"163 558 OFFCURVE",
"278 648 OFFCURVE",
"418 648 CURVE SMOOTH",
"501 648 OFFCURVE",
"577 611 OFFCURVE",
"625 551 CURVE",
"650 573 LINE",
"589 643 OFFCURVE",
"512 678 OFFCURVE",
"418 678 CURVE SMOOTH",
"261 678 OFFCURVE",
"130 576 OFFCURVE",
"94 421 CURVE",
"39 421 LINE",
"39 391 LINE",
"89 391 LINE",
"86 366 OFFCURVE",
"85 346 OFFCURVE",
"85 333 CURVE SMOOTH",
"85 312 OFFCURVE",
"86 293 OFFCURVE",
"89 277 CURVE",
"39 277 LINE",
"39 247 LINE",
"94 247 LINE",
"129 91 OFFCURVE",
"259 -12 OFFCURVE",
"418 -12 CURVE SMOOTH"
);
}
);
width = 684;
},
{
layerId = "043C55D1-ADA8-4506-BB55-8127E14D1A36";
paths = (
{
closed = 1;
nodes = (
"585 -12 OFFCURVE",
"674 94 OFFCURVE",
"713 183 CURVE",
"539 263 LINE",
"522 211 OFFCURVE",
"470 166 OFFCURVE",
"410 166 CURVE SMOOTH",
"359 166 OFFCURVE",
"318 186 OFFCURVE",
"289 218 CURVE",
"470 218 LINE",
"470 313 LINE",
"249 313 LINE",
"248 319 OFFCURVE",
"248 326 OFFCURVE",
"248 333 CURVE SMOOTH",
"248 341 OFFCURVE",
"248 348 OFFCURVE",
"249 356 CURVE",
"470 356 LINE",
"470 451 LINE",
"292 451 LINE",
"320 481 OFFCURVE",
"361 500 OFFCURVE",
"410 500 CURVE SMOOTH",
"470 500 OFFCURVE",
"522 455 OFFCURVE",
"539 403 CURVE",
"713 484 LINE",
"673 576 OFFCURVE",
"585 678 OFFCURVE",
"410 678 CURVE SMOOTH",
"244 678 OFFCURVE",
"110 590 OFFCURVE",
"62 451 CURVE",
"12 451 LINE",
"12 356 LINE",
"44 356 LINE",
"43 348 OFFCURVE",
"43 340 OFFCURVE",
"43 333 CURVE SMOOTH",
"43 313 LINE",
"12 313 LINE",
"12 218 LINE",
"61 218 LINE",
"108 77 OFFCURVE",
"243 -12 OFFCURVE",
"410 -12 CURVE SMOOTH"
);
}
);
width = 722;
}
);
note = Euro;
unicode = 20AC;
},
{
glyphname = afii57636;
lastChange = "2017-11-02 22:26:27 +0000";
layers = (
{
layerId = "C74BD54B-DC3B-4084-AB10-E48D432FD11D";
paths = (
{
closed = 1;
nodes = (
"639 0 OFFCURVE",
"714 71 OFFCURVE",
"714 207 CURVE SMOOTH",
"714 550 LINE",
"682 550 LINE",
"682 207 LINE SMOOTH",
"682 88 OFFCURVE",
"621 29 OFFCURVE",
"498 29 CURVE SMOOTH",
"315 29 LINE",
"315 399 LINE",
"283 399 LINE",
"283 0 LINE",
"498 0 LINE SMOOTH"
);
},
{
closed = 1;
nodes = (
"86 0 LINE",
"118 0 LINE",
"118 521 LINE",
"301 521 LINE SMOOTH",
"424 521 OFFCURVE",
"485 462 OFFCURVE",
"485 343 CURVE SMOOTH",
"485 150 LINE",
"517 150 LINE",
"517 343 LINE SMOOTH",
"517 479 OFFCURVE",
"442 550 OFFCURVE",
"301 550 CURVE SMOOTH",
"86 550 LINE"
);
}
);
width = 800;
},
{
layerId = "043C55D1-ADA8-4506-BB55-8127E14D1A36";
paths = (
{
closed = 1;
nodes = (
"50 550 LINE",
"50 0 LINE",
"218 0 LINE",
"218 397 LINE",
"375 397 LINE SMOOTH",
"442 397 OFFCURVE",
"451 366 OFFCURVE",
"451 308 CURVE SMOOTH",
"451 190 LINE",
"619 190 LINE",
"619 325 LINE SMOOTH",
"619 462 OFFCURVE",
"569 550 OFFCURVE",
"375 550 CURVE SMOOTH"
);
},
{
closed = 1;
nodes = (
"575 0 LINE SMOOTH",
"769 0 OFFCURVE",
"819 88 OFFCURVE",
"819 225 CURVE SMOOTH",
"819 550 LINE",
"651 550 LINE",
"651 242 LINE SMOOTH",
"651 184 OFFCURVE",
"642 153 OFFCURVE",
"575 153 CURVE SMOOTH",
"418 153 LINE",
"418 359 LINE",
"250 359 LINE",
"250 0 LINE"
);
}
);
width = 869;
}
);
note = afii57636;
unicode = 20AA;
},
{
glyphname = cent;
lastChange = "2017-11-02 22:26:27 +0000";
layers = (
{
layerId = "C74BD54B-DC3B-4084-AB10-E48D432FD11D";
paths = (
{
closed = 1;
nodes = (
"292 -12 LINE",
"356 -11 OFFCURVE",
"410 16 OFFCURVE",
"453 69 CURVE",
"431 88 LINE",
"395 39 OFFCURVE",
"349 15 OFFCURVE",
"292 15 CURVE",
"292 468 LINE",
"349 467 OFFCURVE",
"396 443 OFFCURVE",
"431 396 CURVE",
"453 414 LINE",
"410 467 OFFCURVE",
"356 494 OFFCURVE",
"292 495 CURVE",
"292 565 LINE",
"262 565 LINE",
"262 493 LINE",
"139 480 OFFCURVE",
"60 375 OFFCURVE",
"60 242 CURVE SMOOTH",
"60 109 OFFCURVE",
"139 3 OFFCURVE",
"262 -10 CURVE",
"262 -100 LINE",
"292 -100 LINE"
);
},
{
closed = 1;
nodes = (
"168 435 OFFCURVE",
"209 459 OFFCURVE",
"262 466 CURVE",
"262 16 LINE",
"158 29 OFFCURVE",
"93 123 OFFCURVE",
"93 242 CURVE SMOOTH",
"93 301 OFFCURVE",
"108 352 OFFCURVE",
"138 394 CURVE SMOOTH"
);
}
);
width = 493;
},
{
layerId = "043C55D1-ADA8-4506-BB55-8127E14D1A36";
paths = (
{
closed = 1;
nodes = (
"229 -100 LINE",
"355 -100 LINE",
"355 -5 LINE",
"426 10 OFFCURVE",
"472 48 OFFCURVE",
"493 79 CURVE",
"377 189 LINE",
"362 167 OFFCURVE",
"334 147 OFFCURVE",
"296 147 CURVE SMOOTH",
"245 147 OFFCURVE",
"201 180 OFFCURVE",
"201 242 CURVE SMOOTH",
"201 304 OFFCURVE",
"245 336 OFFCURVE",
"296 336 CURVE SMOOTH",
"334 336 OFFCURVE",
"362 318 OFFCURVE",
"377 295 CURVE",
"493 404 LINE",
"472 436 OFFCURVE",
"426 473 OFFCURVE",
"355 488 CURVE",
"355 565 LINE",
"229 565 LINE",
"229 490 LINE",
"106 467 OFFCURVE",
"17 374 OFFCURVE",
"17 242 CURVE SMOOTH",
"17 108 OFFCURVE",
"106 15 OFFCURVE",
"229 -7 CURVE"
);
}
);
width = 502;
}
);
leftKerningGroup = c;
note = cent;
rightKerningGroup = c;
unicode = 00A2;
},
{
glyphname = colonmonetary;
lastChange = "2017-11-02 22:26:27 +0000";
layers = (
{
layerId = "C74BD54B-DC3B-4084-AB10-E48D432FD11D";
paths = (
{
closed = 1;
nodes = (
"491 -12 OFFCURVE",
"568 23 OFFCURVE",
"631 94 CURVE",
"605 115 LINE",
"557 55 OFFCURVE",
"481 18 OFFCURVE",
"398 18 CURVE SMOOTH",
"388 18 OFFCURVE",
"381 18 OFFCURVE",
"376 19 CURVE",
"567 588 LINE",
"580 577 OFFCURVE",
"593 565 OFFCURVE",
"605 551 CURVE",
"630 573 LINE",
"613 592 OFFCURVE",
"596 608 OFFCURVE",
"578 621 CURVE",
"628 768 LINE",
"597 768 LINE",
"553 637 LINE",
"523 654 OFFCURVE",
"493 665 OFFCURVE",
"463 671 CURVE",
"496 768 LINE",
"465 768 LINE",
"434 676 LINE",
"418 677 OFFCURVE",
"406 678 OFFCURVE",
"398 678 CURVE SMOOTH",
"210 678 OFFCURVE",
"65 534 OFFCURVE",
"65 333 CURVE SMOOTH",
"65 204 OFFCURVE",
"124 98 OFFCURVE",
"219 38 CURVE",
"173 -100 LINE",
"204 -100 LINE",
"245 23 LINE",
"274 8 OFFCURVE",
"305 -1 OFFCURVE",
"336 -6 CURVE",
"305 -100 LINE",
"336 -100 LINE",
"365 -10 LINE",
"380 -11 OFFCURVE",
"391 -12 OFFCURVE",
"398 -12 CURVE SMOOTH"
);
},
{
closed = 1;
nodes = (
"100 518 OFFCURVE",
"229 648 OFFCURVE",
"398 648 CURVE SMOOTH",
"410 648 OFFCURVE",
"419 648 OFFCURVE",
"424 647 CURVE",
"230 69 LINE",
"149 124 OFFCURVE",
"100 220 OFFCURVE",
"100 333 CURVE SMOOTH"
);
},
{
closed = 1;
nodes = (
"485 636 OFFCURVE",
"514 624 OFFCURVE",
"542 606 CURVE",
"346 22 LINE",
"312 28 OFFCURVE",
"282 38 OFFCURVE",
"256 53 CURVE",
"454 642 LINE"
);
}
);
width = 667;
},
{
layerId = "043C55D1-ADA8-4506-BB55-8127E14D1A36";
paths = (
{
closed = 1;
nodes = (
"656 768 LINE",
"561 768 LINE",
"524 656 LINE",
"510 662 OFFCURVE",
"494 666 OFFCURVE",
"478 669 CURVE",
"510 768 LINE",
"415 768 LINE",
"385 677 LINE",
"182 672 OFFCURVE",
"30 535 OFFCURVE",
"30 333 CURVE SMOOTH",
"30 209 OFFCURVE",
"87 109 OFFCURVE",
"179 49 CURVE",
"130 -100 LINE",
"225 -100 LINE",
"261 10 LINE",
"276 5 OFFCURVE",
"292 0 OFFCURVE",
"308 -3 CURVE",
"276 -100 LINE",
"371 -100 LINE",
"400 -12 LINE",
"573 -11 OFFCURVE",
"661 94 OFFCURVE",
"700 183 CURVE",
"526 263 LINE",
"509 211 OFFCURVE",
"457 166 OFFCURVE",
"397 166 CURVE SMOOTH",
"300 166 OFFCURVE",
"235 240 OFFCURVE",
"235 333 CURVE SMOOTH",
"235 426 OFFCURVE",
"300 500 OFFCURVE",
"397 500 CURVE SMOOTH",
"457 500 OFFCURVE",
"509 455 OFFCURVE",
"526 403 CURVE",
"700 484 LINE",
"681 528 OFFCURVE",
"650 574 OFFCURVE",
"605 611 CURVE"
);
}
);
width = 712;
}
);
note = colonmonetary;
unicode = 20A1;
},
{
glyphname = currency;
lastChange = "2017-11-02 22:26:27 +0000";
layers = (
{
layerId = "C74BD54B-DC3B-4084-AB10-E48D432FD11D";
paths = (
{
closed = 1;
nodes = (
"350 99 OFFCURVE",
"402 119 OFFCURVE",
"443 158 CURVE",
"523 78 LINE",
"544 99 LINE",
"463 180 LINE",
"496 223 OFFCURVE",
"513 274 OFFCURVE",
"513 333 CURVE SMOOTH",
"513 394 OFFCURVE",
"496 445 OFFCURVE",
"462 487 CURVE",
"544 569 LINE",
"523 590 LINE",
"442 509 LINE",
"401 547 OFFCURVE",
"349 566 OFFCURVE",
"288 566 CURVE SMOOTH",
"227 566 OFFCURVE",
"176 547 OFFCURVE",
"134 508 CURVE",
"52 591 LINE",
"31 570 LINE",
"114 487 LINE",
"80 445 OFFCURVE",
"63 394 OFFCURVE",
"63 333 CURVE SMOOTH",
"63 274 OFFCURVE",
"80 223 OFFCURVE",
"113 180 CURVE",
"32 99 LINE",
"53 78 LINE",
"133 158 LINE",
"174 119 OFFCURVE",
"225 99 OFFCURVE",
"288 99 CURVE SMOOTH"
);
},
{
closed = 1;
nodes = (
"171 129 OFFCURVE",
"96 221 OFFCURVE",
"96 333 CURVE SMOOTH",
"96 444 OFFCURVE",
"171 536 OFFCURVE",
"288 536 CURVE SMOOTH",
"407 536 OFFCURVE",
"480 445 OFFCURVE",
"480 333 CURVE SMOOTH",
"480 221 OFFCURVE",
"407 129 OFFCURVE",
"288 129 CURVE SMOOTH"
);
}
);
width = 577;
},
{
layerId = "043C55D1-ADA8-4506-BB55-8127E14D1A36";
paths = (
{
closed = 1;
nodes = (
"486 137 LINE",
"430 193 LINE",
"462 233 OFFCURVE",
"480 283 OFFCURVE",
"480 333 CURVE SMOOTH",
"480 384 OFFCURVE",
"462 434 OFFCURVE",
"430 473 CURVE",
"486 530 LINE",
"457 558 LINE",
"401 502 LINE",
"362 534 OFFCURVE",
"311 552 OFFCURVE",
"261 552 CURVE SMOOTH",
"210 552 OFFCURVE",
"160 535 OFFCURVE",
"121 502 CURVE",
"64 558 LINE",
"36 530 LINE",
"92 473 LINE",
"60 434 OFFCURVE",
"42 384 OFFCURVE",
"42 333 CURVE SMOOTH",
"42 283 OFFCURVE",
"60 233 OFFCURVE",
"92 193 CURVE",
"36 137 LINE",
"64 108 LINE",
"121 165 LINE",
"160 132 OFFCURVE",
"210 114 OFFCURVE",
"261 114 CURVE SMOOTH",
"311 114 OFFCURVE",
"362 132 OFFCURVE",
"401 165 CURVE",
"457 108 LINE"
);
},
{
closed = 1;
nodes = (
"432 239 OFFCURVE",
"355 162 OFFCURVE",
"261 162 CURVE SMOOTH",
"167 162 OFFCURVE",
"90 239 OFFCURVE",
"90 333 CURVE SMOOTH",
"90 428 OFFCURVE",
"167 504 OFFCURVE",
"261 504 CURVE SMOOTH",
"355 504 OFFCURVE",
"432 428 OFFCURVE",
"432 333 CURVE SMOOTH"
);
}
);
width = 522;
}
);
note = currency;
unicode = 00A4;
},
{
glyphname = dollar;
lastChange = "2017-11-02 22:26:27 +0000";
layers = (
{
layerId = "C74BD54B-DC3B-4084-AB10-E48D432FD11D";
paths = (
{
closed = 1;
nodes = (
"307 -11 LINE",
"384 -7 OFFCURVE",
"443 19 OFFCURVE",
"472 56 CURVE SMOOTH",
"501 92 OFFCURVE",
"514 129 OFFCURVE",
"514 169 CURVE SMOOTH",
"514 193 OFFCURVE",
"510 215 OFFCURVE",
"502 235 CURVE SMOOTH",
"485 274 OFFCURVE",
"464 296 OFFCURVE",
"424 318 CURVE SMOOTH",
"383 340 OFFCURVE",
"358 347 OFFCURVE",
"307 362 CURVE",
"307 647 LINE",
"378 642 OFFCURVE",
"433 613 OFFCURVE",
"474 561 CURVE",
"499 584 LINE",
"452 641 OFFCURVE",
"388 672 OFFCURVE",
"307 677 CURVE",
"307 768 LINE",
"275 768 LINE",
"275 678 LINE",
"163 675 OFFCURVE",
"74 609 OFFCURVE",
"74 508 CURVE SMOOTH",
"74 486 OFFCURVE",
"78 466 OFFCURVE",
"86 449 CURVE SMOOTH",
"102 414 OFFCURVE",
"121 395 OFFCURVE",
"162 376 CURVE SMOOTH",
"202 356 OFFCURVE",
"223 351 OFFCURVE",
"275 336 CURVE",
"275 18 LINE",
"195 21 OFFCURVE",
"130 54 OFFCURVE",
"79 117 CURVE",
"53 94 LINE",
"101 33 OFFCURVE",
"180 -9 OFFCURVE",
"275 -12 CURVE",
"275 -100 LINE",
"307 -100 LINE"
);
},
{
closed = 1;
nodes = (
"479 136 OFFCURVE",
"469 105 OFFCURVE",
"445 74 CURVE SMOOTH",
"420 43 OFFCURVE",
"371 22 OFFCURVE",
"307 18 CURVE",
"307 327 LINE",
"328 320 OFFCURVE",
"346 315 OFFCURVE",
"360 310 CURVE SMOOTH",
"388 300 OFFCURVE",
"425 280 OFFCURVE",
"445 260 CURVE",
"464 239 OFFCURVE",
"479 208 OFFCURVE",
"479 169 CURVE SMOOTH"
);
},
{
closed = 1;
nodes = (
"109 587 OFFCURVE",
"180 645 OFFCURVE",
"275 648 CURVE",
"275 371 LINE",
"222 387 OFFCURVE",
"196 396 OFFCURVE",
"161 417 CURVE SMOOTH",
"125 438 OFFCURVE",
"109 468 OFFCURVE",
"109 508 CURVE SMOOTH"
);
}
);
width = 575;
},
{
layerId = "043C55D1-ADA8-4506-BB55-8127E14D1A36";
paths = (
{
closed = 1;
nodes = (
"262 -100 LINE",
"390 -100 LINE",
"390 -8 LINE",
"532 10 OFFCURVE",
"616 91 OFFCURVE",
"616 220 CURVE SMOOTH",
"616 468 OFFCURVE",
"245 414 OFFCURVE",
"245 477 CURVE SMOOTH",
"245 494 OFFCURVE",
"256 507 OFFCURVE",
"296 507 CURVE SMOOTH",
"359 507 OFFCURVE",
"434 485 OFFCURVE",
"492 441 CURVE",
"600 584 LINE",
"541 632 OFFCURVE",
"470 661 OFFCURVE",
"390 672 CURVE",
"390 768 LINE",
"262 768 LINE",
"262 673 LINE",
"115 654 OFFCURVE",
"40 557 OFFCURVE",
"40 456 CURVE SMOOTH",
"40 193 OFFCURVE",
"412 258 OFFCURVE",
"412 194 CURVE SMOOTH",
"412 168 OFFCURVE",
"376 158 OFFCURVE",
"338 158 CURVE SMOOTH",
"248 158 OFFCURVE",
"173 196 OFFCURVE",
"123 244 CURVE",
"18 94 LINE",
"77 40 OFFCURVE",
"155 2 OFFCURVE",
"262 -8 CURVE"
);
}
);
width = 635;
}
);
note = dollar;
unicode = 0024;
},
{
glyphname = dong;
lastChange = "2017-11-02 22:28:10 +0000";
layers = (
{
layerId = "C74BD54B-DC3B-4084-AB10-E48D432FD11D";
paths = (
{
closed = 1;
nodes = (
"118 -92 LINE",
"118 -119 LINE",
"481 -119 LINE",
"481 -92 LINE"
);
},
{
closed = 1;
nodes = (
"557 541 LINE",
"557 568 LINE",
"480 568 LINE",
"480 667 LINE",
"450 667 LINE",
"450 568 LINE",
"284 568 LINE",
"284 541 LINE",
"450 541 LINE",
"450 400 LINE",
"410 459 OFFCURVE",
"347 495 OFFCURVE",
"276 495 CURVE SMOOTH",
"147 495 OFFCURVE",
"60 393 OFFCURVE",
"60 241 CURVE SMOOTH",
"60 88 OFFCURVE",
"145 -12 OFFCURVE",
"276 -12 CURVE SMOOTH",
"348 -12 OFFCURVE",
"415 28 OFFCURVE",
"450 81 CURVE",
"450 0 LINE",
"480 0 LINE",
"480 541 LINE"
);
},
{
closed = 1;
nodes = (
"161 15 OFFCURVE",
"93 109 OFFCURVE",
"93 241 CURVE SMOOTH",
"93 373 OFFCURVE",
"161 468 OFFCURVE",
"276 468 CURVE SMOOTH",
"348 468 OFFCURVE",
"418 423 OFFCURVE",
"450 370 CURVE",
"450 111 LINE",
"418 58 OFFCURVE",
"348 15 OFFCURVE",
"276 15 CURVE SMOOTH"
);
}
);
width = 569;
},
{
layerId = "043C55D1-ADA8-4506-BB55-8127E14D1A36";
width = 600;
}
);
note = dong;
unicode = 20AB;
},
{
glyphname = florin;
lastChange = "2017-11-02 22:26:27 +0000";
layers = (
{
layerId = "C74BD54B-DC3B-4084-AB10-E48D432FD11D";
paths = (
{
closed = 1;
nodes = (
"335 267 LINE",
"335 297 LINE",
"173 297 LINE",
"226 534 LINE SMOOTH",
"241 605 OFFCURVE",
"287 647 OFFCURVE",
"347 647 CURVE SMOOTH",
"369 647 OFFCURVE",
"386 639 OFFCURVE",
"399 623 CURVE",
"422 647 LINE",
"403 667 OFFCURVE",
"378 677 OFFCURVE",
"347 677 CURVE SMOOTH",
"271 677 OFFCURVE",
"214 623 OFFCURVE",
"194 534 CURVE SMOOTH",
"141 297 LINE",
"55 297 LINE",
"55 267 LINE",
"135 267 LINE",
"40 -161 LINE",
"72 -161 LINE",
"167 267 LINE"
);
}
);
width = 412;
},
{
layerId = "043C55D1-ADA8-4506-BB55-8127E14D1A36";
paths = (
{
closed = 1;
nodes = (
"196 -161 LINE",
"282 223 LINE",
"403 223 LINE",
"403 379 LINE",
"316 379 LINE",
"334 459 LINE SMOOTH",
"341 487 OFFCURVE",
"363 501 OFFCURVE",
"386 501 CURVE SMOOTH",
"405 501 OFFCURVE",
"419 494 OFFCURVE",
"429 481 CURVE",
"500 628 LINE",
"465 665 OFFCURVE",
"415 677 OFFCURVE",
"359 677 CURVE SMOOTH",
"252 677 OFFCURVE",
"159 606 OFFCURVE",
"137 506 CURVE SMOOTH",
"109 379 LINE",
"35 379 LINE",
"35 223 LINE",
"75 223 LINE",
"-10 -161 LINE"
);
}
);
width = 477;
}
);
note = florin;
unicode = 0192;
},
{
glyphname = frenchfranc;
lastChange = "2017-11-02 22:26:27 +0000";
layers = (
{
layerId = "C74BD54B-DC3B-4084-AB10-E48D432FD11D";
paths = (
{
closed = 1;
nodes = (
"375 161 LINE",
"375 188 LINE",
"132 188 LINE",
"132 328 LINE",
"501 328 LINE",
"501 358 LINE",
"132 358 LINE",
"132 637 LINE",
"508 637 LINE",
"508 667 LINE",
"100 667 LINE",
"100 188 LINE",
"12 188 LINE",
"12 161 LINE",
"100 161 LINE",
"100 0 LINE",
"132 0 LINE",
"132 161 LINE"
);
}
);
width = 545;
},
{
layerId = "043C55D1-ADA8-4506-BB55-8127E14D1A36";
paths = (
{
closed = 1;
nodes = (
"263 0 LINE",
"263 81 LINE",
"370 81 LINE",
"370 178 LINE",
"263 178 LINE",
"263 249 LINE",
"560 249 LINE",
"560 425 LINE",
"263 425 LINE",
"263 491 LINE",
"567 491 LINE",
"567 667 LINE",
"61 667 LINE",
"61 178 LINE",
"7 178 LINE",
"7 81 LINE",
"61 81 LINE",
"61 0 LINE"
);
}
);
width = 599;
}
);
note = frenchfranc;
unicode = 20A3;
},
{
glyphname = lira;
lastChange = "2017-11-02 22:26:27 +0000";
layers = (
{
layerId = "C74BD54B-DC3B-4084-AB10-E48D432FD11D";
paths = (
{
closed = 1;
nodes = (
"167 290 OFFCURVE",
"187 262 OFFCURVE",
"194 238 CURVE",
"17 238 LINE",
"17 208 LINE",
"198 208 LINE",
"198 207 OFFCURVE",
"198 206 OFFCURVE",
"198 205 CURVE",
"199 203 LINE",
"199 132 OFFCURVE",
"148 69 OFFCURVE",
"47 26 CURVE",
"61 -7 LINE",
"114 20 OFFCURVE",
"154 34 OFFCURVE",
"180 34 CURVE SMOOTH",
"209 34 OFFCURVE",
"239 26 OFFCURVE",
"268 10 CURVE SMOOTH",
"297 -6 OFFCURVE",
"327 -14 OFFCURVE",
"358 -14 CURVE SMOOTH",
"409 -14 OFFCURVE",
"450 1 OFFCURVE",
"482 32 CURVE",
"464 59 LINE",
"448 39 OFFCURVE",
"403 16 OFFCURVE",
"360 16 CURVE SMOOTH",
"340 16 OFFCURVE",
"314 24 OFFCURVE",
"282 40 CURVE SMOOTH",
"249 56 OFFCURVE",
"221 64 OFFCURVE",
"198 64 CURVE SMOOTH",
"180 64 OFFCURVE",
"162 61 OFFCURVE",
"143 54 CURVE",
"198 95 OFFCURVE",
"229 136 OFFCURVE",
"229 203 CURVE",
"228 205 LINE",
"228 206 OFFCURVE",
"228 207 OFFCURVE",
"228 208 CURVE",
"346 208 LINE",
"346 238 LINE",
"224 238 LINE",
"218 263 OFFCURVE",
"201 292 OFFCURVE",
"172 323 CURVE",
"346 323 LINE",
"346 353 LINE",
"144 353 LINE",
"104 397 OFFCURVE",
"84 442 OFFCURVE",
"84 489 CURVE SMOOTH",
"84 586 OFFCURVE",
"162 647 OFFCURVE",
"259 647 CURVE SMOOTH",
"328 647 OFFCURVE",
"388 603 OFFCURVE",
"408 555 CURVE",
"434 573 LINE",
"403 636 OFFCURVE",
"332 677 OFFCURVE",
"259 677 CURVE SMOOTH",
"138 677 OFFCURVE",
"51 589 OFFCURVE",
"51 489 CURVE SMOOTH",
"51 440 OFFCURVE",
"70 394 OFFCURVE",
"107 353 CURVE",
"17 353 LINE",
"17 323 LINE",
"136 323 LINE"
);
}
);
width = 491;
},
{
layerId = "043C55D1-ADA8-4506-BB55-8127E14D1A36";
paths = (
{
closed = 1;
nodes = (
"26 339 LINE",
"87 339 LINE",
"94 327 OFFCURVE",
"101 316 OFFCURVE",
"107 304 CURVE",
"26 304 LINE",
"26 220 LINE",
"131 220 LINE",
"130 178 OFFCURVE",
"85 147 OFFCURVE",
"46 125 CURVE",
"112 -7 LINE",
"150 15 OFFCURVE",
"191 30 OFFCURVE",
"226 30 CURVE SMOOTH",
"272 30 OFFCURVE",
"324 -12 OFFCURVE",
"409 -12 CURVE SMOOTH",
"493 -12 OFFCURVE",
"542 11 OFFCURVE",
"569 40 CURVE",
"492 199 LINE",
"479 181 OFFCURVE",
"456 166 OFFCURVE",
"416 166 CURVE SMOOTH",
"373 166 OFFCURVE",
"355 191 OFFCURVE",
"302 191 CURVE SMOOTH",
"291 191 OFFCURVE",
"274 190 OFFCURVE",
"259 185 CURVE",
"272 193 OFFCURVE",
"283 205 OFFCURVE",
"292 220 CURVE",
"419 220 LINE",
"419 304 LINE",
"308 304 LINE",
"306 317 OFFCURVE",
"304 328 OFFCURVE",
"301 339 CURVE",
"419 339 LINE",
"419 423 LINE",
"268 423 LINE",
"265 433 OFFCURVE",
"263 444 OFFCURVE",
"263 456 CURVE SMOOTH",
"263 488 OFFCURVE",
"289 515 OFFCURVE",
"329 515 CURVE SMOOTH",
"361 515 OFFCURVE",
"391 497 OFFCURVE",
"406 455 CURVE",
"566 547 LINE",
"518 639 OFFCURVE",
"434 677 OFFCURVE",
"303 677 CURVE SMOOTH",
"189 677 OFFCURVE",
"42 604 OFFCURVE",
"42 460 CURVE SMOOTH",
"42 447 OFFCURVE",
"44 435 OFFCURVE",
"47 423 CURVE",
"26 423 LINE"
);
}
);
width = 581;
}
);
note = lira;
unicode = 20A4;
},
{
glyphname = peseta;
lastChange = "2017-11-02 22:26:27 +0000";
layers = (
{
layerId = "C74BD54B-DC3B-4084-AB10-E48D432FD11D";
paths = (
{
closed = 1;
nodes = (
"525 492 LINE",
"518 592 OFFCURVE",
"444 667 OFFCURVE",
"331 667 CURVE SMOOTH",
"100 667 LINE",
"100 492 LINE",
"12 492 LINE",
"12 462 LINE",
"100 462 LINE",
"100 0 LINE",
"132 0 LINE",
"132 289 LINE",
"331 289 LINE SMOOTH",
"443 289 OFFCURVE",
"518 363 OFFCURVE",
"525 462 CURVE",
"604 462 LINE",
"604 492 LINE"
);
},
{
closed = 1;
nodes = (
"422 637 OFFCURVE",
"483 579 OFFCURVE",
"490 492 CURVE",
"132 492 LINE",
"132 637 LINE",
"330 637 LINE SMOOTH"
);
},
{
closed = 1;
nodes = (
"132 462 LINE",
"490 462 LINE",
"483 377 OFFCURVE",
"421 319 OFFCURVE",
"330 319 CURVE SMOOTH",
"132 319 LINE"
);
}
);
width = 608;
},
{
layerId = "043C55D1-ADA8-4506-BB55-8127E14D1A36";
paths = (
{
closed = 1;
nodes = (
"711 360 LINE",
"711 457 LINE",
"653 457 LINE",
"636 575 OFFCURVE",
"554 667 OFFCURVE",
"417 667 CURVE SMOOTH",
"61 667 LINE",
"61 457 LINE",
"7 457 LINE",
"7 360 LINE",
"61 360 LINE",
"61 0 LINE",
"263 0 LINE",
"263 150 LINE",
"417 150 LINE SMOOTH",
"554 150 OFFCURVE",
"636 242 OFFCURVE",
"653 360 CURVE"
);
},
{
closed = 1;
nodes = (
"263 326 LINE",
"263 360 LINE",
"443 360 LINE",
"432 337 OFFCURVE",
"413 326 OFFCURVE",
"391 326 CURVE SMOOTH"
);
},
{
closed = 1;
nodes = (
"263 491 LINE",
"391 491 LINE SMOOTH",
"413 491 OFFCURVE",
"431 479 OFFCURVE",
"442 457 CURVE",
"263 457 LINE"
);
}
);
width = 715;
}
);
note = peseta;
unicode = 20A7;
},
{
glyphname = rupee;
lastChange = "2017-11-02 22:26:27 +0000";
layers = (
{
layerId = "C74BD54B-DC3B-4084-AB10-E48D432FD11D";
paths = (
{
closed = 1;
nodes = (
"852 -12 OFFCURVE",
"913 47 OFFCURVE",
"913 127 CURVE SMOOTH",
"913 161 OFFCURVE",
"902 188 OFFCURVE",
"881 209 CURVE",
"838 249 OFFCURVE",
"773 261 OFFCURVE",
"713 276 CURVE SMOOTH",
"652 291 OFFCURVE",
"603 318 OFFCURVE",
"603 367 CURVE SMOOTH",
"603 426 OFFCURVE",
"654 468 OFFCURVE",
"737 468 CURVE SMOOTH",
"802 468 OFFCURVE",
"850 446 OFFCURVE",
"881 402 CURVE",
"903 422 LINE",
"865 471 OFFCURVE",
"810 495 OFFCURVE",
"737 495 CURVE SMOOTH",
"636 495 OFFCURVE",
"573 440 OFFCURVE",
"573 367 CURVE SMOOTH",
"573 336 OFFCURVE",
"584 311 OFFCURVE",
"605 292 CURVE SMOOTH",
"648 255 OFFCURVE",
"713 243 OFFCURVE",
"774 228 CURVE SMOOTH",
"834 212 OFFCURVE",
"883 182 OFFCURVE",
"883 127 CURVE SMOOTH",
"883 62 OFFCURVE",
"827 15 OFFCURVE",
"740 15 CURVE SMOOTH",
"674 15 OFFCURVE",
"623 39 OFFCURVE",
"587 87 CURVE",
"563 65 LINE",
"608 14 OFFCURVE",
"667 -12 OFFCURVE",
"740 -12 CURVE SMOOTH"
);
},
{
closed = 1;
nodes = (
"430 288 OFFCURVE",
"515 361 OFFCURVE",
"515 478 CURVE SMOOTH",
"515 595 OFFCURVE",
"431 667 OFFCURVE",
"318 667 CURVE SMOOTH",
"88 667 LINE",
"88 0 LINE",
"120 0 LINE",
"120 288 LINE",
"280 288 LINE",
"483 0 LINE",
"524 0 LINE",
"318 288 LINE"
);
},
{
closed = 1;
nodes = (
"120 637 LINE",
"318 637 LINE SMOOTH",
"415 637 OFFCURVE",
"480 571 OFFCURVE",
"480 478 CURVE SMOOTH",
"480 385 OFFCURVE",
"415 318 OFFCURVE",
"318 318 CURVE SMOOTH",
"120 318 LINE"
);
}
);
width = 973;
},
{
layerId = "043C55D1-ADA8-4506-BB55-8127E14D1A36";
paths = (
{
closed = 1;
nodes = (
"651 0 LINE",
"530 236 LINE",
"583 262 OFFCURVE",
"650 323 OFFCURVE",
"650 438 CURVE SMOOTH",
"650 563 OFFCURVE",
"566 667 OFFCURVE",
"410 667 CURVE SMOOTH",
"54 667 LINE",
"54 0 LINE",
"256 0 LINE",
"256 210 LINE",
"329 210 LINE",
"421 0 LINE"
);
},
{
closed = 1;
nodes = (
"256 386 LINE",
"256 491 LINE",
"379 491 LINE SMOOTH",
"413 491 OFFCURVE",
"445 475 OFFCURVE",
"445 439 CURVE SMOOTH",
"445 402 OFFCURVE",
"413 386 OFFCURVE",
"379 386 CURVE SMOOTH"
);
},
{
closed = 1;
nodes = (
"1024 -12 OFFCURVE",
"1110 58 OFFCURVE",
"1110 154 CURVE SMOOTH",
"1110 355 OFFCURVE",
"836 305 OFFCURVE",
"836 345 CURVE SMOOTH",
"836 358 OFFCURVE",
"855 366 OFFCURVE",
"881 366 CURVE SMOOTH",
"937 366 OFFCURVE",
"993 341 OFFCURVE",
"1023 316 CURVE",
"1089 433 LINE",
"1033 470 OFFCURVE",
"961 495 OFFCURVE",
"880 495 CURVE SMOOTH",
"740 495 OFFCURVE",
"664 419 OFFCURVE",
"664 332 CURVE SMOOTH",
"664 130 OFFCURVE",
"938 189 OFFCURVE",
"938 143 CURVE SMOOTH",
"938 131 OFFCURVE",
"927 122 OFFCURVE",
"890 122 CURVE SMOOTH",
"836 122 OFFCURVE",
"754 153 OFFCURVE",
"716 183 CURVE",
"644 62 LINE",
"696 19 OFFCURVE",
"792 -12 OFFCURVE",
"881 -12 CURVE SMOOTH"
);
}
);
width = 1125;
}
);
note = rupee;
unicode = 20A8;
},
{
glyphname = sterling;
lastChange = "2017-11-02 22:26:27 +0000";
layers = (
{
layerId = "C74BD54B-DC3B-4084-AB10-E48D432FD11D";
paths = (
{
closed = 1;
nodes = (
"193 246 OFFCURVE",
"199 225 OFFCURVE",
"199 203 CURVE SMOOTH",
"199 132 OFFCURVE",
"148 69 OFFCURVE",
"47 26 CURVE",
"61 -7 LINE",
"114 20 OFFCURVE",
"154 34 OFFCURVE",
"180 34 CURVE SMOOTH",
"209 34 OFFCURVE",
"239 26 OFFCURVE",
"268 10 CURVE SMOOTH",
"297 -6 OFFCURVE",
"327 -14 OFFCURVE",
"358 -14 CURVE SMOOTH",
"409 -14 OFFCURVE",
"450 1 OFFCURVE",
"482 32 CURVE",
"464 59 LINE",
"448 39 OFFCURVE",
"403 16 OFFCURVE",
"360 16 CURVE SMOOTH",
"340 16 OFFCURVE",
"314 24 OFFCURVE",
"282 40 CURVE SMOOTH",
"249 56 OFFCURVE",
"221 64 OFFCURVE",
"198 64 CURVE SMOOTH",
"180 64 OFFCURVE",
"162 61 OFFCURVE",
"143 54 CURVE",
"198 95 OFFCURVE",
"229 136 OFFCURVE",
"229 203 CURVE SMOOTH",
"229 226 OFFCURVE",
"224 247 OFFCURVE",
"213 267 CURVE",
"346 267 LINE",
"346 297 LINE",
"194 297 LINE",
"187 306 OFFCURVE",
"175 320 OFFCURVE",
"160 337 CURVE SMOOTH",
"144 354 OFFCURVE",
"131 368 OFFCURVE",
"122 379 CURVE SMOOTH",
"103 402 OFFCURVE",
"84 445 OFFCURVE",
"84 489 CURVE SMOOTH",
"84 586 OFFCURVE",
"162 647 OFFCURVE",
"259 647 CURVE SMOOTH",
"328 647 OFFCURVE",
"388 603 OFFCURVE",
"408 555 CURVE",
"434 573 LINE",
"403 636 OFFCURVE",
"332 677 OFFCURVE",
"259 677 CURVE SMOOTH",
"138 677 OFFCURVE",
"51 589 OFFCURVE",
"51 489 CURVE SMOOTH",
"51 466 OFFCURVE",
"55 444 OFFCURVE",
"64 423 CURVE SMOOTH",
"80 382 OFFCURVE",
"90 370 OFFCURVE",
"126 333 CURVE SMOOTH",
"144 314 OFFCURVE",
"155 302 OFFCURVE",
"160 297 CURVE",
"17 297 LINE",
"17 267 LINE",
"181 267 LINE"
);
}
);
width = 491;
},
{
layerId = "043C55D1-ADA8-4506-BB55-8127E14D1A36";
paths = (
{
closed = 1;
nodes = (
"26 270 LINE",
"122 270 LINE",
"127 254 OFFCURVE",
"131 238 OFFCURVE",
"131 221 CURVE SMOOTH",
"131 179 OFFCURVE",
"86 147 OFFCURVE",
"46 125 CURVE",
"112 -7 LINE",
"150 15 OFFCURVE",
"191 30 OFFCURVE",
"226 30 CURVE SMOOTH",
"272 30 OFFCURVE",
"324 -12 OFFCURVE",
"409 -12 CURVE SMOOTH",
"493 -12 OFFCURVE",
"542 11 OFFCURVE",
"569 40 CURVE",
"492 199 LINE",
"479 181 OFFCURVE",
"456 166 OFFCURVE",
"416 166 CURVE SMOOTH",
"373 166 OFFCURVE",
"355 191 OFFCURVE",
"302 191 CURVE SMOOTH",
"291 191 OFFCURVE",
"274 190 OFFCURVE",
"259 185 CURVE",
"287 201 OFFCURVE",
"308 239 OFFCURVE",
"310 270 CURVE",
"419 270 LINE",
"419 379 LINE",
"285 379 LINE",
"274 404 OFFCURVE",
"263 427 OFFCURVE",
"263 456 CURVE SMOOTH",
"263 488 OFFCURVE",
"289 515 OFFCURVE",
"329 515 CURVE SMOOTH",
"361 515 OFFCURVE",
"391 497 OFFCURVE",
"406 455 CURVE",
"566 547 LINE",
"518 639 OFFCURVE",
"434 677 OFFCURVE",
"303 677 CURVE SMOOTH",
"189 677 OFFCURVE",
"42 604 OFFCURVE",
"42 460 CURVE SMOOTH",
"42 431 OFFCURVE",
"51 404 OFFCURVE",
"64 379 CURVE",
"26 379 LINE"
);
}
);
width = 581;
}
);
note = sterling;
unicode = 00A3;
},
{
glyphname = uni20A6;
lastChange = "2017-11-02 22:26:27 +0000";
layers = (
{
layerId = "C74BD54B-DC3B-4084-AB10-E48D432FD11D";
paths = (
{
closed = 1;
nodes = (
"702 251 LINE",
"702 278 LINE",
"614 278 LINE",
"614 397 LINE",
"702 397 LINE",
"702 424 LINE",
"614 424 LINE",
"614 667 LINE",
"582 667 LINE",
"582 424 LINE",
"311 424 LINE",
"132 667 LINE",
"100 667 LINE",
"100 424 LINE",
"12 424 LINE",
"12 397 LINE",
"100 397 LINE",
"100 278 LINE",
"12 278 LINE",
"12 251 LINE",
"100 251 LINE",
"100 0 LINE",
"132 0 LINE",
"132 251 LINE",
"398 251 LINE",
"582 0 LINE",
"614 0 LINE",
"614 251 LINE"
);
},
{
closed = 1;
nodes = (
"582 278 LINE",
"419 278 LINE",
"331 397 LINE",
"582 397 LINE"
);
},
{
closed = 1;
nodes = (
"378 278 LINE",
"132 278 LINE",
"132 397 LINE",
"291 397 LINE"
);
},
{
closed = 1;
nodes = (
"582 58 LINE",
"439 251 LINE",
"582 251 LINE"
);
},
{
closed = 1;
nodes = (
"132 424 LINE",
"132 615 LINE",
"272 424 LINE"
);
}
);
width = 714;
},
{
layerId = "043C55D1-ADA8-4506-BB55-8127E14D1A36";
paths = (
{
closed = 1;
nodes = (
"703 0 LINE",
"703 220 LINE",
"757 220 LINE",
"757 317 LINE",
"703 317 LINE",
"703 354 LINE",
"757 354 LINE",
"757 451 LINE",
"703 451 LINE",
"703 667 LINE",
"501 667 LINE",
"501 351 LINE",
"269 667 LINE",
"61 667 LINE",
"61 451 LINE",
"7 451 LINE",
"7 354 LINE",
"61 354 LINE",
"61 317 LINE",
"7 317 LINE",
"7 220 LINE",
"61 220 LINE",
"61 0 LINE",
"263 0 LINE",
"263 338 LINE",
"509 0 LINE"
);
}
);
width = 764;
}
);
note = uni20A6;
unicode = 20A6;
},
{
glyphname = uni20A9;
lastChange = "2017-11-02 22:26:27 +0000";
layers = (
{
layerId = "C74BD54B-DC3B-4084-AB10-E48D432FD11D";
paths = (
{
closed = 1;
nodes = (
"826 251 LINE",
"826 278 LINE",
"716 278 LINE",
"750 397 LINE",
"826 397 LINE",
"826 424 LINE",
"757 424 LINE",
"827 667 LINE",
"792 667 LINE",
"723 424 LINE",
"512 424 LINE",
"443 667 LINE",
"409 667 LINE",
"340 424 LINE",
"128 424 LINE",
"60 667 LINE",
"25 667 LINE",
"94 424 LINE",
"27 424 LINE",
"27 397 LINE",
"102 397 LINE",
"136 278 LINE",
"27 278 LINE",
"27 251 LINE",
"143 251 LINE",
"215 0 LINE",
"253 0 LINE",
"324 251 LINE",
"527 251 LINE",
"599 0 LINE",
"637 0 LINE",
"708 251 LINE"
);
},
{
closed = 1;
nodes = (
"299 278 LINE",
"169 278 LINE",
"136 397 LINE",
"332 397 LINE"
);
},
{
closed = 1;
nodes = (
"682 278 LINE",
"553 278 LINE",
"519 397 LINE",
"716 397 LINE"
);
},
{
closed = 1;
nodes = (
"519 278 LINE",
"332 278 LINE",
"366 397 LINE",
"485 397 LINE"
);
},
{
closed = 1;
nodes = (
"618 48 LINE",
"560 251 LINE",
"675 251 LINE"
);
},
{
closed = 1;
nodes = (
"234 48 LINE",
"177 251 LINE",
"291 251 LINE"
);
},
{
closed = 1;
nodes = (
"373 424 LINE",
"426 607 LINE",
"478 424 LINE"
);
}
);
width = 852;
},
{
layerId = "043C55D1-ADA8-4506-BB55-8127E14D1A36";
paths = (
{
closed = 1;
nodes = (
"775 0 LINE",
"838 220 LINE",
"949 220 LINE",
"949 317 LINE",
"866 317 LINE",
"876 354 LINE",
"949 354 LINE",
"949 451 LINE",
"904 451 LINE",
"966 667 LINE",
"739 667 LINE",
"654 259 LINE",
"553 667 LINE",
"401 667 LINE",
"300 259 LINE",
"214 667 LINE",
"-12 667 LINE",
"50 451 LINE",
"5 451 LINE",
"5 354 LINE",
"77 354 LINE",
"88 317 LINE",
"5 317 LINE",
"5 220 LINE",
"116 220 LINE",
"179 0 LINE",
"391 0 LINE",
"477 378 LINE",
"563 0 LINE"
);
}
);
width = 954;
}
);
note = uni20A9;
unicode = 20A9;
},
{
glyphname = yen;
lastChange = "2017-11-02 22:26:27 +0000";
layers = (
{
layerId = "C74BD54B-DC3B-4084-AB10-E48D432FD11D";
paths = (
{
closed = 1;
nodes = (
"589 129 LINE",
"589 159 LINE",
"321 159 LINE",
"321 289 LINE",
"589 289 LINE",
"589 319 LINE",
"342 319 LINE",
"589 667 LINE",
"548 667 LINE",
"305 321 LINE",
"62 667 LINE",
"21 667 LINE",
"267 319 LINE",
"21 319 LINE",
"21 289 LINE",
"289 289 LINE",
"289 159 LINE",
"21 159 LINE",
"21 129 LINE",
"289 129 LINE",
"289 0 LINE",
"321 0 LINE",
"321 129 LINE"
);
}
);
width = 610;
},
{
layerId = "043C55D1-ADA8-4506-BB55-8127E14D1A36";
paths = (
{
closed = 1;
nodes = (
"434 0 LINE",
"434 107 LINE",
"641 107 LINE",
"641 212 LINE",
"434 212 LINE",
"434 265 LINE",
"641 265 LINE",
"641 370 LINE",
"499 370 LINE",
"682 667 LINE",
"455 667 LINE",
"333 442 LINE",
"209 667 LINE",
"-18 667 LINE",
"166 370 LINE",
"25 370 LINE",
"25 265 LINE",
"232 265 LINE",
"232 212 LINE",
"25 212 LINE",
"25 107 LINE",
"232 107 LINE",
"232 0 LINE"
);
}
);
width = 664;
}
);
note = yen;
unicode = 00A5;
},
{
glyphname = cent.case;
lastChange = "2017-11-02 22:26:27 +0000";
layers = (
{
layerId = "C74BD54B-DC3B-4084-AB10-E48D432FD11D";
paths = (
{
closed = 1;
nodes = (
"292 79 LINE",
"356 80 OFFCURVE",
"410 107 OFFCURVE",
"453 160 CURVE",
"431 179 LINE",
"395 130 OFFCURVE",
"349 106 OFFCURVE",
"292 106 CURVE",
"292 559 LINE",
"349 558 OFFCURVE",
"396 534 OFFCURVE",
"431 487 CURVE",
"453 505 LINE",
"410 558 OFFCURVE",
"356 585 OFFCURVE",
"292 586 CURVE",
"292 656 LINE",
"262 656 LINE",
"262 584 LINE",
"139 571 OFFCURVE",
"60 466 OFFCURVE",
"60 333 CURVE SMOOTH",
"60 200 OFFCURVE",
"139 93 OFFCURVE",
"262 80 CURVE",
"262 -9 LINE",
"292 -9 LINE"
);
},
{
closed = 1;
nodes = (
"168 526 OFFCURVE",
"209 550 OFFCURVE",
"262 557 CURVE",
"262 107 LINE",
"158 120 OFFCURVE",
"93 214 OFFCURVE",
"93 333 CURVE SMOOTH",
"93 392 OFFCURVE",
"108 443 OFFCURVE",
"138 485 CURVE SMOOTH"
);
}
);
width = 493;
},
{
layerId = "043C55D1-ADA8-4506-BB55-8127E14D1A36";
paths = (
{
closed = 1;
nodes = (
"229 -9 LINE",
"355 -9 LINE",
"355 86 LINE",
"426 101 OFFCURVE",
"472 139 OFFCURVE",
"493 170 CURVE",
"377 280 LINE",
"371 271 OFFCURVE",
"364 263 OFFCURVE",
"355 257 CURVE",
"355 409 LINE",
"364 402 OFFCURVE",
"371 394 OFFCURVE",
"377 386 CURVE",
"493 495 LINE",
"472 527 OFFCURVE",
"426 564 OFFCURVE",
"355 579 CURVE",
"355 656 LINE",
"229 656 LINE",
"229 581 LINE",
"106 558 OFFCURVE",
"17 465 OFFCURVE",
"17 333 CURVE SMOOTH",
"17 199 OFFCURVE",
"106 106 OFFCURVE",
"229 84 CURVE"
);
},
{
closed = 1;
nodes = (
"201 363 OFFCURVE",
"212 387 OFFCURVE",
"229 403 CURVE",
"229 262 LINE",
"212 278 OFFCURVE",
"201 302 OFFCURVE",
"201 333 CURVE SMOOTH"
);
}
);
width = 502;
}
);
note = cent.case;
unicode = F6BF;
},
{
glyphname = cent.onum;
lastChange = "2017-11-02 22:26:27 +0000";
layers = (
{
layerId = "C74BD54B-DC3B-4084-AB10-E48D432FD11D";
paths = (
{
closed = 1;
nodes = (
"362 -12 LINE",
"437 -8 OFFCURVE",
"501 22 OFFCURVE",
"552 78 CURVE",
"528 98 LINE",
"490 49 OFFCURVE",
"435 22 OFFCURVE",
"362 17 CURVE",
"362 532 LINE",
"432 529 OFFCURVE",
"487 502 OFFCURVE",
"528 452 CURVE",
"551 472 LINE",
"500 528 OFFCURVE",
"437 558 OFFCURVE",
"362 562 CURVE",
"362 615 LINE",
"332 615 LINE",
"332 561 LINE",
"176 554 OFFCURVE",
"60 437 OFFCURVE",
"60 276 CURVE SMOOTH",
"60 113 OFFCURVE",
"176 -4 OFFCURVE",
"332 -11 CURVE",
"332 -100 LINE",
"362 -100 LINE"
);
},
{
closed = 1;
nodes = (
"207 503 OFFCURVE",
"263 529 OFFCURVE",
"332 532 CURVE",
"332 17 LINE",
"196 25 OFFCURVE",
"94 132 OFFCURVE",
"94 276 CURVE SMOOTH",
"94 348 OFFCURVE",
"117 408 OFFCURVE",
"162 456 CURVE SMOOTH"
);
}
);
width = 580;
},
{
layerId = "043C55D1-ADA8-4506-BB55-8127E14D1A36";
paths = (
{
closed = 1;
nodes = (
"255 -74 LINE",
"381 -74 LINE",
"381 -6 LINE",
"484 13 OFFCURVE",
"550 84 OFFCURVE",
"579 156 CURVE",
"422 225 LINE",
"408 184 OFFCURVE",
"371 151 OFFCURVE",
"323 151 CURVE SMOOTH",
"252 151 OFFCURVE",
"205 206 OFFCURVE",
"205 275 CURVE SMOOTH",
"205 344 OFFCURVE",
"252 399 OFFCURVE",
"323 399 CURVE SMOOTH",
"371 399 OFFCURVE",
"408 365 OFFCURVE",
"422 324 CURVE",
"579 395 LINE",
"549 467 OFFCURVE",
"484 537 OFFCURVE",
"381 557 CURVE",
"381 628 LINE",
"255 628 LINE",
"255 556 LINE",
"113 530 OFFCURVE",
"17 422 OFFCURVE",
"17 275 CURVE SMOOTH",
"17 128 OFFCURVE",
"113 20 OFFCURVE",
"255 -6 CURVE"
);
}
);
width = 588;
}
);
leftKerningGroup = c;
note = cent.onum;
rightKerningGroup = c;
unicode = F654;
},
{
glyphname = colonmonetary.onum;
lastChange = "2017-11-02 22:26:27 +0000";
layers = (
{
layerId = "C74BD54B-DC3B-4084-AB10-E48D432FD11D";
paths = (
{
closed = 1;
nodes = (
"204 23 LINE",
"225 11 OFFCURVE",
"247 3 OFFCURVE",
"270 -2 CURVE",
"254 -53 LINE",
"284 -53 LINE",
"299 -8 LINE",
"320 -11 OFFCURVE",
"337 -12 OFFCURVE",
"348 -12 CURVE SMOOTH",
"429 -12 OFFCURVE",
"497 18 OFFCURVE",
"552 78 CURVE",
"528 98 LINE",
"491 49 OFFCURVE",
"420 17 OFFCURVE",
"348 17 CURVE SMOOTH",
"335 17 OFFCURVE",
"321 18 OFFCURVE",
"308 20 CURVE",
"470 501 LINE",
"494 487 OFFCURVE",
"513 471 OFFCURVE",
"528 452 CURVE",
"551 472 LINE",
"529 496 OFFCURVE",
"505 515 OFFCURVE",
"479 529 CURVE",
"503 599 LINE",
"472 599 LINE",
"453 542 LINE",
"431 551 OFFCURVE",
"408 557 OFFCURVE",
"384 560 CURVE",
"397 599 LINE",
"367 599 LINE",
"354 562 LINE",
"348 562 LINE SMOOTH",
"185 562 OFFCURVE",
"60 443 OFFCURVE",
"60 276 CURVE SMOOTH",
"60 175 OFFCURVE",
"104 90 OFFCURVE",
"179 39 CURVE",
"148 -53 LINE",
"179 -53 LINE"
);
},
{
closed = 1;
nodes = (
"94 424 OFFCURVE",
"203 530 OFFCURVE",
"344 533 CURVE",
"189 71 LINE",
"126 121 OFFCURVE",
"94 189 OFFCURVE",
"94 276 CURVE SMOOTH"
);
},
{
closed = 1;
nodes = (
"398 529 OFFCURVE",
"421 523 OFFCURVE",
"443 514 CURVE",
"280 25 LINE",
"258 30 OFFCURVE",
"236 40 OFFCURVE",
"214 53 CURVE",
"374 531 LINE"
);
}
);
width = 580;
},
{
layerId = "043C55D1-ADA8-4506-BB55-8127E14D1A36";
paths = (
{
closed = 1;
nodes = (
"114 -53 LINE",
"186 -53 LINE",
"206 6 LINE",
"218 2 OFFCURVE",
"230 -1 OFFCURVE",
"242 -3 CURVE",
"225 -53 LINE",
"297 -53 LINE",
"311 -12 LINE",
"323 -12 LINE SMOOTH",
"460 -12 OFFCURVE",
"545 71 OFFCURVE",
"579 156 CURVE",
"422 225 LINE",
"408 184 OFFCURVE",
"371 151 OFFCURVE",
"323 151 CURVE SMOOTH",
"252 151 OFFCURVE",
"205 206 OFFCURVE",
"205 275 CURVE SMOOTH",
"205 344 OFFCURVE",
"252 399 OFFCURVE",
"323 399 CURVE SMOOTH",
"371 399 OFFCURVE",
"408 365 OFFCURVE",
"422 324 CURVE",
"579 395 LINE",
"561 437 OFFCURVE",
"532 479 OFFCURVE",
"489 510 CURVE",
"520 599 LINE",
"448 599 LINE",
"429 543 LINE",
"417 548 OFFCURVE",
"406 551 OFFCURVE",
"393 554 CURVE",
"409 599 LINE",
"337 599 LINE",
"324 562 LINE",
"323 562 LINE SMOOTH",
"145 562 OFFCURVE",
"17 445 OFFCURVE",
"17 275 CURVE SMOOTH",
"17 171 OFFCURVE",
"65 86 OFFCURVE",
"144 36 CURVE"
);
}
);
width = 588;
}
);
note = colonmonetary.onum;
unicode = F64D;
},
{
glyphname = dollar.onum;
lastChange = "2017-11-02 22:26:27 +0000";
layers = (
{
layerId = "C74BD54B-DC3B-4084-AB10-E48D432FD11D";
paths = (
{
closed = 1;
nodes = (
"263 -12 LINE",
"387 -7 OFFCURVE",
"447 57 OFFCURVE",
"447 142 CURVE SMOOTH",
"447 163 OFFCURVE",
"443 181 OFFCURVE",
"436 198 CURVE",
"420 230 OFFCURVE",
"403 249 OFFCURVE",
"366 267 CURVE SMOOTH",
"329 285 OFFCURVE",
"308 290 OFFCURVE",
"263 303 CURVE",
"263 532 LINE",
"326 527 OFFCURVE",
"375 504 OFFCURVE",
"409 462 CURVE",
"432 483 LINE",
"389 531 OFFCURVE",
"333 557 OFFCURVE",
"263 561 CURVE",
"263 628 LINE",
"233 628 LINE",
"233 562 LINE",
"137 558 OFFCURVE",
"62 502 OFFCURVE",
"62 418 CURVE SMOOTH",
"62 400 OFFCURVE",
"66 384 OFFCURVE",
"73 369 CURVE SMOOTH",
"87 340 OFFCURVE",
"103 324 OFFCURVE",
"137 309 CURVE SMOOTH",
"171 293 OFFCURVE",
"189 288 OFFCURVE",
"233 277 CURVE",
"233 17 LINE",
"167 22 OFFCURVE",
"113 49 OFFCURVE",
"71 98 CURVE",
"45 77 LINE",
"88 22 OFFCURVE",
"151 -7 OFFCURVE",
"233 -11 CURVE",
"233 -74 LINE",
"263 -74 LINE"
);
},
{
closed = 1;
nodes = (
"413 74 OFFCURVE",
"364 22 OFFCURVE",
"263 17 CURVE",
"263 269 LINE",
"310 257 OFFCURVE",
"335 248 OFFCURVE",
"367 229 CURVE",
"398 209 OFFCURVE",
"413 181 OFFCURVE",
"413 142 CURVE SMOOTH"
);
},
{
closed = 1;
nodes = (
"96 481 OFFCURVE",
"156 528 OFFCURVE",
"233 532 CURVE",
"233 311 LINE",
"142 336 OFFCURVE",
"96 359 OFFCURVE",
"96 418 CURVE SMOOTH"
);
}
);
width = 494;
},
{
layerId = "043C55D1-ADA8-4506-BB55-8127E14D1A36";
paths = (
{
closed = 1;
nodes = (
"207 -74 LINE",
"333 -74 LINE",
"333 -6 LINE",
"450 12 OFFCURVE",
"518 77 OFFCURVE",
"518 178 CURVE SMOOTH",
"518 390 OFFCURVE",
"211 341 OFFCURVE",
"211 387 CURVE SMOOTH",
"211 400 OFFCURVE",
"225 412 OFFCURVE",
"262 412 CURVE SMOOTH",
"310 412 OFFCURVE",
"382 390 OFFCURVE",
"425 358 CURVE",
"508 483 LINE",
"461 521 OFFCURVE",
"402 546 OFFCURVE",
"333 557 CURVE",
"333 628 LINE",
"207 628 LINE",
"207 557 LINE",
"88 538 OFFCURVE",
"22 459 OFFCURVE",
"22 377 CURVE SMOOTH",
"22 161 OFFCURVE",
"329 212 OFFCURVE",
"329 165 CURVE SMOOTH",
"329 148 OFFCURVE",
"306 138 OFFCURVE",
"267 138 CURVE SMOOTH",
"198 138 OFFCURVE",
"122 168 OFFCURVE",
"82 204 CURVE",
"3 67 LINE",
"46 31 OFFCURVE",
"118 0 OFFCURVE",
"207 -9 CURVE"
);
}
);
width = 528;
}
);
note = dollar.onum;
unicode = F724;
},
{
glyphname = Euro.onum;
lastChange = "2017-11-02 22:26:27 +0000";
layers = (
{
layerId = "C74BD54B-DC3B-4084-AB10-E48D432FD11D";
paths = (
{
closed = 1;
nodes = (
"135 354 LINE",
"166 462 OFFCURVE",
"262 533 OFFCURVE",
"378 533 CURVE SMOOTH",
"450 533 OFFCURVE",
"518 504 OFFCURVE",
"558 452 CURVE",
"581 472 LINE",
"527 532 OFFCURVE",
"459 562 OFFCURVE",
"378 562 CURVE SMOOTH",
"243 562 OFFCURVE",
"132 479 OFFCURVE",
"99 354 CURVE",
"39 354 LINE",
"39 324 LINE",
"93 324 LINE",
"91 308 OFFCURVE",
"90 292 OFFCURVE",
"90 276 CURVE SMOOTH",
"90 256 OFFCURVE",
"91 239 OFFCURVE",
"94 225 CURVE",
"39 225 LINE",
"39 195 LINE",
"100 195 LINE",
"133 70 OFFCURVE",
"243 -12 OFFCURVE",
"378 -12 CURVE SMOOTH",
"459 -12 OFFCURVE",
"527 18 OFFCURVE",
"582 78 CURVE",
"558 98 LINE",
"521 49 OFFCURVE",
"450 17 OFFCURVE",
"378 17 CURVE SMOOTH",
"263 17 OFFCURVE",
"168 87 OFFCURVE",
"136 195 CURVE",
"420 195 LINE",
"420 225 LINE",
"128 225 LINE",
"125 239 OFFCURVE",
"124 256 OFFCURVE",
"124 276 CURVE SMOOTH",
"124 294 OFFCURVE",
"125 310 OFFCURVE",
"128 324 CURVE",
"420 324 LINE",
"420 354 LINE"
);
}
);
width = 610;
},
{
layerId = "043C55D1-ADA8-4506-BB55-8127E14D1A36";
paths = (
{
closed = 1;
nodes = (
"388 292 LINE",
"388 349 LINE",
"249 349 LINE",
"270 379 OFFCURVE",
"303 399 OFFCURVE",
"346 399 CURVE SMOOTH",
"394 399 OFFCURVE",
"431 365 OFFCURVE",
"445 324 CURVE",
"602 395 LINE",
"567 480 OFFCURVE",
"484 562 OFFCURVE",
"346 562 CURVE SMOOTH",
"195 562 OFFCURVE",
"80 478 OFFCURVE",
"49 349 CURVE",
"12 349 LINE",
"12 292 LINE",
"40 292 LINE",
"40 275 LINE",
"40 257 LINE",
"12 257 LINE",
"12 200 LINE",
"49 200 LINE",
"81 72 OFFCURVE",
"195 -12 OFFCURVE",
"346 -12 CURVE SMOOTH",
"483 -12 OFFCURVE",
"568 71 OFFCURVE",
"602 156 CURVE",
"445 225 LINE",
"431 184 OFFCURVE",
"394 151 OFFCURVE",
"346 151 CURVE SMOOTH",
"304 151 OFFCURVE",
"270 170 OFFCURVE",
"250 200 CURVE",
"388 200 LINE",
"388 257 LINE",
"229 257 LINE",
"229 263 OFFCURVE",
"228 269 OFFCURVE",
"228 275 CURVE SMOOTH",
"228 280 OFFCURVE",
"228 286 OFFCURVE",
"229 292 CURVE"
);
}
);
width = 611;
}
);
note = Euro.onum;
unicode = F64E;
},
{
glyphname = florin.onum;
lastChange = "2017-11-02 22:26:27 +0000";
layers = (
{
layerId = "C74BD54B-DC3B-4084-AB10-E48D432FD11D";
paths = (
{
closed = 1;
nodes = (
"271 226 LINE",
"271 253 LINE",
"145 253 LINE",
"182 417 LINE SMOOTH",
"198 490 OFFCURVE",
"225 531 OFFCURVE",
"280 531 CURVE SMOOTH",
"301 531 OFFCURVE",
"317 524 OFFCURVE",
"328 511 CURVE",
"351 534 LINE",
"332 552 OFFCURVE",
"308 561 OFFCURVE",
"280 561 CURVE SMOOTH",
"209 561 OFFCURVE",
"170 513 OFFCURVE",
"149 417 CURVE SMOOTH",
"112 253 LINE",
"50 253 LINE",
"50 226 LINE",
"107 226 LINE",
"30 -119 LINE",
"62 -119 LINE",
"139 226 LINE"
);
}
);
width = 341;
},
{
layerId = "043C55D1-ADA8-4506-BB55-8127E14D1A36";
paths = (
{
closed = 1;
nodes = (
"210 -119 LINE",
"280 190 LINE",
"368 190 LINE",
"368 315 LINE",
"307 315 LINE",
"315 349 LINE SMOOTH",
"319 367 OFFCURVE",
"333 385 OFFCURVE",
"352 385 CURVE SMOOTH",
"366 385 OFFCURVE",
"375 381 OFFCURVE",
"381 372 CURVE",
"438 516 LINE",
"409 547 OFFCURVE",
"360 561 OFFCURVE",
"316 561 CURVE SMOOTH",
"214 561 OFFCURVE",
"143 499 OFFCURVE",
"117 383 CURVE SMOOTH",
"101 315 LINE",
"39 315 LINE",
"39 190 LINE",
"73 190 LINE",
"5 -119 LINE"
);
}
);
width = 428;
}
);
note = florin.onum;
unicode = F64F;
},
{
glyphname = sterling.onum;
lastChange = "2017-11-02 22:26:27 +0000";
layers = (
{
layerId = "C74BD54B-DC3B-4084-AB10-E48D432FD11D";
paths = (
{
closed = 1;
nodes = (
"150 198 OFFCURVE",
"158 176 OFFCURVE",
"158 155 CURVE SMOOTH",
"158 101 OFFCURVE",
"117 57 OFFCURVE",
"36 23 CURVE",
"50 -9 LINE",
"93 12 OFFCURVE",
"125 23 OFFCURVE",
"148 23 CURVE SMOOTH",
"172 23 OFFCURVE",
"196 17 OFFCURVE",
"219 6 CURVE SMOOTH",
"242 -6 OFFCURVE",
"265 -12 OFFCURVE",
"290 -12 CURVE SMOOTH",
"335 -12 OFFCURVE",
"370 1 OFFCURVE",
"397 26 CURVE",
"377 51 LINE",
"362 32 OFFCURVE",
"325 18 OFFCURVE",
"292 18 CURVE SMOOTH",
"277 18 OFFCURVE",
"255 24 OFFCURVE",
"225 35 CURVE SMOOTH",
"195 46 OFFCURVE",
"169 51 OFFCURVE",
"148 51 CURVE SMOOTH",
"139 51 OFFCURVE",
"131 50 OFFCURVE",
"125 48 CURVE",
"167 74 OFFCURVE",
"188 110 OFFCURVE",
"188 155 CURVE SMOOTH",
"188 174 OFFCURVE",
"181 197 OFFCURVE",
"167 223 CURVE",
"286 223 LINE",
"286 253 LINE",
"147 253 LINE",
"144 256 OFFCURVE",
"138 265 OFFCURVE",
"127 280 CURVE SMOOTH",
"105 309 OFFCURVE",
"101 314 OFFCURVE",
"88 339 CURVE SMOOTH",
"75 363 OFFCURVE",
"70 384 OFFCURVE",
"70 407 CURVE SMOOTH",
"70 483 OFFCURVE",
"134 534 OFFCURVE",
"211 534 CURVE SMOOTH",
"268 534 OFFCURVE",
"308 510 OFFCURVE",
"332 462 CURVE",
"357 477 LINE",
"332 526 OFFCURVE",
"271 561 OFFCURVE",
"211 561 CURVE SMOOTH",
"111 561 OFFCURVE",
"40 492 OFFCURVE",
"40 407 CURVE SMOOTH",
"40 386 OFFCURVE",
"44 365 OFFCURVE",
"53 344 CURVE SMOOTH",
"69 303 OFFCURVE",
"79 292 OFFCURVE",
"110 253 CURVE",
"13 253 LINE",
"13 223 LINE",
"133 223 LINE"
);
}
);
width = 404;
},
{
layerId = "043C55D1-ADA8-4506-BB55-8127E14D1A36";
paths = (
{
closed = 1;
nodes = (
"17 225 LINE",
"86 225 LINE",
"95 205 OFFCURVE",
"101 186 OFFCURVE",
"101 169 CURVE SMOOTH",
"101 144 OFFCURVE",
"70 118 OFFCURVE",
"32 100 CURVE",
"89 -6 LINE",
"118 9 OFFCURVE",
"151 22 OFFCURVE",
"176 22 CURVE SMOOTH",
"222 22 OFFCURVE",
"257 -9 OFFCURVE",
"328 -9 CURVE SMOOTH",
"387 -9 OFFCURVE",
"435 5 OFFCURVE",
"462 34 CURVE",
"396 160 LINE",
"384 144 OFFCURVE",
"361 133 OFFCURVE",
"334 133 CURVE SMOOTH",
"298 133 OFFCURVE",
"286 151 OFFCURVE",
"243 151 CURVE SMOOTH",
"237 151 OFFCURVE",
"231 150 OFFCURVE",
"225 147 CURVE",
"236 156 OFFCURVE",
"256 185 OFFCURVE",
"256 216 CURVE SMOOTH",
"256 219 OFFCURVE",
"255 222 OFFCURVE",
"255 225 CURVE",
"341 225 LINE",
"341 315 LINE",
"227 315 LINE",
"221 333 OFFCURVE",
"216 351 OFFCURVE",
"216 372 CURVE SMOOTH",
"216 408 OFFCURVE",
"235 431 OFFCURVE",
"264 431 CURVE SMOOTH",
"285 431 OFFCURVE",
"311 419 OFFCURVE",
"323 385 CURVE",
"460 458 LINE",
"419 530 OFFCURVE",
"350 561 OFFCURVE",
"243 561 CURVE SMOOTH",
"143 561 OFFCURVE",
"30 491 OFFCURVE",
"30 375 CURVE SMOOTH",
"30 355 OFFCURVE",
"35 335 OFFCURVE",
"43 315 CURVE",
"17 315 LINE"
);
}
);
width = 474;
}
);
note = sterling.onum;
unicode = F651;
},
{
glyphname = yen.onum;
lastChange = "2017-11-02 22:26:27 +0000";
layers = (
{
layerId = "C74BD54B-DC3B-4084-AB10-E48D432FD11D";
paths = (
{
closed = 1;
nodes = (
"508 118 LINE",
"508 148 LINE",
"284 148 LINE",
"284 237 LINE",
"508 237 LINE",
"508 267 LINE",
"305 267 LINE",
"514 550 LINE",
"474 550 LINE",
"268 268 LINE",
"58 550 LINE",
"17 550 LINE",
"230 267 LINE",
"22 267 LINE",
"22 237 LINE",
"252 237 LINE",
"252 148 LINE",
"22 148 LINE",
"22 118 LINE",
"252 118 LINE",
"252 0 LINE",
"284 0 LINE",
"284 118 LINE"
);
}
);
width = 531;
},
{
layerId = "043C55D1-ADA8-4506-BB55-8127E14D1A36";
paths = (
{
closed = 1;
nodes = (
"384 0 LINE",
"384 102 LINE",
"554 102 LINE",
"554 190 LINE",
"384 190 LINE",
"384 219 LINE",
"554 219 LINE",
"554 307 LINE",
"441 307 LINE",
"600 550 LINE",
"393 550 LINE",
"293 375 LINE",
"191 550 LINE",
"-17 550 LINE",
"143 307 LINE",
"27 307 LINE",
"27 219 LINE",
"200 219 LINE",
"200 190 LINE",
"27 190 LINE",
"27 102 LINE",
"200 102 LINE",
"200 0 LINE"
);
}
);
width = 583;
}
);
note = yen.onum;
unicode = F652;
},
{
glyphname = dotmath;
lastChange = "2017-11-02 22:28:10 +0000";
layers = (
{
layerId = "C74BD54B-DC3B-4084-AB10-E48D432FD11D";
paths = (
{
closed = 1;
nodes = (
"120 274 OFFCURVE",
"113 277 OFFCURVE",
"104 277 CURVE SMOOTH",
"87 277 OFFCURVE",
"71 262 OFFCURVE",
"71 245 CURVE SMOOTH",
"71 228 OFFCURVE",
"85 212 OFFCURVE",
"104 212 CURVE SMOOTH",
"123 212 OFFCURVE",
"137 228 OFFCURVE",
"137 245 CURVE SMOOTH",
"137 254 OFFCURVE",
"134 261 OFFCURVE",
"127 268 CURVE"
);
}
);
width = 208;
},
{
layerId = "043C55D1-ADA8-4506-BB55-8127E14D1A36";
width = 600;
}
);
note = dotmath;
unicode = 22C5;
},
{
glyphname = plus;
lastChange = "2017-11-02 22:26:27 +0000";
layers = (
{
layerId = "C74BD54B-DC3B-4084-AB10-E48D432FD11D";
paths = (
{
closed = 1;
nodes = (
"263 352 LINE",
"263 568 LINE",
"231 568 LINE",
"231 352 LINE",
"29 352 LINE",
"29 322 LINE",
"231 322 LINE",
"231 100 LINE",
"263 100 LINE",
"263 322 LINE",
"465 322 LINE",
"465 352 LINE"
);
}
);
width = 494;
},
{
layerId = "043C55D1-ADA8-4506-BB55-8127E14D1A36";
paths = (
{
closed = 1;
nodes = (
"481 285 LINE",
"481 390 LINE",
"313 390 LINE",
"313 575 LINE",
"197 575 LINE",
"197 390 LINE",
"29 390 LINE",
"29 285 LINE",
"197 285 LINE",
"197 92 LINE",
"313 92 LINE",
"313 285 LINE"
);
}
);
width = 510;
}
);
note = plus;
unicode = 002B;
},
{
glyphname = minus;
lastChange = "2017-11-02 22:26:27 +0000";
layers = (
{
layerId = "C74BD54B-DC3B-4084-AB10-E48D432FD11D";
paths = (
{
closed = 1;
nodes = (
"29 352 LINE",
"29 322 LINE",
"465 322 LINE",
"465 352 LINE"
);
}
);
width = 494;
},
{
layerId = "043C55D1-ADA8-4506-BB55-8127E14D1A36";
paths = (
{
closed = 1;
nodes = (
"481 282 LINE",
"481 387 LINE",
"29 387 LINE",
"29 282 LINE"
);
}
);
width = 510;
}
);
note = minus;
unicode = 2212;
},
{
glyphname = multiply;
lastChange = "2017-11-02 22:26:27 +0000";
layers = (
{
layerId = "C74BD54B-DC3B-4084-AB10-E48D432FD11D";
paths = (
{
closed = 1;
nodes = (
"268 334 LINE",
"423 489 LINE",
"402 510 LINE",
"247 355 LINE",
"92 510 LINE",
"71 489 LINE",
"226 334 LINE",
"71 179 LINE",
"92 158 LINE",
"247 313 LINE",
"402 158 LINE",
"423 179 LINE"
);
}
);
width = 494;
},
{
layerId = "043C55D1-ADA8-4506-BB55-8127E14D1A36";
paths = (
{
closed = 1;
nodes = (
"389 126 LINE",
"463 200 LINE",
"330 334 LINE",
"463 468 LINE",
"389 542 LINE",
"255 408 LINE",
"122 542 LINE",
"47 468 LINE",
"181 334 LINE",
"47 200 LINE",
"122 126 LINE",
"255 260 LINE"
);
}
);
width = 510;
}
);
note = multiply;
unicode = 00D7;
},
{
glyphname = divide;
lastChange = "2017-11-02 22:26:27 +0000";
layers = (
{
layerId = "C74BD54B-DC3B-4084-AB10-E48D432FD11D";
paths = (
{
closed = 1;
nodes = (
"289 553 OFFCURVE",
"275 568 OFFCURVE",
"256 568 CURVE SMOOTH",
"237 568 OFFCURVE",
"223 553 OFFCURVE",
"223 536 CURVE SMOOTH",
"223 517 OFFCURVE",
"239 502 OFFCURVE",
"256 502 CURVE SMOOTH",
"273 502 OFFCURVE",
"289 517 OFFCURVE",
"289 536 CURVE SMOOTH"
);
},
{
closed = 1;
nodes = (
"29 352 LINE",
"29 322 LINE",
"482 322 LINE",
"482 352 LINE"
);
},
{
closed = 1;
nodes = (
"273 163 OFFCURVE",
"265 166 OFFCURVE",
"256 166 CURVE SMOOTH",
"237 166 OFFCURVE",
"223 150 OFFCURVE",
"223 133 CURVE SMOOTH",
"223 116 OFFCURVE",
"237 100 OFFCURVE",
"256 100 CURVE SMOOTH",
"275 100 OFFCURVE",
"289 116 OFFCURVE",
"289 133 CURVE SMOOTH",
"289 142 OFFCURVE",
"286 149 OFFCURVE",
"280 156 CURVE"
);
}
);
width = 511;
},
{
layerId = "043C55D1-ADA8-4506-BB55-8127E14D1A36";
paths = (
{
closed = 1;
nodes = (
"331 547 OFFCURVE",
"297 580 OFFCURVE",
"255 580 CURVE SMOOTH",
"213 580 OFFCURVE",
"179 547 OFFCURVE",
"179 505 CURVE SMOOTH",
"179 463 OFFCURVE",
"213 428 OFFCURVE",
"255 428 CURVE SMOOTH",
"297 428 OFFCURVE",
"331 463 OFFCURVE",
"331 505 CURVE SMOOTH"
);
},
{
closed = 1;
nodes = (
"482 285 LINE",
"482 390 LINE",
"29 390 LINE",
"29 285 LINE"
);
},
{
closed = 1;
nodes = (
"331 212 OFFCURVE",
"297 246 OFFCURVE",
"255 246 CURVE SMOOTH",
"213 246 OFFCURVE",
"179 212 OFFCURVE",
"179 170 CURVE SMOOTH",
"179 128 OFFCURVE",
"213 94 OFFCURVE",
"255 94 CURVE SMOOTH",
"297 94 OFFCURVE",
"331 128 OFFCURVE",
"331 170 CURVE SMOOTH"
);
}
);
width = 511;
}
);
note = divide;
unicode = 00F7;
},
{
glyphname = equal;
lastChange = "2017-11-02 22:26:27 +0000";
layers = (
{
layerId = "C74BD54B-DC3B-4084-AB10-E48D432FD11D";
paths = (
{
closed = 1;
nodes = (
"29 448 LINE",
"29 418 LINE",
"465 418 LINE",
"465 448 LINE"
);
},
{
closed = 1;
nodes = (
"29 250 LINE",
"29 220 LINE",
"465 220 LINE",
"465 250 LINE"
);
}
);
width = 494;
},
{
layerId = "043C55D1-ADA8-4506-BB55-8127E14D1A36";
paths = (
{
closed = 1;
nodes = (
"481 373 LINE",
"481 478 LINE",
"29 478 LINE",
"29 373 LINE"
);
},
{
closed = 1;
nodes = (
"481 190 LINE",
"481 295 LINE",
"29 295 LINE",
"29 190 LINE"
);
}
);
width = 510;
}
);
note = equal;
unicode = 003D;
},
{
glyphname = notequal;
lastChange = "2017-11-02 22:26:27 +0000";
layers = (
{
layerId = "C74BD54B-DC3B-4084-AB10-E48D432FD11D";
paths = (
{
closed = 1;
nodes = (
"465 220 LINE",
"465 250 LINE",
"212 250 LINE",
"320 418 LINE",
"465 418 LINE",
"465 448 LINE",
"338 448 LINE",
"419 574 LINE",
"382 574 LINE",
"302 448 LINE",
"29 448 LINE",
"29 418 LINE",
"283 418 LINE",
"176 250 LINE",
"29 250 LINE",
"29 220 LINE",
"157 220 LINE",
"76 93 LINE",
"112 93 LINE",
"193 220 LINE"
);
}
);
width = 494;
},
{
layerId = "043C55D1-ADA8-4506-BB55-8127E14D1A36";
paths = (
{
closed = 1;
nodes = (
"150 93 LINE",
"212 190 LINE",
"481 190 LINE",
"481 295 LINE",
"279 295 LINE",
"329 373 LINE",
"481 373 LINE",
"481 478 LINE",
"396 478 LINE",
"457 574 LINE",
"359 574 LINE",
"298 478 LINE",
"29 478 LINE",
"29 373 LINE",
"231 373 LINE",
"181 295 LINE",
"29 295 LINE",
"29 190 LINE",
"114 190 LINE",
"53 93 LINE"
);
}
);
width = 510;
}
);
note = notequal;
unicode = 2260;
},
{
glyphname = greater;
lastChange = "2017-11-02 22:26:27 +0000";
layers = (
{
layerId = "C74BD54B-DC3B-4084-AB10-E48D432FD11D";
paths = (
{
closed = 1;
nodes = (
"29 580 LINE",
"29 544 LINE",
"424 334 LINE",
"29 126 LINE",
"29 90 LINE",
"465 324 LINE",
"465 345 LINE"
);
}
);
width = 494;
},
{
layerId = "043C55D1-ADA8-4506-BB55-8127E14D1A36";
paths = (
{
closed = 1;
nodes = (
"481 270 LINE",
"481 400 LINE",
"29 580 LINE",
"29 455 LINE",
"363 334 LINE",
"29 215 LINE",
"29 90 LINE"
);
}
);
width = 510;
}
);
note = greater;
unicode = 003E;
},
{
glyphname = less;
lastChange = "2017-11-02 22:26:27 +0000";
layers = (
{
layerId = "C74BD54B-DC3B-4084-AB10-E48D432FD11D";
paths = (
{
closed = 1;
nodes = (
"70 334 LINE",
"465 544 LINE",
"465 580 LINE",
"29 345 LINE",
"29 324 LINE",
"465 90 LINE",
"465 126 LINE"
);
}
);
width = 494;
},
{
layerId = "043C55D1-ADA8-4506-BB55-8127E14D1A36";
paths = (
{
closed = 1;
nodes = (
"481 90 LINE",
"481 215 LINE",
"147 334 LINE",
"481 455 LINE",
"481 580 LINE",
"29 400 LINE",
"29 270 LINE"
);
}
);
width = 510;
}
);
note = less;
unicode = 003C;
},
{
glyphname = greaterequal;
lastChange = "2017-11-02 22:26:27 +0000";
layers = (
{
layerId = "C74BD54B-DC3B-4084-AB10-E48D432FD11D";
paths = (
{
closed = 1;
nodes = (
"29 580 LINE",
"29 544 LINE",
"424 334 LINE",
"29 126 LINE",
"29 90 LINE",
"465 324 LINE",
"465 345 LINE"
);
},
{
closed = 1;
nodes = (
"28 30 LINE",
"28 0 LINE",
"464 0 LINE",
"464 30 LINE"
);
}
);
width = 494;
},
{
layerId = "043C55D1-ADA8-4506-BB55-8127E14D1A36";
paths = (
{
closed = 1;
nodes = (
"480 300 LINE",
"480 430 LINE",
"28 610 LINE",
"28 485 LINE",
"362 364 LINE",
"28 245 LINE",
"28 120 LINE"
);
},
{
closed = 1;
nodes = (
"481 0 LINE",
"481 105 LINE",
"29 105 LINE",
"29 0 LINE"
);
}
);
width = 510;
}
);
note = greaterequal;
unicode = 2265;
},
{
glyphname = lessequal;
lastChange = "2017-11-02 22:26:27 +0000";
layers = (
{
layerId = "C74BD54B-DC3B-4084-AB10-E48D432FD11D";
paths = (
{
closed = 1;
nodes = (
"70 334 LINE",
"465 544 LINE",
"465 580 LINE",
"29 345 LINE",
"29 324 LINE",
"465 90 LINE",
"465 126 LINE"
);
},
{
closed = 1;
nodes = (
"29 30 LINE",
"29 0 LINE",
"465 0 LINE",
"465 30 LINE"
);
}
);
width = 494;
},
{
layerId = "043C55D1-ADA8-4506-BB55-8127E14D1A36";
paths = (
{
closed = 1;
nodes = (
"481 120 LINE",
"481 245 LINE",
"147 364 LINE",
"481 485 LINE",
"481 610 LINE",
"29 430 LINE",
"29 300 LINE"
);
},
{
closed = 1;
nodes = (
"481 0 LINE",
"481 105 LINE",
"29 105 LINE",
"29 0 LINE"
);
}
);
width = 510;
}
);
note = lessequal;
unicode = 2264;
},
{
glyphname = plusminus;
lastChange = "2017-11-02 22:26:27 +0000";
layers = (
{
layerId = "C74BD54B-DC3B-4084-AB10-E48D432FD11D";
paths = (
{
closed = 1;
nodes = (
"263 352 LINE",
"263 568 LINE",
"231 568 LINE",
"231 352 LINE",
"29 352 LINE",
"29 322 LINE",
"231 322 LINE",
"231 100 LINE",
"263 100 LINE",
"263 322 LINE",
"465 322 LINE",
"465 352 LINE"
);
},
{
closed = 1;
nodes = (
"29 30 LINE",
"29 0 LINE",
"465 0 LINE",
"465 30 LINE"
);
}
);
width = 494;
},
{
layerId = "043C55D1-ADA8-4506-BB55-8127E14D1A36";
paths = (
{
closed = 1;
nodes = (
"481 328 LINE",
"481 433 LINE",
"313 433 LINE",
"313 618 LINE",
"197 618 LINE",
"197 433 LINE",
"29 433 LINE",
"29 328 LINE",
"197 328 LINE",
"197 135 LINE",
"313 135 LINE",
"313 328 LINE"
);
},
{
closed = 1;
nodes = (
"481 0 LINE",
"481 105 LINE",
"29 105 LINE",
"29 0 LINE"
);
}
);
width = 510;
}
);
note = plusminus;
unicode = 00B1;
},
{
glyphname = approxequal;
lastChange = "2017-11-02 22:26:27 +0000";
layers = (
{
layerId = "C74BD54B-DC3B-4084-AB10-E48D432FD11D";
paths = (
{
closed = 1;
nodes = (
"61 200 OFFCURVE",
"97 190 OFFCURVE",
"138 190 CURVE SMOOTH",
"175 190 OFFCURVE",
"213 201 OFFCURVE",
"251 222 CURVE SMOOTH",
"288 243 OFFCURVE",
"323 254 OFFCURVE",
"355 254 CURVE SMOOTH",
"398 254 OFFCURVE",
"434 242 OFFCURVE",
"465 218 CURVE",
"465 254 LINE",
"433 274 OFFCURVE",
"396 284 OFFCURVE",
"355 284 CURVE SMOOTH",
"318 284 OFFCURVE",
"280 273 OFFCURVE",
"243 252 CURVE SMOOTH",
"205 231 OFFCURVE",
"170 220 OFFCURVE",
"138 220 CURVE SMOOTH",
"96 220 OFFCURVE",
"60 232 OFFCURVE",
"29 256 CURVE",
"29 220 LINE"
);
},
{
closed = 1;
nodes = (
"61 394 OFFCURVE",
"97 384 OFFCURVE",
"138 384 CURVE SMOOTH",
"175 384 OFFCURVE",
"213 395 OFFCURVE",
"251 416 CURVE SMOOTH",
"288 437 OFFCURVE",
"323 448 OFFCURVE",
"355 448 CURVE SMOOTH",
"398 448 OFFCURVE",
"434 436 OFFCURVE",
"465 412 CURVE",
"465 448 LINE",
"433 468 OFFCURVE",
"396 478 OFFCURVE",
"355 478 CURVE SMOOTH",
"318 478 OFFCURVE",
"280 467 OFFCURVE",
"243 446 CURVE SMOOTH",
"205 425 OFFCURVE",
"170 414 OFFCURVE",
"138 414 CURVE SMOOTH",
"96 414 OFFCURVE",
"60 426 OFFCURVE",
"29 450 CURVE",
"29 414 LINE"
);
}
);
width = 494;
},
{
layerId = "043C55D1-ADA8-4506-BB55-8127E14D1A36";
paths = (
{
closed = 1;
nodes = (
"29 190 LINE",
"59 179 OFFCURVE",
"104 171 OFFCURVE",
"142 171 CURVE SMOOTH",
"255 171 OFFCURVE",
"274 216 OFFCURVE",
"367 216 CURVE SMOOTH",
"405 216 OFFCURVE",
"447 206 OFFCURVE",
"481 189 CURVE",
"481 301 LINE",
"451 312 OFFCURVE",
"405 321 OFFCURVE",
"367 321 CURVE SMOOTH",
"254 321 OFFCURVE",
"235 276 OFFCURVE",
"142 276 CURVE SMOOTH",
"104 276 OFFCURVE",
"63 285 OFFCURVE",
"29 302 CURVE"
);
},
{
closed = 1;
nodes = (
"29 367 LINE",
"59 356 OFFCURVE",
"104 348 OFFCURVE",
"142 348 CURVE SMOOTH",
"255 348 OFFCURVE",
"274 393 OFFCURVE",
"367 393 CURVE SMOOTH",
"405 393 OFFCURVE",
"447 383 OFFCURVE",
"481 366 CURVE",
"481 478 LINE",
"451 489 OFFCURVE",
"405 498 OFFCURVE",
"367 498 CURVE SMOOTH",
"254 498 OFFCURVE",
"235 453 OFFCURVE",
"142 453 CURVE SMOOTH",
"104 453 OFFCURVE",
"63 462 OFFCURVE",
"29 479 CURVE"
);
}
);
width = 510;
}
);
note = approxequal;
unicode = 2248;
},
{
glyphname = asciitilde;
lastChange = "2017-11-02 22:26:27 +0000";
layers = (
{
layerId = "C74BD54B-DC3B-4084-AB10-E48D432FD11D";
paths = (
{
closed = 1;
nodes = (
"431 598 OFFCURVE",
"420 546 OFFCURVE",
"405 513 CURVE SMOOTH",
"389 479 OFFCURVE",
"367 462 OFFCURVE",
"339 462 CURVE SMOOTH",
"306 462 OFFCURVE",
"284 494 OFFCURVE",
"270 534 CURVE SMOOTH",
"263 554 OFFCURVE",
"255 574 OFFCURVE",
"248 594 CURVE",
"232 633 OFFCURVE",
"201 665 OFFCURVE",
"157 665 CURVE SMOOTH",
"77 665 OFFCURVE",
"41 576 OFFCURVE",
"28 436 CURVE",
"58 431 LINE",
"71 567 OFFCURVE",
"104 635 OFFCURVE",
"157 635 CURVE SMOOTH",
"197 635 OFFCURVE",
"224 585 OFFCURVE",
"237 534 CURVE SMOOTH",
"250 483 OFFCURVE",
"284 433 OFFCURVE",
"339 433 CURVE SMOOTH",
"367 433 OFFCURVE",
"390 444 OFFCURVE",
"409 467 CURVE SMOOTH",
"446 512 OFFCURVE",
"459 573 OFFCURVE",
"468 664 CURVE",
"438 667 LINE"
);
}
);
width = 496;
},
{
layerId = "043C55D1-ADA8-4506-BB55-8127E14D1A36";
paths = (
{
closed = 1;
nodes = (
"377 667 LINE",
"373 603 OFFCURVE",
"365 504 OFFCURVE",
"334 504 CURVE SMOOTH",
"291 504 OFFCURVE",
"320 667 OFFCURVE",
"185 667 CURVE SMOOTH",
"61 667 OFFCURVE",
"34 532 OFFCURVE",
"25 414 CURVE",
"143 401 LINE",
"147 463 OFFCURVE",
"154 563 OFFCURVE",
"185 563 CURVE SMOOTH",
"228 563 OFFCURVE",
"199 401 OFFCURVE",
"334 401 CURVE SMOOTH",
"459 401 OFFCURVE",
"484 535 OFFCURVE",
"493 653 CURVE"
);
}
);
width = 518;
}
);
note = asciitilde;
unicode = 007E;
},
{
glyphname = logicalnot;
lastChange = "2017-11-02 22:26:27 +0000";
layers = (
{
layerId = "C74BD54B-DC3B-4084-AB10-E48D432FD11D";
paths = (
{
closed = 1;
nodes = (
"29 418 LINE",
"433 418 LINE",
"433 220 LINE",
"465 220 LINE",
"465 448 LINE",
"29 448 LINE"
);
}
);
width = 494;
},
{
layerId = "043C55D1-ADA8-4506-BB55-8127E14D1A36";
paths = (
{
closed = 1;
nodes = (
"481 478 LINE",
"29 478 LINE",
"29 373 LINE",
"373 373 LINE",
"373 190 LINE",
"481 190 LINE"
);
}
);
width = 527;
}
);
note = logicalnot;
unicode = 00AC;
},
{
glyphname = infinity;
lastChange = "2017-11-02 22:26:27 +0000";
layers = (
{
layerId = "C74BD54B-DC3B-4084-AB10-E48D432FD11D";
paths = (
{
closed = 1;
nodes = (
"236 180 OFFCURVE",
"284 230 OFFCURVE",
"313 298 CURVE",
"342 230 OFFCURVE",
"391 180 OFFCURVE",
"454 180 CURVE SMOOTH",
"546 180 OFFCURVE",
"598 252 OFFCURVE",
"598 335 CURVE SMOOTH",
"598 419 OFFCURVE",
"547 490 OFFCURVE",
"454 490 CURVE SMOOTH",
"391 490 OFFCURVE",
"342 440 OFFCURVE",
"313 372 CURVE",
"284 440 OFFCURVE",
"236 490 OFFCURVE",
"173 490 CURVE SMOOTH",
"80 490 OFFCURVE",
"29 419 OFFCURVE",
"29 335 CURVE SMOOTH",
"29 252 OFFCURVE",
"81 180 OFFCURVE",
"173 180 CURVE SMOOTH"
);
},
{
closed = 1;
nodes = (
"403 211 OFFCURVE",
"361 252 OFFCURVE",
"328 335 CURVE",
"361 418 OFFCURVE",
"403 460 OFFCURVE",
"454 460 CURVE SMOOTH",
"526 460 OFFCURVE",
"566 408 OFFCURVE",
"566 335 CURVE SMOOTH",
"566 263 OFFCURVE",
"525 211 OFFCURVE",
"454 211 CURVE SMOOTH"
);
},
{
closed = 1;
nodes = (
"102 211 OFFCURVE",
"61 263 OFFCURVE",
"61 335 CURVE SMOOTH",
"61 408 OFFCURVE",
"101 460 OFFCURVE",
"173 460 CURVE SMOOTH",
"224 460 OFFCURVE",
"266 418 OFFCURVE",
"299 335 CURVE",
"266 252 OFFCURVE",
"224 211 OFFCURVE",
"173 211 CURVE SMOOTH"
);
}
);
width = 627;
},
{
layerId = "043C55D1-ADA8-4506-BB55-8127E14D1A36";
paths = (
{
closed = 1;
nodes = (
"275 147 OFFCURVE",
"333 184 OFFCURVE",
"362 237 CURVE",
"391 184 OFFCURVE",
"449 147 OFFCURVE",
"516 147 CURVE SMOOTH",
"647 147 OFFCURVE",
"695 244 OFFCURVE",
"695 335 CURVE SMOOTH",
"695 426 OFFCURVE",
"647 525 OFFCURVE",
"516 525 CURVE SMOOTH",
"449 525 OFFCURVE",
"391 487 OFFCURVE",
"362 434 CURVE",
"333 487 OFFCURVE",
"275 525 OFFCURVE",
"208 525 CURVE SMOOTH",
"79 525 OFFCURVE",
"29 427 OFFCURVE",
"29 336 CURVE SMOOTH",
"29 245 OFFCURVE",
"79 147 OFFCURVE",
"208 147 CURVE SMOOTH"
);
},
{
closed = 1;
nodes = (
"458 251 OFFCURVE",
"426 284 OFFCURVE",
"410 335 CURVE",
"426 386 OFFCURVE",
"458 421 OFFCURVE",
"500 421 CURVE SMOOTH",
"544 421 OFFCURVE",
"582 389 OFFCURVE",
"582 335 CURVE SMOOTH",
"582 281 OFFCURVE",
"544 251 OFFCURVE",
"500 251 CURVE SMOOTH"
);
},
{
closed = 1;
nodes = (
"181 250 OFFCURVE",
"142 282 OFFCURVE",
"142 336 CURVE SMOOTH",
"142 390 OFFCURVE",
"181 421 OFFCURVE",
"225 421 CURVE SMOOTH",
"267 421 OFFCURVE",
"299 387 OFFCURVE",
"315 336 CURVE",
"299 285 OFFCURVE",
"267 250 OFFCURVE",
"225 250 CURVE SMOOTH"
);
}
);
width = 724;
}
);
note = infinity;
unicode = 221E;
},
{
glyphname = integral;
lastChange = "2017-11-02 22:26:27 +0000";
layers = (
{
layerId = "C74BD54B-DC3B-4084-AB10-E48D432FD11D";
paths = (
{
closed = 1;
nodes = (
"131 -100 OFFCURVE",
"178 -52 OFFCURVE",
"178 13 CURVE SMOOTH",
"178 655 LINE SMOOTH",
"178 702 OFFCURVE",
"210 738 OFFCURVE",
"247 738 CURVE SMOOTH",
"309 738 LINE",
"309 768 LINE",
"247 768 LINE SMOOTH",
"195 768 OFFCURVE",
"148 720 OFFCURVE",
"148 655 CURVE SMOOTH",
"148 13 LINE SMOOTH",
"148 -34 OFFCURVE",
"116 -70 OFFCURVE",
"79 -70 CURVE SMOOTH",
"17 -70 LINE",
"17 -100 LINE",
"79 -100 LINE SMOOTH"
);
}
);
width = 326;
},
{
layerId = "043C55D1-ADA8-4506-BB55-8127E14D1A36";
paths = (
{
closed = 1;
nodes = (
"77 -100 LINE SMOOTH",
"174 -100 OFFCURVE",
"262 -32 OFFCURVE",
"262 84 CURVE SMOOTH",
"262 584 LINE SMOOTH",
"262 628 OFFCURVE",
"289 654 OFFCURVE",
"322 654 CURVE SMOOTH",
"382 654 LINE",
"382 768 LINE",
"322 768 LINE SMOOTH",
"225 768 OFFCURVE",
"137 699 OFFCURVE",
"137 583 CURVE SMOOTH",
"137 85 LINE SMOOTH",
"137 42 OFFCURVE",
"110 14 OFFCURVE",
"77 14 CURVE SMOOTH",
"17 14 LINE",
"17 -100 LINE"
);
}
);
width = 399;
}
);
note = integral;
unicode = 222B;
},
{
glyphname = Omega;
lastChange = "2017-11-02 22:26:27 +0000";
layers = (
{
layerId = "C74BD54B-DC3B-4084-AB10-E48D432FD11D";
paths = (
{
closed = 1;
nodes = (
"299 0 LINE",
"299 30 LINE",
"195 55 OFFCURVE",
"100 165 OFFCURVE",
"100 333 CURVE SMOOTH",
"100 518 OFFCURVE",
"211 647 OFFCURVE",
"382 647 CURVE SMOOTH",
"553 647 OFFCURVE",
"664 518 OFFCURVE",
"664 333 CURVE SMOOTH",
"664 165 OFFCURVE",
"570 55 OFFCURVE",
"466 30 CURVE",
"466 0 LINE",
"681 0 LINE",
"681 30 LINE",
"533 30 LINE",
"644 93 OFFCURVE",
"699 194 OFFCURVE",
"699 333 CURVE SMOOTH",
"699 530 OFFCURVE",
"573 678 OFFCURVE",
"382 678 CURVE SMOOTH",
"191 678 OFFCURVE",
"65 530 OFFCURVE",
"65 333 CURVE SMOOTH",
"65 194 OFFCURVE",
"121 93 OFFCURVE",
"232 30 CURVE",
"84 30 LINE",
"84 0 LINE"
);
}
);
width = 764;
},
{
layerId = "043C55D1-ADA8-4506-BB55-8127E14D1A36";
paths = (
{
closed = 1;
nodes = (
"35 0 LINE",
"333 0 LINE",
"333 176 LINE",
"253 200 OFFCURVE",
"223 275 OFFCURVE",
"223 335 CURVE SMOOTH",
"223 399 OFFCURVE",
"258 499 OFFCURVE",
"383 499 CURVE SMOOTH",
"508 499 OFFCURVE",
"543 399 OFFCURVE",
"543 335 CURVE SMOOTH",
"543 275 OFFCURVE",
"513 200 OFFCURVE",
"433 176 CURVE",
"433 0 LINE",
"731 0 LINE",
"731 176 LINE",
"628 176 LINE",
"694 226 OFFCURVE",
"748 297 OFFCURVE",
"748 383 CURVE SMOOTH",
"748 572 OFFCURVE",
"589 678 OFFCURVE",
"383 678 CURVE SMOOTH",
"178 678 OFFCURVE",
"18 572 OFFCURVE",
"18 383 CURVE SMOOTH",
"18 297 OFFCURVE",
"72 226 OFFCURVE",
"138 176 CURVE",
"35 176 LINE"
);
}
);
width = 766;
}
);
note = Omega;
unicode = 2126;
},
{
glyphname = Delta;
lastChange = "2017-11-02 22:26:27 +0000";
layers = (
{
layerId = "C74BD54B-DC3B-4084-AB10-E48D432FD11D";
paths = (
{
closed = 1;
nodes = (
"299 667 LINE",
"21 0 LINE",
"615 0 LINE",
"337 667 LINE"
);
},
{
closed = 1;
nodes = (
"318 630 LINE",
"567 30 LINE",
"69 30 LINE"
);
}
);
width = 636;
},
{
layerId = "043C55D1-ADA8-4506-BB55-8127E14D1A36";
paths = (
{
closed = 1;
nodes = (
"728 0 LINE",
"482 667 LINE",
"228 667 LINE",
"-18 0 LINE"
);
},
{
closed = 1;
nodes = (
"445 176 LINE",
"265 176 LINE",
"355 469 LINE"
);
}
);
width = 710;
}
);
leftKerningGroup = A;
note = Delta;
rightKerningGroup = A;
unicode = 2206;
},
{
glyphname = product;
lastChange = "2017-11-02 22:26:27 +0000";
layers = (
{
layerId = "C74BD54B-DC3B-4084-AB10-E48D432FD11D";
paths = (
{
closed = 1;
nodes = (
"601 637 LINE",
"601 667 LINE",
"38 667 LINE",
"38 637 LINE",
"151 637 LINE",
"151 -90 LINE",
"183 -90 LINE",
"183 637 LINE",
"455 637 LINE",
"455 -90 LINE",
"487 -90 LINE",
"487 637 LINE"
);
}
);
width = 639;
},
{
layerId = "043C55D1-ADA8-4506-BB55-8127E14D1A36";
paths = (
{
closed = 1;
nodes = (
"751 -90 LINE",
"751 491 LINE",
"850 491 LINE",
"850 667 LINE",
"18 667 LINE",
"18 491 LINE",
"118 491 LINE",
"118 -90 LINE",
"320 -90 LINE",
"320 491 LINE",
"549 491 LINE",
"549 -90 LINE"
);
}
);
width = 868;
}
);
note = product;
unicode = 220F;
},
{
glyphname = summation;
lastChange = "2017-11-02 22:26:27 +0000";
layers = (
{
layerId = "C74BD54B-DC3B-4084-AB10-E48D432FD11D";
paths = (
{
closed = 1;
nodes = (
"505 667 LINE",
"63 667 LINE",
"63 637 LINE",
"317 299 LINE",
"62 -60 LINE",
"62 -90 LINE",
"505 -90 LINE",
"505 -60 LINE",
"99 -60 LINE",
"355 300 LINE",
"101 637 LINE",
"505 637 LINE"
);
}
);
width = 567;
},
{
layerId = "043C55D1-ADA8-4506-BB55-8127E14D1A36";
paths = (
{
closed = 1;
nodes = (
"460 295 LINE",
"281 86 LINE",
"560 86 LINE",
"560 -90 LINE",
"36 -90 LINE",
"36 86 LINE",
"211 294 LINE",
"37 492 LINE",
"37 667 LINE",
"560 667 LINE",
"560 491 LINE",
"290 491 LINE"
);
}
);
width = 596;
}
);
note = summation;
unicode = 2211;
},
{
glyphname = radical;
lastChange = "2017-11-02 22:26:27 +0000";
layers = (
{
layerId = "C74BD54B-DC3B-4084-AB10-E48D432FD11D";
paths = (
{
closed = 1;
nodes = (
"695 667 LINE",
"429 35 LINE",
"279 388 LINE",
"78 304 LINE",
"90 276 LINE",
"265 349 LINE",
"411 0 LINE",
"446 0 LINE",
"724 667 LINE"
);
}
);
width = 762;
},
{
layerId = "043C55D1-ADA8-4506-BB55-8127E14D1A36";
paths = (
{
closed = 1;
nodes = (
"382 0 LINE",
"621 667 LINE",
"491 667 LINE",
"329 177 LINE",
"255 411 LINE",
"39 345 LINE",
"70 244 LINE",
"177 277 LINE",
"271 0 LINE"
);
}
);
width = 639;
}
);
note = radical;
unicode = 221A;
},
{
glyphname = mu;
lastChange = "2017-11-02 22:26:27 +0000";
layers = (
{
layerId = "C74BD54B-DC3B-4084-AB10-E48D432FD11D";
paths = (
{
closed = 1;
nodes = (
"137 10 OFFCURVE",
"180 -12 OFFCURVE",
"243 -12 CURVE SMOOTH",
"304 -12 OFFCURVE",
"369 25 OFFCURVE",
"412 74 CURVE",
"417 17 OFFCURVE",
"444 -12 OFFCURVE",
"494 -12 CURVE SMOOTH",
"501 -12 OFFCURVE",
"509 -11 OFFCURVE",
"517 -10 CURVE",
"514 17 LINE",
"509 16 OFFCURVE",
"502 15 OFFCURVE",
"494 15 CURVE SMOOTH",
"459 15 OFFCURVE",
"442 38 OFFCURVE",
"442 85 CURVE SMOOTH",
"442 483 LINE",
"412 483 LINE",
"412 103 LINE",
"377 54 OFFCURVE",
"306 13 OFFCURVE",
"243 13 CURVE SMOOTH",
"158 13 OFFCURVE",
"116 57 OFFCURVE",
"116 144 CURVE SMOOTH",
"116 483 LINE",
"86 483 LINE",
"86 -184 LINE",
"116 -184 LINE",
"116 53 LINE"
);
}
);
width = 542;
},
{
layerId = "043C55D1-ADA8-4506-BB55-8127E14D1A36";
paths = (
{
closed = 1;
nodes = (
"230 -184 LINE",
"230 -12 LINE",
"303 -7 OFFCURVE",
"350 25 OFFCURVE",
"376 54 CURVE",
"376 0 LINE",
"556 0 LINE",
"556 483 LINE",
"376 483 LINE",
"376 185 LINE",
"361 168 OFFCURVE",
"340 147 OFFCURVE",
"300 147 CURVE SMOOTH",
"256 147 OFFCURVE",
"230 166 OFFCURVE",
"230 215 CURVE SMOOTH",
"230 483 LINE",
"50 483 LINE",
"50 -184 LINE"
);
}
);
width = 606;
}
);
leftKerningGroup = u;
note = mu;
rightKerningGroup = u;
unicode = 00B5;
},
{
glyphname = partialdiff;
lastChange = "2017-11-02 22:26:27 +0000";
layers = (
{
layerId = "C74BD54B-DC3B-4084-AB10-E48D432FD11D";
paths = (
{
closed = 1;
nodes = (
"420 -12 OFFCURVE",
"510 97 OFFCURVE",
"510 242 CURVE SMOOTH",
"510 342 OFFCURVE",
"471 437 OFFCURVE",
"408 510 CURVE SMOOTH",
"344 582 OFFCURVE",
"269 637 OFFCURVE",
"184 678 CURVE",
"166 651 LINE",
"293 592 OFFCURVE",
"398 498 OFFCURVE",
"441 410 CURVE",
"400 467 OFFCURVE",
"348 495 OFFCURVE",
"285 495 CURVE SMOOTH",
"152 495 OFFCURVE",
"60 386 OFFCURVE",
"60 242 CURVE SMOOTH",
"60 97 OFFCURVE",
"152 -12 OFFCURVE",
"285 -12 CURVE SMOOTH"
);
},
{
closed = 1;
nodes = (
"168 15 OFFCURVE",
"93 117 OFFCURVE",
"93 242 CURVE SMOOTH",
"93 366 OFFCURVE",
"168 468 OFFCURVE",
"285 468 CURVE SMOOTH",
"404 468 OFFCURVE",
"477 366 OFFCURVE",
"477 242 CURVE SMOOTH",
"477 117 OFFCURVE",
"404 15 OFFCURVE",
"285 15 CURVE SMOOTH"
);
}
);
width = 570;
},
{
layerId = "043C55D1-ADA8-4506-BB55-8127E14D1A36";
paths = (
{
closed = 1;
nodes = (
"460 -12 OFFCURVE",
"560 94 OFFCURVE",
"560 264 CURVE SMOOTH",
"560 447 OFFCURVE",
"441 614 OFFCURVE",
"334 687 CURVE",
"188 593 LINE",
"295 533 OFFCURVE",
"346 457 OFFCURVE",
"378 366 CURVE",
"350 415 OFFCURVE",
"298 441 OFFCURVE",
"225 441 CURVE SMOOTH",
"109 441 OFFCURVE",
"17 336 OFFCURVE",
"17 215 CURVE SMOOTH",
"17 94 OFFCURVE",
"117 -12 OFFCURVE",
"288 -12 CURVE SMOOTH"
);
},
{
closed = 1;
nodes = (
"233 147 OFFCURVE",
"202 172 OFFCURVE",
"202 215 CURVE SMOOTH",
"202 258 OFFCURVE",
"233 283 OFFCURVE",
"288 283 CURVE SMOOTH",
"344 283 OFFCURVE",
"375 258 OFFCURVE",
"375 215 CURVE SMOOTH",
"375 172 OFFCURVE",
"344 147 OFFCURVE",
"288 147 CURVE SMOOTH"
);
}
);
width = 577;
}
);
note = partialdiff;
unicode = 2202;
},
{
glyphname = percent;
lastChange = "2017-11-02 22:26:27 +0000";
layers = (
{
layerId = "C74BD54B-DC3B-4084-AB10-E48D432FD11D";
paths = (
{
closed = 1;
nodes = (
"328 428 OFFCURVE",
"342 466 OFFCURVE",
"342 513 CURVE SMOOTH",
"342 608 OFFCURVE",
"278 677 OFFCURVE",
"189 677 CURVE SMOOTH",
"100 677 OFFCURVE",
"36 608 OFFCURVE",
"36 513 CURVE SMOOTH",
"36 420 OFFCURVE",
"100 351 OFFCURVE",
"189 351 CURVE SMOOTH",
"234 351 OFFCURVE",
"270 366 OFFCURVE",
"299 397 CURVE SMOOTH"
);
},
{
closed = 1;
nodes = (
"553 667 LINE",
"127 0 LINE",
"163 0 LINE",
"590 667 LINE"
);
},
{
closed = 1;
nodes = (
"659 65 OFFCURVE",
"673 103 OFFCURVE",
"673 150 CURVE SMOOTH",
"673 245 OFFCURVE",
"609 314 OFFCURVE",
"520 314 CURVE SMOOTH",
"431 314 OFFCURVE",
"367 245 OFFCURVE",
"367 150 CURVE SMOOTH",
"367 57 OFFCURVE",
"431 -12 OFFCURVE",
"520 -12 CURVE SMOOTH",
"565 -12 OFFCURVE",
"601 3 OFFCURVE",
"630 34 CURVE SMOOTH"
);
},
{
closed = 1;
nodes = (
"120 378 OFFCURVE",
"69 440 OFFCURVE",
"69 513 CURVE SMOOTH",
"69 589 OFFCURVE",
"120 650 OFFCURVE",
"189 650 CURVE SMOOTH",
"260 650 OFFCURVE",
"309 589 OFFCURVE",
"309 513 CURVE SMOOTH",
"309 438 OFFCURVE",
"260 378 OFFCURVE",
"189 378 CURVE SMOOTH"
);
},
{
closed = 1;
nodes = (
"411 81 OFFCURVE",
"400 113 OFFCURVE",
"400 150 CURVE SMOOTH",
"400 226 OFFCURVE",
"449 287 OFFCURVE",
"520 287 CURVE SMOOTH",
"591 287 OFFCURVE",
"640 226 OFFCURVE",
"640 150 CURVE SMOOTH",
"640 75 OFFCURVE",
"591 15 OFFCURVE",
"520 15 CURVE SMOOTH",
"485 15 OFFCURVE",
"456 28 OFFCURVE",
"434 55 CURVE"
);
}
);
width = 709;
},
{
layerId = "043C55D1-ADA8-4506-BB55-8127E14D1A36";
paths = (
{
closed = 1;
nodes = (
"308 341 OFFCURVE",
"378 415 OFFCURVE",
"378 508 CURVE SMOOTH",
"378 602 OFFCURVE",
"308 677 OFFCURVE",
"198 677 CURVE SMOOTH",
"89 677 OFFCURVE",
"20 602 OFFCURVE",
"20 508 CURVE SMOOTH",
"20 415 OFFCURVE",
"89 341 OFFCURVE",
"198 341 CURVE SMOOTH"
);
},
{
closed = 1;
nodes = (
"228 0 LINE",
"655 667 LINE",
"557 667 LINE",
"131 0 LINE"
);
},
{
closed = 1;
nodes = (
"694 -12 OFFCURVE",
"764 62 OFFCURVE",
"764 155 CURVE SMOOTH",
"764 249 OFFCURVE",
"694 324 OFFCURVE",
"585 324 CURVE SMOOTH",
"476 324 OFFCURVE",
"407 249 OFFCURVE",
"407 155 CURVE SMOOTH",
"407 62 OFFCURVE",
"476 -12 OFFCURVE",
"585 -12 CURVE SMOOTH"
);
},
{
closed = 1;
nodes = (
"167 447 OFFCURVE",
"142 465 OFFCURVE",
"142 508 CURVE SMOOTH",
"142 553 OFFCURVE",
"167 571 OFFCURVE",
"198 571 CURVE SMOOTH",
"230 571 OFFCURVE",
"256 553 OFFCURVE",
"256 508 CURVE SMOOTH",
"256 465 OFFCURVE",
"230 447 OFFCURVE",
"198 447 CURVE SMOOTH"
);
},
{
closed = 1;
nodes = (
"553 94 OFFCURVE",
"528 111 OFFCURVE",
"528 155 CURVE SMOOTH",
"528 200 OFFCURVE",
"553 218 OFFCURVE",
"585 218 CURVE SMOOTH",
"617 218 OFFCURVE",
"643 200 OFFCURVE",
"643 155 CURVE SMOOTH",
"643 111 OFFCURVE",
"617 94 OFFCURVE",
"585 94 CURVE SMOOTH"
);
}
);
width = 784;
}
);
note = percent;
unicode = 0025;
},
{
glyphname = perthousand;
lastChange = "2017-11-02 22:26:27 +0000";
layers = (
{
layerId = "C74BD54B-DC3B-4084-AB10-E48D432FD11D";
paths = (
{
closed = 1;
nodes = (
"342 608 OFFCURVE",
"278 677 OFFCURVE",
"189 677 CURVE SMOOTH",
"100 677 OFFCURVE",
"36 608 OFFCURVE",
"36 513 CURVE SMOOTH",
"36 420 OFFCURVE",
"100 351 OFFCURVE",
"189 351 CURVE SMOOTH",
"278 351 OFFCURVE",
"342 420 OFFCURVE",
"342 513 CURVE SMOOTH"
);
},
{
closed = 1;
nodes = (
"127 0 LINE",
"163 0 LINE",
"590 667 LINE",
"553 667 LINE"
);
},
{
closed = 1;
nodes = (
"673 245 OFFCURVE",
"609 314 OFFCURVE",
"520 314 CURVE SMOOTH",
"431 314 OFFCURVE",
"367 245 OFFCURVE",
"367 150 CURVE SMOOTH",
"367 57 OFFCURVE",
"431 -12 OFFCURVE",
"520 -12 CURVE SMOOTH",
"609 -12 OFFCURVE",
"673 57 OFFCURVE",
"673 150 CURVE SMOOTH"
);
},
{
closed = 1;
nodes = (
"309 438 OFFCURVE",
"260 378 OFFCURVE",
"189 378 CURVE SMOOTH",
"120 378 OFFCURVE",
"69 440 OFFCURVE",
"69 513 CURVE SMOOTH",
"69 589 OFFCURVE",
"120 650 OFFCURVE",
"189 650 CURVE SMOOTH",
"260 650 OFFCURVE",
"309 589 OFFCURVE",
"309 513 CURVE SMOOTH"
);
},
{
closed = 1;
nodes = (
"640 75 OFFCURVE",
"591 15 OFFCURVE",
"520 15 CURVE SMOOTH",
"449 15 OFFCURVE",
"400 75 OFFCURVE",
"400 150 CURVE SMOOTH",
"400 226 OFFCURVE",
"449 287 OFFCURVE",
"520 287 CURVE SMOOTH",
"591 287 OFFCURVE",
"640 226 OFFCURVE",
"640 150 CURVE SMOOTH"
);
},
{
closed = 1;
nodes = (
"1015 245 OFFCURVE",
"951 314 OFFCURVE",
"862 314 CURVE SMOOTH",
"773 314 OFFCURVE",
"709 245 OFFCURVE",
"709 150 CURVE SMOOTH",
"709 57 OFFCURVE",
"773 -12 OFFCURVE",
"862 -12 CURVE SMOOTH",
"951 -12 OFFCURVE",
"1015 57 OFFCURVE",
"1015 150 CURVE SMOOTH"
);
},
{
closed = 1;
nodes = (
"982 75 OFFCURVE",
"933 15 OFFCURVE",
"862 15 CURVE SMOOTH",
"791 15 OFFCURVE",
"742 75 OFFCURVE",
"742 150 CURVE SMOOTH",
"742 226 OFFCURVE",
"791 287 OFFCURVE",
"862 287 CURVE SMOOTH",
"933 287 OFFCURVE",
"982 226 OFFCURVE",
"982 150 CURVE SMOOTH"
);
}
);
width = 1051;
},
{
layerId = "043C55D1-ADA8-4506-BB55-8127E14D1A36";
paths = (
{
closed = 1;
nodes = (
"378 602 OFFCURVE",
"308 677 OFFCURVE",
"198 677 CURVE SMOOTH",
"89 677 OFFCURVE",
"20 602 OFFCURVE",
"20 508 CURVE SMOOTH",
"20 415 OFFCURVE",
"89 341 OFFCURVE",
"198 341 CURVE SMOOTH",
"308 341 OFFCURVE",
"378 415 OFFCURVE",
"378 508 CURVE SMOOTH"
);
},
{
closed = 1;
nodes = (
"655 667 LINE",
"557 667 LINE",
"131 0 LINE",
"228 0 LINE"
);
},
{
closed = 1;
nodes = (
"764 249 OFFCURVE",
"694 324 OFFCURVE",
"585 324 CURVE SMOOTH",
"476 324 OFFCURVE",
"407 249 OFFCURVE",
"407 155 CURVE SMOOTH",
"407 62 OFFCURVE",
"476 -12 OFFCURVE",
"585 -12 CURVE SMOOTH",
"694 -12 OFFCURVE",
"764 62 OFFCURVE",
"764 155 CURVE SMOOTH"
);
},
{
closed = 1;
nodes = (
"256 456 OFFCURVE",
"230 435 OFFCURVE",
"198 435 CURVE SMOOTH",
"167 435 OFFCURVE",
"142 456 OFFCURVE",
"142 508 CURVE SMOOTH",
"142 562 OFFCURVE",
"167 583 OFFCURVE",
"198 583 CURVE SMOOTH",
"230 583 OFFCURVE",
"256 562 OFFCURVE",
"256 508 CURVE SMOOTH"
);
},
{
closed = 1;
nodes = (
"643 103 OFFCURVE",
"617 82 OFFCURVE",
"585 82 CURVE SMOOTH",
"553 82 OFFCURVE",
"528 103 OFFCURVE",
"528 155 CURVE SMOOTH",
"528 209 OFFCURVE",
"553 230 OFFCURVE",
"585 230 CURVE SMOOTH",
"617 230 OFFCURVE",
"643 209 OFFCURVE",
"643 155 CURVE SMOOTH"
);
},
{
closed = 1;
nodes = (
"1140 249 OFFCURVE",
"1070 324 OFFCURVE",
"961 324 CURVE SMOOTH",
"852 324 OFFCURVE",
"783 249 OFFCURVE",
"783 155 CURVE SMOOTH",
"783 62 OFFCURVE",
"852 -12 OFFCURVE",
"961 -12 CURVE SMOOTH",
"1070 -12 OFFCURVE",
"1140 62 OFFCURVE",
"1140 155 CURVE SMOOTH"
);
},
{
closed = 1;
nodes = (
"1019 103 OFFCURVE",
"993 82 OFFCURVE",
"961 82 CURVE SMOOTH",
"929 82 OFFCURVE",
"904 103 OFFCURVE",
"904 155 CURVE SMOOTH",
"904 209 OFFCURVE",
"929 230 OFFCURVE",
"961 230 CURVE SMOOTH",
"993 230 OFFCURVE",
"1019 209 OFFCURVE",
"1019 155 CURVE SMOOTH"
);
}
);
width = 1160;
}
);
note = perthousand;
unicode = 2030;
},
{
glyphname = triangleleft;
lastChange = "2017-11-02 22:26:27 +0000";
layers = (
{
layerId = "C74BD54B-DC3B-4084-AB10-E48D432FD11D";
paths = (
{
closed = 1;
nodes = (
"535 -23 LINE",
"535 595 LINE",
"0 286 LINE"
);
}
);
width = 587;
},
{
layerId = "043C55D1-ADA8-4506-BB55-8127E14D1A36";
paths = (
{
closed = 1;
nodes = (
"535 595 LINE",
"0 286 LINE",
"535 -23 LINE"
);
}
);
width = 587;
}
);
note = triangleleft;
unicode = 22B3;
},
{
glyphname = triangleright;
lastChange = "2017-11-02 22:26:27 +0000";
layers = (
{
layerId = "C74BD54B-DC3B-4084-AB10-E48D432FD11D";
paths = (
{
closed = 1;
nodes = (
"54 -23 LINE",
"589 286 LINE",
"54 595 LINE"
);
}
);
width = 587;
},
{
layerId = "043C55D1-ADA8-4506-BB55-8127E14D1A36";
paths = (
{
closed = 1;
nodes = (
"589 286 LINE",
"54 595 LINE",
"54 -23 LINE"
);
}
);
width = 587;
}
);
note = triangleright;
unicode = 22B2;
},
{
glyphname = uni2215;
lastChange = "2017-11-02 22:28:10 +0000";
layers = (
{
layerId = "C74BD54B-DC3B-4084-AB10-E48D432FD11D";
paths = (
{
closed = 1;
nodes = (
"-171 0 LINE",
"-135 0 LINE",
"292 667 LINE",
"255 667 LINE"
);
}
);
width = 121;
},
{
layerId = "043C55D1-ADA8-4506-BB55-8127E14D1A36";
width = 600;
}
);
note = uni2215;
unicode = 2215;
},
{
glyphname = uni2219;
lastChange = "2017-11-02 22:28:10 +0000";
layers = (
{
layerId = "C74BD54B-DC3B-4084-AB10-E48D432FD11D";
paths = (
{
closed = 1;
nodes = (
"120 274 OFFCURVE",
"113 277 OFFCURVE",
"104 277 CURVE SMOOTH",
"87 277 OFFCURVE",
"71 262 OFFCURVE",
"71 245 CURVE SMOOTH",
"71 228 OFFCURVE",
"85 212 OFFCURVE",
"104 212 CURVE SMOOTH",
"123 212 OFFCURVE",
"137 228 OFFCURVE",
"137 245 CURVE SMOOTH",
"137 254 OFFCURVE",
"134 261 OFFCURVE",
"127 268 CURVE"
);
}
);
width = 208;
},
{
layerId = "043C55D1-ADA8-4506-BB55-8127E14D1A36";
width = 600;
}
);
note = uni2219;
unicode = 2219;
},
{
glyphname = percent.onum;
lastChange = "2017-11-02 22:26:27 +0000";
layers = (
{
layerId = "C74BD54B-DC3B-4084-AB10-E48D432FD11D";
paths = (
{
closed = 1;
nodes = (
"222 549 OFFCURVE",
"191 562 OFFCURVE",
"154 562 CURVE SMOOTH",
"81 562 OFFCURVE",
"27 503 OFFCURVE",
"27 426 CURVE SMOOTH",
"27 349 OFFCURVE",
"81 291 OFFCURVE",
"154 291 CURVE SMOOTH",
"229 291 OFFCURVE",
"282 349 OFFCURVE",
"282 426 CURVE SMOOTH",
"282 465 OFFCURVE",
"270 497 OFFCURVE",
"246 523 CURVE SMOOTH"
);
},
{
closed = 1;
nodes = (
"546 202 OFFCURVE",
"492 259 OFFCURVE",
"419 259 CURVE SMOOTH",
"346 259 OFFCURVE",
"292 202 OFFCURVE",
"292 123 CURVE SMOOTH",
"292 46 OFFCURVE",
"346 -12 OFFCURVE",
"419 -12 CURVE SMOOTH",
"492 -12 OFFCURVE",
"546 46 OFFCURVE",
"546 123 CURVE SMOOTH"
);
},
{
closed = 1;
nodes = (
"77 0 LINE",
"113 0 LINE",
"497 550 LINE",
"459 550 LINE"
);
},
{
closed = 1;
nodes = (
"206 327 OFFCURVE",
"183 316 OFFCURVE",
"154 316 CURVE SMOOTH",
"97 316 OFFCURVE",
"57 365 OFFCURVE",
"57 426 CURVE SMOOTH",
"57 487 OFFCURVE",
"97 537 OFFCURVE",
"154 537 CURVE SMOOTH",
"211 537 OFFCURVE",
"251 487 OFFCURVE",
"251 426 CURVE SMOOTH",
"251 395 OFFCURVE",
"242 369 OFFCURVE",
"224 348 CURVE SMOOTH"
);
},
{
closed = 1;
nodes = (
"516 62 OFFCURVE",
"476 13 OFFCURVE",
"419 13 CURVE SMOOTH",
"362 13 OFFCURVE",
"322 62 OFFCURVE",
"322 123 CURVE SMOOTH",
"322 186 OFFCURVE",
"362 234 OFFCURVE",
"419 234 CURVE SMOOTH",
"476 234 OFFCURVE",
"516 186 OFFCURVE",
"516 123 CURVE SMOOTH"
);
}
);
width = 573;
},
{
layerId = "043C55D1-ADA8-4506-BB55-8127E14D1A36";
paths = (
{
closed = 1;
nodes = (
"303 499 OFFCURVE",
"248 562 OFFCURVE",
"162 562 CURVE SMOOTH",
"77 562 OFFCURVE",
"23 499 OFFCURVE",
"23 422 CURVE SMOOTH",
"23 345 OFFCURVE",
"77 283 OFFCURVE",
"162 283 CURVE SMOOTH",
"248 283 OFFCURVE",
"303 345 OFFCURVE",
"303 422 CURVE SMOOTH"
);
},
{
closed = 1;
nodes = (
"612 207 OFFCURVE",
"557 270 OFFCURVE",
"472 270 CURVE SMOOTH",
"387 270 OFFCURVE",
"333 207 OFFCURVE",
"333 130 CURVE SMOOTH",
"333 53 OFFCURVE",
"387 -9 OFFCURVE",
"472 -9 CURVE SMOOTH",
"557 -9 OFFCURVE",
"612 53 OFFCURVE",
"612 130 CURVE SMOOTH"
);
},
{
closed = 1;
nodes = (
"554 550 LINE",
"463 550 LINE",
"80 0 LINE",
"170 0 LINE"
);
},
{
closed = 1;
nodes = (
"202 389 OFFCURVE",
"184 372 OFFCURVE",
"162 372 CURVE SMOOTH",
"142 372 OFFCURVE",
"125 389 OFFCURVE",
"125 422 CURVE SMOOTH",
"125 456 OFFCURVE",
"142 474 OFFCURVE",
"162 474 CURVE SMOOTH",
"184 474 OFFCURVE",
"202 456 OFFCURVE",
"202 422 CURVE SMOOTH"
);
},
{
closed = 1;
nodes = (
"511 96 OFFCURVE",
"494 80 OFFCURVE",
"472 80 CURVE SMOOTH",
"450 80 OFFCURVE",
"433 95 OFFCURVE",
"433 130 CURVE SMOOTH",
"433 164 OFFCURVE",
"450 181 OFFCURVE",
"472 181 CURVE SMOOTH",
"494 181 OFFCURVE",
"511 164 OFFCURVE",
"511 130 CURVE SMOOTH"
);
}
);
width = 635;
}
);
note = percent.onum;
unicode = F642;
},
